<?xml version="1.0" standalone="no"?>
<!DOCTYPE svg PUBLIC "-//W3C//DTD SVG 1.1//EN" "http://www.w3.org/Graphics/SVG/1.1/DTD/svg11.dtd" >
<svg>
<metadata>
Created by FontForge 20090914 at Fri Feb  4 10:22:37 2022
 By www-data
Copyright 2020 The Spartan Project Authors (https://github.com/bghryct/Spartan-MB)
</metadata>
<defs>
<font id="Spartan-Black" horiz-adv-x="1464" >
  <font-face 
    font-family="Spartan Black"
    font-weight="900"
    font-stretch="normal"
    units-per-em="2000"
    panose-1="0 0 0 0 0 0 0 0 0 0"
    ascent="1600"
    descent="-400"
    x-height="1024"
    cap-height="1650"
    bbox="-500 -590.003 3450 2398"
    underline-thickness="100"
    underline-position="-100"
    unicode-range="U+000D-U+FB02"
  />
<missing-glyph horiz-adv-x="684" 
 />
    <glyph glyph-name="fi" unicode="fi" horiz-adv-x="1492" 
d="M218 0v708.001h-160v316h160v178c0 105.333 17.167 199.333 51.5 282s84.333 147.667 150 195s145.167 71 238.5 71c80 0 154.167 -9 222.5 -27s129.166 -40.333 182.499 -67s97 -53.334 131 -80.001l-138 -296c-34 24.667 -75.667 48.5 -125 71.5
s-97.666 34.5 -144.999 34.5c-60 0 -100.333 -16 -121 -48s-31 -82 -31 -150v-164h752v-1024h-416v708h-336v-708h-416z" />
    <glyph glyph-name="fl" unicode="fl" horiz-adv-x="1493" 
d="M179 0l0.000976562 708h-160v316h160v178c0 105.333 17 199.333 51 282s83.667 147.667 149 195s144.666 71 237.999 71c55.333 0 104 -6 146 -18s74 -24 96 -36l-60 -342c-11.333 6 -26.666 12.167 -45.999 18.5s-40 9.5 -62 9.5c-42.667 0 -69.334 -15.333 -80.001 -46
s-16 -80 -16 -148v-164h228v-316h-228v-708h-416zM921.001 0v1720h416v-1720h-416z" />
    <glyph glyph-name="f_f" unicode="ff" horiz-adv-x="1679" 
d="M179 0l0.00390625 708h-160v316h160v178c0 105.333 17 199.333 51 282s83.667 147.667 149 195s144.666 71 237.999 71c73.333 0 138 -11.333 194 -34s99.333 -46 130 -70l-144 -292c-10 5.33301 -24.5 11.333 -43.5 18s-39.833 10 -62.5 10
c-42.667 0 -69.334 -15.333 -80.001 -46s-16 -80 -16 -148v-164h358v178c0 105.333 17 199.333 51 282s83.667 147.667 149 195s144.666 71 237.999 71c73.333 0 137.5 -11.167 192.5 -33.5s97.5 -45.166 127.5 -68.499l-144 -290c-10.667 5.33301 -25 10.666 -43 15.999
s-37.667 8 -59 8c-42.667 0 -69.334 -15.333 -80.001 -46s-16 -80 -16 -148v-164h228v-316h-228v-708h-416v708h-358v-708h-416z" />
    <glyph glyph-name="f_f_i" unicode="ffi" horiz-adv-x="2268" 
d="M218 0l0.00195312 708.001h-160v316h160v178c0 105.333 17 199.333 51 282s83.667 147.667 149 195s144.666 71 237.999 71c73.333 0 138 -11.333 194 -34s99.333 -46 130 -70l-144 -292c-10 5.33301 -24.5 11.333 -43.5 18s-39.833 10 -62.5 10
c-42.667 0 -69.334 -15.333 -80.001 -46s-16 -80 -16 -148v-164h360v178c0 105.333 17.167 199.333 51.5 282s84.333 147.667 150 195s145.167 71 238.5 71c80 0 154.167 -9 222.5 -27s129.166 -40.333 182.499 -67s97 -53.334 131 -80.001l-138 -296
c-34 24.667 -75.667 48.5 -125 71.5s-97.666 34.5 -144.999 34.5c-60 0 -100.333 -16 -121 -48s-31 -82 -31 -150v-164h752v-1024h-416v708h-336v-708h-416v708h-360v-708h-416z" />
    <glyph glyph-name="f_f_l" unicode="ffl" horiz-adv-x="2267" 
d="M179 0l0.00292969 708h-160v316h160v178c0 105.333 17 199.333 51 282s83.667 147.667 149 195s144.666 71 237.999 71c73.333 0 138 -11.333 194 -34s99.333 -46 130 -70l-144 -292c-10 5.33301 -24.5 11.333 -43.5 18s-39.833 10 -62.5 10
c-42.667 0 -69.334 -15.333 -80.001 -46s-16 -80 -16 -148v-164h358v178c0 105.333 17 199.333 51 282s83.667 147.667 149 195s144.666 71 237.999 71c55.333 0 104 -6 146 -18s74 -24 96 -36l-60 -342c-11.333 6 -26.666 12.167 -45.999 18.5s-40 9.5 -62 9.5
c-42.667 0 -69.334 -15.333 -80.001 -46s-16 -80 -16 -148v-164h228v-316h-228v-708h-416v708h-358v-708h-416zM1695 0v1720h416v-1720h-416z" />
    <glyph glyph-name=".notdef" horiz-adv-x="684" 
 />
    <glyph glyph-name="NULL" horiz-adv-x="0" 
 />
    <glyph glyph-name="NULL" horiz-adv-x="0" 
 />
    <glyph glyph-name="CR" unicode="&#xd;" horiz-adv-x="556" 
 />
    <glyph glyph-name="space" unicode=" " horiz-adv-x="556" 
 />
    <glyph glyph-name="exclam" unicode="!" horiz-adv-x="806" 
d="M253 580l-58 1140h416l-58 -1140h-300zM401 -32c-49.333 0 -94.166 11.833 -134.499 35.5s-72.333 55.667 -96 96s-35.5 85.166 -35.5 134.499s11.833 94.166 35.5 134.499s55.667 72.333 96 96s85.166 35.5 134.499 35.5s94.166 -11.833 134.499 -35.5
s72.333 -55.667 96 -96s35.5 -85.166 35.5 -134.499s-11.833 -94.166 -35.5 -134.499s-55.667 -72.333 -96 -96s-85.166 -35.5 -134.499 -35.5z" />
    <glyph glyph-name="quotedbl" unicode="&#x22;" horiz-adv-x="1202" 
d="M733 866l-74 820h392l-74 -820h-244zM225 866l-74 820h392l-74 -820h-244z" />
    <glyph glyph-name="numbersign" unicode="#" horiz-adv-x="1645" 
d="M276 0l50 442h-204v284h238l30 256h-268v284h302l52 440h284l-54 -440h326l52 440h284l-54 -440h210v-284h-242l-30 -256h272v-284h-308l-50 -442h-282l50 442h-326l-50 -442h-282zM644 726h324l32 256h-326z" />
    <glyph glyph-name="dollar" unicode="$" horiz-adv-x="1406" 
d="M609 -276l-0.00195312 245.997c-54.667 2 -109.167 8 -163.5 18s-106.666 23.167 -156.999 39.5s-97.333 35.5 -141 57.5s-82.5 46.333 -116.5 73l218 374c47.333 -32 96.333 -59.667 147 -83s100.5 -41.333 149.5 -54s94.167 -19 135.5 -19
c34.667 0 63.334 4.33301 86.001 13s39.667 20.834 51 36.501s17 34.5 17 56.5c0 25.333 -7.16699 48.333 -21.5 69s-35.833 40.834 -64.5 60.501s-64.167 40.334 -106.5 62.001l-147.5 72.5c-64 30.667 -119.167 66.834 -165.5 108.501s-82 88.5 -107 140.5
s-37.5 108.667 -37.5 170c0 69.333 16.333 138 49 206s80.5 128.333 143.5 181s140.167 90 231.5 112v262h250v-252c74 -8 149.167 -24.333 225.5 -49s141.833 -53.667 196.5 -87l-174 -354c-52.667 29.333 -108.667 52.666 -168 69.999s-115 26 -167 26
c-32 0 -59.667 -3.5 -83 -10.5s-41.166 -17.167 -53.499 -30.5s-18.5 -30 -18.5 -50c0 -24.667 9.16699 -45.834 27.5 -63.501s41.666 -33.167 69.999 -46.5s57.833 -26.333 88.5 -39c93.333 -38 172.833 -76.333 238.5 -115s118.834 -79.5 159.501 -122.5
s70.5 -89.667 89.5 -140s28.5 -105.833 28.5 -166.5c0 -90 -18.667 -170.667 -56 -242s-90.333 -130.166 -159 -176.499s-150.334 -77.5 -245.001 -93.5v-260h-250z" />
    <glyph glyph-name="percent" unicode="%" horiz-adv-x="1953" 
d="M489 892c-86 0 -163.333 16.667 -232 50s-123.167 79.666 -163.5 138.999s-60.5 127.666 -60.5 204.999s20.167 145.666 60.5 204.999s94.833 105.666 163.5 138.999s146 50 232 50s163.5 -16.667 232.5 -50s123.5 -79.666 163.5 -138.999s60 -127.666 60 -204.999
s-20 -145.666 -60 -204.999s-94.5 -105.666 -163.5 -138.999s-146.5 -50 -232.5 -50zM363 0l960 1650h274l-960 -1650h-274zM489 1136c27.333 0 52.666 6.33301 75.999 19s42.166 30.334 56.499 53.001s21.5 48.667 21.5 78s-7.16699 55.333 -21.5 78
s-33.166 40.334 -56.499 53.001s-48.666 19 -75.999 19s-52.666 -6.33301 -75.999 -19s-42.166 -30.334 -56.499 -53.001s-21.5 -48.667 -21.5 -78s7.16699 -55.333 21.5 -78s33.166 -40.334 56.499 -53.001s48.666 -19 75.999 -19zM1463 -30c-86 0 -163.333 16.667 -232 50
s-123.167 79.666 -163.5 138.999s-60.5 127.666 -60.5 204.999s20.167 145.666 60.5 204.999s94.833 105.666 163.5 138.999s146 50 232 50s163.5 -16.667 232.5 -50s123.5 -79.666 163.5 -138.999s60 -127.666 60 -204.999s-20 -145.666 -60 -204.999
s-94.5 -105.666 -163.5 -138.999s-146.5 -50 -232.5 -50zM1463 214c27.333 0 52.666 6.33301 75.999 19s42.166 30.334 56.499 53.001s21.5 48.667 21.5 78s-7.16699 55.333 -21.5 78s-33.166 40.334 -56.499 53.001s-48.666 19 -75.999 19s-52.666 -6.33301 -75.999 -19
s-42.166 -30.334 -56.499 -53.001s-21.5 -48.667 -21.5 -78s7.16699 -55.333 21.5 -78s33.166 -40.334 56.499 -53.001s48.666 -19 75.999 -19z" />
    <glyph glyph-name="ampersand" unicode="&#x26;" horiz-adv-x="1856" 
d="M621 -32c-118 0 -219.834 19.332 -305.501 57.999s-151.667 92 -198 160s-69.5 146 -69.5 234c0 101.333 33 188.833 99 262.5s167.667 136.834 305 189.501c-36.667 50.667 -66 96.5 -88 137.5s-37.833 80.167 -47.5 117.5s-14.5 75.333 -14.5 114
c0 96.667 24.5 177.667 73.5 243s114.667 114.666 197 147.999s173.166 50 272.499 50c94 0 175 -13.333 243 -40s123.833 -61.667 167.5 -105s76 -90.333 97 -141s31.5 -99.667 31.5 -147c0 -79.333 -27.5 -155.333 -82.5 -228s-134.167 -137.667 -237.5 -195l162 -162
c19.333 12.667 40 27 62 43s44.167 33 66.5 51s44 36.333 65 55s39.833 36.334 56.5 53.001l270 -268c-45.333 -44 -89.666 -85 -132.999 -123s-80.333 -68.333 -111 -91l372 -384h-556l-148 150c-76 -56.667 -159.667 -101.167 -251 -133.5s-190.666 -48.5 -297.999 -48.5z
M684.999 387.999c32.667 0 66.001 5.33105 100.001 15.998s65.667 25.334 95 44.001l-206 190c-34.667 -7.33301 -64 -25.5 -88 -54.5s-36 -60.167 -36 -93.5c0 -21.333 5.5 -39.666 16.5 -54.999s26.667 -27 47 -35s44.166 -12 71.499 -12zM846 1064
c34.667 22 63.166 43.3311 85.499 63.998s39 41.334 50 62.001s16.5 41.334 16.5 62.001c0 22 -5.5 42.333 -16.5 61s-26.167 33.5 -45.5 44.5s-42 16.5 -68 16.5c-24 0 -44.667 -5 -62 -15s-30.666 -24 -39.999 -42s-14 -39 -14 -63c0 -22 4 -44 12 -66s19 -43.333 33 -64
s30.333 -40.667 49 -60z" />
    <glyph glyph-name="quotesingle" unicode="'" horiz-adv-x="694" 
d="M225 866l-74 820h392l-74 -820h-244z" />
    <glyph glyph-name="parenleft" unicode="(" horiz-adv-x="727" 
d="M425 -520c-37.333 50 -76.168 113.001 -116.501 189.001s-77.833 162.667 -112.5 260s-62.667 203.666 -84 318.999s-32 237.333 -32 366c0 129.333 10.833 251.833 32.5 367.5s49.834 222.5 84.501 320.5s72.167 184.833 112.5 260.5s78.833 138.167 115.5 187.5
l268 -114c-30 -42 -63.5 -110.333 -100.5 -205s-68.833 -211 -95.5 -349s-40 -293.667 -40 -467c0 -156 11.5 -300.5 34.5 -433.5s52.5 -249.667 88.5 -350s73.667 -179.5 113 -237.5z" />
    <glyph glyph-name="parenright" unicode=")" horiz-adv-x="726" 
d="M302 -520l-268.002 114.001c48 71.333 89.5 160.333 124.5 267s62 224.5 81 353.5s28.5 262.167 28.5 399.5c0 138 -9.5 271.5 -28.5 400.5s-46 247 -81 354s-76.5 196.167 -124.5 267.5l268 114c110.667 -152.667 195.334 -328 254.001 -526s88 -401.333 88 -610
c0 -204 -28.667 -404.833 -86 -602.5s-142.666 -374.834 -255.999 -531.501z" />
    <glyph glyph-name="asterisk" unicode="*" horiz-adv-x="1042" 
d="M369 952l-156 106l140 212l-242 88l60 188l244 -76v250h208v-250l244 76l60 -188l-242 -88l140 -212l-156 -106l-150 194z" />
    <glyph glyph-name="plus" unicode="+" horiz-adv-x="1280" 
d="M460 316v334h-334v360h334v334h360v-334h334v-360h-334v-334h-360z" />
    <glyph glyph-name="comma" unicode="," horiz-adv-x="777" 
d="M277 -414l-120.001 98.001c21.333 18 44.333 45.333 69 82s46.834 75.667 66.501 117s32.5 77.666 38.5 108.999c-62 16.667 -110.167 46.834 -144.5 90.501s-51.5 96.167 -51.5 157.5c0 77.333 25 140 75 188s114.333 72 193 72c80.667 0 144.5 -25 191.5 -75
s70.5 -117.667 70.5 -203c0 -100.667 -33.667 -206.334 -101 -317.001s-163 -217 -287 -319z" />
    <glyph glyph-name="hyphen" unicode="-" horiz-adv-x="958" 
d="M157 400v358h644v-358h-644z" />
    <glyph glyph-name="period" unicode="." horiz-adv-x="851" 
d="M424 -32c-49.333 0 -94.166 11.833 -134.499 35.5s-72.333 55.667 -96 96s-35.5 85.166 -35.5 134.499s11.833 94.166 35.5 134.499s55.667 72.333 96 96s85.166 35.5 134.499 35.5s94.166 -11.833 134.499 -35.5s72.333 -55.667 96 -96s35.5 -85.166 35.5 -134.499
s-11.833 -94.166 -35.5 -134.499s-55.667 -72.333 -96 -96s-85.166 -35.5 -134.499 -35.5z" />
    <glyph glyph-name="slash" unicode="/" horiz-adv-x="996" 
d="M-93 -240l824 1960h358l-824 -1960h-358z" />
    <glyph glyph-name="zero" unicode="0" horiz-adv-x="1506" 
d="M753 -32c-134.667 0 -253.334 36 -356.001 108s-182.667 172.333 -240 301s-86 277.667 -86 447s28.667 318.333 86 447s137.333 229 240 301s221.334 108 356.001 108c135.333 0 254.166 -36 356.499 -108s182.166 -172.333 239.499 -301s86 -277.667 86 -447
s-28.667 -318.333 -86 -447s-137.166 -229 -239.499 -301s-221.166 -108 -356.499 -108zM753 354c46.667 0 86.167 18.333 118.5 55s57 90.167 74 160.5s25.5 155.166 25.5 254.499c0 100 -8.5 185 -25.5 255s-41.667 123.333 -74 160s-71.833 55 -118.5 55
c-46 0 -85.333 -18.333 -118 -55s-57.5 -90 -74.5 -160s-25.5 -155 -25.5 -255c0 -99.333 8.5 -184.166 25.5 -254.499s41.833 -123.833 74.5 -160.5s72 -55 118 -55z" />
    <glyph glyph-name="one" unicode="1" horiz-adv-x="924" 
d="M296 0v1218h-306v432h746v-1650h-440z" />
    <glyph glyph-name="two" unicode="2" horiz-adv-x="1448" 
d="M25 0l-0.000976562 230.005c114 85.333 215.167 164.666 303.5 237.999s164.833 140.833 229.5 202.5s117.834 118.667 159.501 171s72.667 100.166 93 143.499s30.5 83.333 30.5 120c0 34 -8 65.333 -24 94s-38 51.667 -66 69s-60.333 26 -97 26
c-33.333 0 -64.333 -8.83301 -93 -26.5s-56.5 -46 -83.5 -85s-55.167 -90.5 -84.5 -154.5l-364 182c29.333 77.333 65 145.333 107 204s90.5 107.834 145.5 147.501s116 69.667 183 90s139.5 30.5 217.5 30.5c125.333 0 235.5 -24.167 330.5 -72.5
s169.167 -114.833 222.5 -199.5s80 -181.334 80 -290.001c0 -52.667 -6.83301 -104.834 -20.5 -156.501s-34.167 -102.334 -61.5 -152.001s-61.333 -98.5 -102 -146.5s-88.167 -95.333 -142.5 -142s-115.5 -92.334 -183.5 -137.001h540v-386h-1320z" />
    <glyph glyph-name="three" unicode="3" horiz-adv-x="1355" 
d="M635 -32c-99.333 0 -191.834 16.334 -277.501 49.001s-160.334 78.834 -224.001 138.501s-111.834 130.5 -144.501 212.5l406 204c6 -44.667 19 -84 39 -118s47 -60.833 81 -80.5s74.333 -29.5 121 -29.5c61.333 0 110.166 16.833 146.499 50.5s54.5 79.167 54.5 136.5
c0 41.333 -9 77.666 -27 108.999s-42.333 55.833 -73 73.5s-65 26.5 -103 26.5c-30 0 -56.333 -4.66699 -79 -14v284h90c28 0 54 8 78 24s43.333 36.833 58 62.5s22 52.834 22 81.501c0 28 -7.66699 53.333 -23 76s-36.166 40.667 -62.499 54s-56.5 20 -90.5 20
s-66 -7 -96 -21s-55.5 -33.833 -76.5 -59.5s-36.167 -56.167 -45.5 -91.5l-344 172c26.667 72 67.5 134.333 122.5 187s120.833 93.334 197.5 122.001s160 43 250 43c110 0 207.667 -21.167 293 -63.5s152.166 -100.666 200.499 -174.999s72.5 -159.5 72.5 -255.5
c0 -38.667 -4.16699 -74.834 -12.5 -108.501s-20.833 -65.334 -37.5 -95.001s-38 -57.834 -64 -84.501c42.667 -30.667 77.834 -64.667 105.501 -102s48.334 -78 62.001 -122s20.5 -92 20.5 -144c0 -108 -27.667 -204.333 -83 -289s-131.166 -151.334 -227.499 -200.001
s-206.166 -73 -329.499 -73z" />
    <glyph glyph-name="four" unicode="4" horiz-adv-x="1463" 
d="M796 0v292h-820v124l796 1234h436v-972h192v-386h-192v-292h-412zM580 678h216v386z" />
    <glyph glyph-name="five" unicode="5" horiz-adv-x="1315" 
d="M608 -30c-86.667 0 -169.166 13.498 -247.499 40.498s-147 67 -206 120s-102.833 118.833 -131.5 197.5l348 168c10.667 -46.667 36.5 -84.667 77.5 -114s89.833 -44 146.5 -44c42.667 0 78.5 8.33301 107.5 25s51 39.334 66 68.001s22.5 60.334 22.5 95.001
c0 51.333 -15.333 95 -46 131s-75.334 63.5 -134.001 82.5s-130 28.5 -214 28.5c-46.667 0 -91.5 -3 -134.5 -9s-83.5 -14.333 -121.5 -25l144 916h842v-386h-464l-26 -172c170 0 305.667 -38.667 407 -116c40.667 -30.667 75 -67.334 103 -110.001s49.333 -90 64 -142
s22 -107.667 22 -167c0 -117.333 -27 -220.166 -81 -308.499s-128 -156.833 -222 -205.5s-201.333 -73 -322 -73z" />
    <glyph glyph-name="six" unicode="6" horiz-adv-x="1373" 
d="M719 -32c-98.667 0 -189.499 14.832 -272.499 44.499s-154.833 71.334 -215.5 125.001s-107.667 117.334 -141 191.001s-50 154.5 -50 242.5c0 99.333 25.833 208.166 77.5 326.499s123.834 233.833 216.501 346.5l332 406h532l-468 -554
c10.667 4.66699 24.5 8.16699 41.5 10.5s36.167 3.5 57.5 3.5c75.333 0 144.166 -13.833 206.499 -41.5s116.166 -66.667 161.499 -117s80.5 -110 105.5 -179s37.5 -144.833 37.5 -227.5c0 -116 -25.833 -217.167 -77.5 -303.5s-124 -153.5 -217 -201.5
s-201.833 -72 -326.5 -72zM696.001 331.999c38.667 0 73.167 8.66406 103.5 25.9971s54.333 41 72 71s26.5 64 26.5 102c0 38.667 -8.83301 73.334 -26.5 104.001s-41.667 54.834 -72 72.501s-64.833 26.5 -103.5 26.5c-38 0 -71.833 -8.83301 -101.5 -26.5
s-53.167 -41.667 -70.5 -72s-26 -65.166 -26 -104.499c0 -38.667 8.5 -73 25.5 -103s40.5 -53.5 70.5 -70.5s64 -25.5 102 -25.5z" />
    <glyph glyph-name="seven" unicode="7" horiz-adv-x="1352" 
d="M6 0l740 1264h-680v386h1332v-126l-872 -1524h-520z" />
    <glyph glyph-name="eight" unicode="8" horiz-adv-x="1437" 
d="M718 -32c-118 0 -225.836 21.168 -323.503 63.501s-175.5 101 -233.5 176s-87 161.5 -87 259.5c0 93.333 26.333 178.333 79 255s120.334 134 203.001 172c-66.667 39.333 -118.334 90.666 -155.001 153.999s-55 129.333 -55 198c0 84.667 26.167 159.5 78.5 224.5
s121.833 116.167 208.5 153.5s181.334 56 284.001 56c64 0 129.667 -9 197 -27s129.333 -45 186 -81s102.5 -81 137.5 -135s52.5 -117 52.5 -189c0 -72.667 -19.167 -140.5 -57.5 -203.5s-89.166 -113.167 -152.499 -150.5c84.667 -38.667 152.834 -96.5 204.501 -173.5
s77.5 -161.833 77.5 -254.5c0 -97.333 -29 -183.5 -87 -258.5s-135.667 -133.667 -233 -176s-205.333 -63.5 -324 -63.5zM717.997 348.001c33.333 0 62.1689 7.33105 86.502 21.998s43 34.834 56 60.501s19.5 54.5 19.5 86.5c0 33.333 -6.83301 62.833 -20.5 88.5
s-32.667 45.834 -57 60.501s-52.5 22 -84.5 22c-30.667 0 -58.334 -7.16699 -83.001 -21.5s-44 -34.333 -58 -60s-21 -55.5 -21 -89.5c0 -32.667 6.66699 -61.667 20 -87s32.166 -45.333 56.499 -60s52.833 -22 85.5 -22zM718 1052c28.667 0 54 6.5 76 19.5
s39.5 30.667 52.5 53s19.5 47.5 19.5 75.5s-6.5 53.167 -19.5 75.5s-30.667 40 -53 53s-47.5 19.5 -75.5 19.5s-53.167 -6.5 -75.5 -19.5s-40 -30.667 -53 -53s-19.5 -47.5 -19.5 -75.5s6.5 -53.167 19.5 -75.5s30.667 -40 53 -53s47.5 -19.5 75.5 -19.5z" />
    <glyph glyph-name="nine" unicode="9" horiz-adv-x="1373" 
d="M171 0l468.001 554c-22 -9.33301 -53.333 -14 -94 -14c-63.333 0 -125.5 13.667 -186.5 41s-116.333 66.166 -166 116.499s-89.334 110.5 -119.001 180.5s-44.5 147.667 -44.5 233c0 104.667 23.833 200.167 71.5 286.5s117.667 155.333 210 207s205.833 77.5 340.5 77.5
c138 0 257.5 -27.167 358.5 -81.5s179.333 -126.666 235 -216.999s83.834 -189.5 84.501 -297.5c0.666992 -78 -5.5 -147 -18.5 -207s-32.333 -115.167 -58 -165.5s-56.834 -100 -93.501 -149l-124 -158.5l-332 -406h-532zM673.001 916c28.667 0 55 5.00293 79 15.0029
s44.833 24.167 62.5 42.5s31.5 39.833 41.5 64.5s15 51.667 15 81c0 38.667 -8.5 73 -25.5 103s-40.333 53.5 -70 70.5s-63.834 25.5 -102.501 25.5s-73.167 -8.66699 -103.5 -26s-54.333 -40.833 -72 -70.5s-26.5 -63.834 -26.5 -102.501s8.83301 -73.334 26.5 -104.001
s41.834 -54.834 72.501 -72.501s65 -26.5 103 -26.5z" />
    <glyph glyph-name="colon" unicode=":" horiz-adv-x="818" 
d="M404 638c-49.333 0 -94.166 11.833 -134.499 35.5s-72.333 55.667 -96 96s-35.5 85.166 -35.5 134.499s11.833 94.166 35.5 134.499s55.667 72.333 96 96s85.166 35.5 134.499 35.5s94.166 -11.833 134.499 -35.5s72.333 -55.667 96 -96s35.5 -85.166 35.5 -134.499
s-11.833 -94.166 -35.5 -134.499s-55.667 -72.333 -96 -96s-85.166 -35.5 -134.499 -35.5zM404 -32c-49.333 0 -94.166 11.833 -134.499 35.5s-72.333 55.667 -96 96s-35.5 85.166 -35.5 134.499s11.833 94.166 35.5 134.499s55.667 72.333 96 96s85.166 35.5 134.499 35.5
s94.166 -11.833 134.499 -35.5s72.333 -55.667 96 -96s35.5 -85.166 35.5 -134.499s-11.833 -94.166 -35.5 -134.499s-55.667 -72.333 -96 -96s-85.166 -35.5 -134.499 -35.5z" />
    <glyph glyph-name="semicolon" unicode=";" horiz-adv-x="789" 
d="M404 638c-49.333 0 -94.166 11.833 -134.499 35.5s-72.333 55.667 -96 96s-35.5 85.166 -35.5 134.499s11.833 94.166 35.5 134.499s55.667 72.333 96 96s85.166 35.5 134.499 35.5s94.166 -11.833 134.499 -35.5s72.333 -55.667 96 -96s35.5 -85.166 35.5 -134.499
s-11.833 -94.166 -35.5 -134.499s-55.667 -72.333 -96 -96s-85.166 -35.5 -134.499 -35.5zM277 -414l-120.001 98.001c21.333 18 44.333 45.333 69 82s46.834 75.667 66.501 117s32.5 77.666 38.5 108.999c-62 16.667 -110.167 46.834 -144.5 90.501
s-51.5 96.167 -51.5 157.5c0 77.333 25 140 75 188s114.333 72 193 72c80.667 0 144.5 -25 191.5 -75s70.5 -117.667 70.5 -203c0 -100.667 -33.667 -206.334 -101 -317.001s-163 -217 -287 -319z" />
    <glyph glyph-name="less" unicode="&#x3c;" horiz-adv-x="1366" 
d="M1179 270l-1092 424v276l1092 424v-330l-650 -232l650 -232v-330z" />
    <glyph glyph-name="equal" unicode="=" horiz-adv-x="1498" 
d="M235 904v360h1028v-360h-1028zM235 398v360h1028v-360h-1028z" />
    <glyph glyph-name="greater" unicode="&#x3e;" horiz-adv-x="1366" 
d="M187 270v330l650 232l-650 232v330l1092 -424v-276z" />
    <glyph glyph-name="question" unicode="?" horiz-adv-x="1138" 
d="M542 -32c-49.333 0 -94.166 11.833 -134.499 35.5s-72.333 55.667 -96 96s-35.5 85.166 -35.5 134.499s11.833 94.166 35.5 134.499s55.667 72.333 96 96s85.166 35.5 134.499 35.5s94.166 -11.833 134.499 -35.5s72.333 -55.667 96 -96s35.5 -85.166 35.5 -134.499
s-11.833 -94.166 -35.5 -134.499s-55.667 -72.333 -96 -96s-85.166 -35.5 -134.499 -35.5zM350 574l0.000976562 492.001c15.333 -4.66699 36.666 -8.83398 63.999 -12.501s56 -5.5 86 -5.5c48 0 88 5 120 15s56 24.833 72 44.5s24 43.834 24 72.501c0 27.333 -7 51 -21 71
s-35.167 35.5 -63.5 46.5s-63.5 16.5 -105.5 16.5c-49.333 0 -91.5 -8.66699 -126.5 -26s-60.167 -45.333 -75.5 -84l-340 76c21.333 81.333 58.5 151.833 111.5 211.5s117.5 106 193.5 139s159 49.5 249 49.5c110.667 0 208.667 -23.167 294 -69.5
s152.333 -107.333 201 -183s73 -157.834 73 -246.501c0 -76 -17.5 -147 -52.5 -213s-80.667 -122.167 -137 -168.5s-116.5 -78.833 -180.5 -97.5v-128h-386z" />
    <glyph glyph-name="at" unicode="@" horiz-adv-x="1929" 
d="M1007 -551c-123.333 0 -240.167 20.665 -350.5 61.998s-208 100 -293 176s-151.667 166.667 -200 272s-72.5 222 -72.5 350c0 127.333 23.833 243 71.5 347s113.5 193.833 197.5 269.5s181 133.834 291 174.501s227 61 351 61c122.667 0 236.167 -19.667 340.5 -59
s195.333 -94 273 -164s138 -152.167 181 -246.5s64.5 -196.5 64.5 -306.5c0 -88 -13 -159.5 -39 -214.5s-60.167 -97.167 -102.5 -126.5s-88.666 -49.5 -138.999 -60.5s-99.5 -16.5 -147.5 -16.5c-56.667 0 -108.667 6 -156 18s-90.666 31.333 -129.999 58
c-24 -24.667 -53.333 -46.5 -88 -65.5s-77 -28.5 -127 -28.5c-62 0 -117.333 15.333 -166 46s-87.167 72.334 -115.5 125.001s-42.5 111.667 -42.5 177c0 64 13.833 122.333 41.5 175s66.334 94.667 116.001 126s107.5 47 173.5 47c35.333 0 69.666 -4.66699 102.999 -14
s62.333 -22 87 -38v33h253v-318c0 -9.33301 1.5 -22 4.5 -38s11.833 -30.333 26.5 -43s39.334 -19 74.001 -19c19.333 0 37.333 3.66699 54 11s30.167 22.5 40.5 45.5s15.5 57.833 15.5 104.5c0 88 -18 163.333 -54 226s-83.333 114.167 -142 154.5s-122.667 70 -192 89
s-137.333 28.5 -204 28.5c-94 0 -176.833 -16.333 -248.5 -49s-131.834 -76 -180.501 -130s-85.334 -113.833 -110.001 -179.5s-37 -131.834 -37 -198.501c0 -76 15.167 -146.167 45.5 -210.5s72.166 -120.5 125.499 -168.5s115 -85.333 185 -112s144.667 -40 224 -40
s146 11.167 200 33.5s93.333 43.833 118 64.5l268 -180c-26.667 -36 -66.167 -73.167 -118.5 -111.5s-117.5 -70.666 -195.5 -96.999s-169.333 -39.5 -274 -39.5zM1012 194.998c22.667 0 42.5 4.49805 59.5 13.498s30.5 21.333 40.5 37s15 33.5 15 53.5
c0 22 -5.33301 41.167 -16 57.5s-24.5 29 -41.5 38s-35.5 13.5 -55.5 13.5c-19.333 0 -37.5 -4.66699 -54.5 -14s-30.667 -22.166 -41 -38.499s-15.5 -35.833 -15.5 -58.5c0 -20.667 4.5 -38.667 13.5 -54s21.833 -27.166 38.5 -35.499s35.667 -12.5 57 -12.5z" />
    <glyph glyph-name="A" unicode="A" horiz-adv-x="1670" 
d="M-41 0l672 1650h408l672 -1650h-474l-99 274h-606l-99 -274h-474zM682 660h306l-153 392z" />
    <glyph glyph-name="B" unicode="B" horiz-adv-x="1342" 
d="M98 0l0.00195312 1650h558c157.333 0 281.333 -34 372 -102s136 -172 136 -312c0 -164 -65.333 -282.667 -196 -356c111.333 -19.333 196.166 -63.333 254.499 -132s87.5 -158.667 87.5 -270c0 -99.333 -22.5 -184.666 -67.5 -255.999s-108.333 -126.166 -190 -164.499
s-177.834 -57.5 -288.501 -57.5h-666zM538.002 1032l10 -0.000976562c62 0 109.167 12.333 141.5 37s48.5 60.334 48.5 107.001s-15.333 81 -46 103s-78.667 33 -144 33h-10v-280zM538.002 337.997l67.998 0.000976562c82.667 0 143.334 12.5 182.001 37.5
s58 63.833 58 116.5c0 53.333 -20.167 93.666 -60.5 120.999s-100.166 41 -179.499 41h-68v-316z" />
    <glyph glyph-name="C" unicode="C" horiz-adv-x="1476" 
d="M953 -32c-124.667 0 -242.833 22.1641 -354.5 66.4971s-210.5 105.833 -296.5 184.5s-153.5 169.5 -202.5 272.5s-73.5 213.5 -73.5 331.5s24.667 228.833 74 332.5s116.833 194.834 202.5 273.501s184.167 140.167 295.5 184.5s229 66.5 353 66.5
c100 0 196.167 -13.833 288.5 -41.5s169.833 -62.5 232.5 -104.5l-186 -376c-36 27.333 -81.5 49.166 -136.5 65.499s-111.5 24.5 -169.5 24.5c-66.667 0 -128.834 -10.667 -186.501 -32s-108.334 -51.166 -152.001 -89.499s-77.834 -83.166 -102.501 -134.499
s-37 -107.333 -37 -168s12.333 -116.667 37 -168s58.834 -96.166 102.501 -134.499s94.334 -68.166 152.001 -89.499s119.834 -32 186.501 -32c58 0 114.5 8.16699 169.5 24.5s100.5 38.166 136.5 65.499l186 -376c-59.333 -40 -134.833 -74.333 -226.5 -103
s-189.167 -43 -292.5 -43z" />
    <glyph glyph-name="D" unicode="D" horiz-adv-x="1594" 
d="M196 0l-0.000976562 1650h508c117.333 0 226.333 -21 327 -63s188.834 -100.667 264.501 -176s134.667 -163.166 177 -263.499s63.5 -208.5 63.5 -324.5s-21 -224 -63 -324s-100.833 -187.333 -176.5 -262s-164 -132.834 -265 -174.501s-210.167 -62.5 -327.5 -62.5h-508
zM635.999 394l16 -0.00195312c60 0 114.833 10.5 164.5 31.5s92.667 50.667 129 89s64.5 83.833 84.5 136.5s30 110.667 30 174c0 62.667 -10 120.334 -30 173.001s-48.167 98.334 -84.5 137.001s-79.333 68.5 -129 89.5s-104.5 31.5 -164.5 31.5h-16v-862z" />
    <glyph glyph-name="E" unicode="E" horiz-adv-x="1340" 
d="M196 0v1650h976v-386h-536v-244h512v-386h-512v-248h536v-386h-976z" />
    <glyph glyph-name="F" unicode="F" horiz-adv-x="1260" 
d="M196 0v1650h988v-386h-638l90 90v-424l-90 90h594v-386h-594l90 90v-724h-440z" />
    <glyph glyph-name="G" unicode="G" horiz-adv-x="1697" 
d="M869 -32c-112.667 0 -217.667 21.4971 -315 64.4971s-182.666 103.167 -255.999 180.5s-130.5 168.166 -171.5 272.499s-61.5 217.833 -61.5 340.5c0 119.333 20 230.833 60 334.5s97 194.334 171 272.001s162.333 138.334 265 182.001s216.667 65.5 342 65.5
c63.333 0 130.5 -6.16699 201.5 -18.5s141.333 -31.5 211 -57.5s133.834 -59.333 192.501 -100l-202 -342c-54.667 41.333 -119 72.5 -193 93.5s-141.333 31.5 -202 31.5s-114 -10.167 -160 -30.5s-84.667 -49.666 -116 -87.999s-54.833 -84.666 -70.5 -138.999
s-23.5 -115.5 -23.5 -183.5c0 -74.667 9 -141.167 27 -199.5s42.833 -107.833 74.5 -148.5s69 -71.5 112 -92.5s89.5 -31.5 139.5 -31.5c40 0 77.5 6.33301 112.5 19s65.667 30.167 92 52.5s47 47.833 62 76.5s22.5 58.667 22.5 90v2h-314v338h762v-320
c0 -89.333 -20.167 -174 -60.5 -254s-95.833 -150.833 -166.5 -212.5s-151.834 -110 -243.501 -145s-188.834 -52.5 -291.501 -52.5z" />
    <glyph glyph-name="H" unicode="H" horiz-adv-x="1696" 
d="M196 0v1650h440v-630h424v630h440v-1650h-440v634h-424v-634h-440z" />
    <glyph glyph-name="I" unicode="I" horiz-adv-x="832" 
d="M196 0v1650h440v-1650h-440z" />
    <glyph glyph-name="J" unicode="J" horiz-adv-x="1045" 
d="M375 -32c-157.333 0 -292.999 52.667 -406.999 158l140 364c77.333 -66.667 140.666 -100 189.999 -100c39.333 0 70.833 16.667 94.5 50s35.5 78 35.5 134v1076h440v-1186c0 -158 -43.833 -280.167 -131.5 -366.5s-208.167 -129.5 -361.5 -129.5z" />
    <glyph glyph-name="K" unicode="K" horiz-adv-x="1740" 
d="M196 0v1650h440v-642l514 642h534l-640 -778l750 -872h-606l-552 662v-662h-440z" />
    <glyph glyph-name="L" unicode="L" horiz-adv-x="1157" 
d="M196 0v1650h440v-1264h532v-386h-972z" />
    <glyph glyph-name="M" unicode="M" horiz-adv-x="2122" 
d="M131 0l130 1650h468l332 -856l332 856h468l130 -1650h-440l-48 866l-312 -866h-260l-312 866l-48 -866h-440z" />
    <glyph glyph-name="N" unicode="N" horiz-adv-x="1864" 
d="M196 0v1650h440l592 -920v920h440v-1650h-440l-592 920v-920h-440z" />
    <glyph glyph-name="O" unicode="O" horiz-adv-x="1788" 
d="M894 -32c-115.333 0 -223.333 22 -324 66s-189 105.167 -265 183.5s-135.5 169.333 -178.5 273s-64.5 214.834 -64.5 333.501s21.5 229.834 64.5 333.501s102.5 194.667 178.5 273s164.333 139.5 265 183.5s208.667 66 324 66s223.333 -22 324 -66
s189 -105.167 265 -183.5s135.5 -169.333 178.5 -273s64.5 -214.834 64.5 -333.501s-21.5 -229.834 -64.5 -333.501s-102.5 -194.667 -178.5 -273s-164.333 -139.5 -265 -183.5s-208.667 -66 -324 -66zM894 392c54 0 103 10.167 147 30.5s81.667 49.5 113 87.5
s55.5 83.5 72.5 136.5s25.5 112.167 25.5 177.5s-8.5 124.5 -25.5 177.5s-41.167 98.5 -72.5 136.5s-69 67.167 -113 87.5s-93 30.5 -147 30.5s-103 -10.167 -147 -30.5s-81.667 -49.5 -113 -87.5s-55.5 -83.5 -72.5 -136.5s-25.5 -112.167 -25.5 -177.5
s8.5 -124.5 25.5 -177.5s41.167 -98.5 72.5 -136.5s69 -67.167 113 -87.5s93 -30.5 147 -30.5z" />
    <glyph glyph-name="P" unicode="P" horiz-adv-x="1448" 
d="M196 0v1650h652c106.667 0 203.334 -18.667 290.001 -56s155.667 -94.333 207 -171s77 -174.334 77 -293.001c0 -118 -25.667 -217.167 -77 -297.5s-120.333 -141.166 -207 -182.499s-183.334 -62 -290.001 -62h-212v-588h-440zM636 936l68 -0.000976562
c39.333 0 78.5 4.33301 117.5 13s71.5 25.834 97.5 51.501s39 64.167 39 115.5c0 52 -13 91.167 -39 117.5s-58.5 44 -97.5 53s-78.167 13.5 -117.5 13.5h-68v-364z" />
    <glyph glyph-name="Q" unicode="Q" horiz-adv-x="1871" 
d="M1636 -54c-51.333 19.333 -102.168 41.5 -152.501 66.5s-100.166 52.833 -149.499 83.5c-133.333 -85.333 -280 -128 -440 -128c-115.333 0 -223.333 22 -324 66s-189 105.167 -265 183.5s-135.5 169.333 -178.5 273s-64.5 214.834 -64.5 333.501
s21.5 229.834 64.5 333.501s102.5 194.667 178.5 273s164.333 139.5 265 183.5s208.667 66 324 66s223.333 -22 324 -66s189 -105.167 265 -183.5s135.5 -169.333 178.5 -273s64.5 -214.834 64.5 -333.501c0 -74.667 -8.83301 -147.334 -26.5 -218.001
s-44.167 -138 -79.5 -202c35.333 -12.667 70.5 -24.5 105.5 -35.5s69.833 -21.167 104.5 -30.5zM893.998 392c10 0 20.3311 0.5 30.998 1.5s20.334 1.83301 29.001 2.5c-35.333 34.667 -68.666 70.167 -99.999 106.5s-60 73.5 -86 111.5l186 234
c80.667 -87.333 168 -163.333 262 -228c12 31.333 21 64.333 27 99s9 69.667 9 105c0 65.333 -8.5 124.5 -25.5 177.5s-41.167 98.5 -72.5 136.5s-69 67.167 -113 87.5s-93 30.5 -147 30.5s-103 -10.167 -147 -30.5s-81.667 -49.5 -113 -87.5s-55.5 -83.5 -72.5 -136.5
s-25.5 -112.167 -25.5 -177.5s8.5 -124.5 25.5 -177.5s41.167 -98.5 72.5 -136.5s69 -67.167 113 -87.5s93 -30.5 147 -30.5z" />
    <glyph glyph-name="R" unicode="R" horiz-adv-x="1584" 
d="M196 0v1650h652c116 0 217 -20.5 303 -61.5s152.667 -100.333 200 -178s71 -171.834 71 -282.501c0 -78.667 -12.333 -150.5 -37 -215.5s-60.5 -121.667 -107.5 -170s-104.833 -87.166 -173.5 -116.499l534 -626h-558l-443 572h-1v-572h-440zM636 936h68
c56 0 102.833 6.66699 140.5 20s66 33.5 85 60.5s28.5 60.167 28.5 99.5c0 60.667 -21.5 106.5 -64.5 137.5s-106.167 46.5 -189.5 46.5h-68v-364z" />
    <glyph glyph-name="S" unicode="S" horiz-adv-x="1361" 
d="M637 -32c-70.667 0 -138.333 5.49902 -203 16.499s-124.5 25.833 -179.5 44.5s-104.167 39.167 -147.5 61.5s-79 44.833 -107 67.5l218 374c29.333 -20 61.5 -39.333 96.5 -58s71.5 -35.334 109.5 -50.001s76.167 -26.334 114.5 -35.001s75.5 -13 111.5 -13
c33.333 0 61.333 4 84 12s40 20.5 52 37.5s18 38.167 18 63.5s-6.16699 47.5 -18.5 66.5s-31.833 37.5 -58.5 55.5s-61.667 37.667 -105 59l-158 76c-47.333 22.667 -90.166 48.5 -128.499 77.5s-71 61.167 -98 96.5s-47.667 73.666 -62 114.999s-21.5 85.333 -21.5 132
c0 65.333 13.667 128.5 41 189.5s66.333 115.833 117 164.5s111.5 87.334 182.5 116.001s150.167 43 237.5 43c56 0 115.5 -6 178.5 -18s124.167 -28.667 183.5 -50s111.333 -46 156 -74l-174 -354c-34.667 20 -71.334 37.167 -110.001 51.5s-77 25.333 -115 33
s-74 11.5 -108 11.5c-32.667 0 -60.667 -3.83301 -84 -11.5s-41.333 -19 -54 -34s-19 -33.833 -19 -56.5c0 -14.667 3.16699 -27.5 9.5 -38.5s16.666 -21.167 30.999 -30.5s33.5 -19.333 57.5 -30l88 -39c86 -38 161.333 -74.667 226 -110s118.5 -73.166 161.5 -113.499
s75.167 -86.166 96.5 -137.499s32 -111.666 32 -180.999c0 -110.667 -26.5 -205.667 -79.5 -285s-128.167 -140 -225.5 -182s-212.666 -63 -345.999 -63z" />
    <glyph glyph-name="T" unicode="T" horiz-adv-x="1138" 
d="M349 0v1264h-360v386h1160v-386h-360v-1264h-440z" />
    <glyph glyph-name="U" unicode="U" horiz-adv-x="1663" 
d="M832 -32c-219.333 0 -385.333 51.833 -498 155.5s-169 256.5 -169 458.5v1068h440v-936c0 -118.667 16.333 -200.667 49 -246s91.667 -68 177 -68s144.333 22.667 177 68s49 127.333 49 246v936h440v-1068c0 -202 -56.167 -354.833 -168.5 -458.5
s-277.833 -155.5 -496.5 -155.5z" />
    <glyph glyph-name="V" unicode="V" horiz-adv-x="1642" 
d="M649 0l-692 1650h496l368 -988l368 988h496l-692 -1650h-344z" />
    <glyph glyph-name="W" unicode="W" horiz-adv-x="2300" 
d="M456 0l-466 1650h490l244 -1040l262 1040h328l262 -1040l244 1040h490l-466 -1650h-488l-206 804l-206 -804h-488z" />
    <glyph glyph-name="X" unicode="X" horiz-adv-x="1680" 
d="M-52 0l622 888l-518 762h524l264 -398l264 398h524l-518 -762l622 -888h-544l-348 506l-348 -506h-544z" />
    <glyph glyph-name="Y" unicode="Y" horiz-adv-x="1540" 
d="M550 0v748l-620 902h530l310 -458l310 458h530l-620 -902v-748h-440z" />
    <glyph glyph-name="Z" unicode="Z" horiz-adv-x="1516" 
d="M-8 0l742 1266h-624v384h1390l-742 -1266h690v-384h-1456z" />
    <glyph glyph-name="bracketleft" unicode="[" horiz-adv-x="893" 
d="M188 -520v2240h708v-270h-352v-1700h352v-270h-708z" />
    <glyph glyph-name="backslash" unicode="\" horiz-adv-x="996" 
d="M731 0l-824 1720h358l824 -1720h-358z" />
    <glyph glyph-name="bracketright" unicode="]" horiz-adv-x="893" 
d="M-3 -520v270h352v1700h-352v270h708v-2240h-708z" />
    <glyph glyph-name="asciicircum" unicode="^" horiz-adv-x="1128" 
d="M42 1210l414 472h216l414 -472h-376l-146 174l-146 -174h-376z" />
    <glyph glyph-name="underscore" unicode="_" horiz-adv-x="1340" 
d="M157 -202v196h1026v-196h-1026z" />
    <glyph glyph-name="grave" unicode="`" horiz-adv-x="652" 
d="M436 1075l-436 418l268 205l335 -483z" />
    <glyph glyph-name="a" unicode="a" 
d="M579 -32c-93.333 0 -178.332 23.501 -254.999 70.501s-137.667 111.667 -183 194s-68 176.166 -68 281.499c0 102 21.5 193.833 64.5 275.5s102.5 146.5 178.5 194.5s163.667 72 263 72c58.667 0 115.167 -8.5 169.5 -25.5s101.833 -41.167 142.5 -72.5v66h416v-1024
h-416v80c-48.667 -37.333 -98.834 -65.333 -150.501 -84s-105.5 -28 -161.5 -28zM707.001 320.001c37.333 0 70.502 8.33203 99.502 24.999s51.667 39.5 68 68.5s24.5 61.833 24.5 98.5c0 37.333 -8.33301 70.333 -25 99s-39.334 51.334 -68.001 68.001s-61.667 25 -99 25
c-36.667 0 -69.667 -8.33301 -99 -25s-52.5 -39.5 -69.5 -68.5s-25.5 -61.833 -25.5 -98.5s8.33301 -69.5 25 -98.5s39.667 -51.833 69 -68.5s62.666 -25 99.999 -25z" />
    <glyph glyph-name="b" unicode="b" horiz-adv-x="1465" 
d="M890 -32c-57.333 0 -112.833 9.66699 -166.5 29s-103.834 47 -150.501 83v-80h-416v1720h416v-762c40 31.333 86.333 55.5 139 72.5s108.334 25.5 167.001 25.5c99.333 0 187.5 -23.833 264.5 -71.5s137.5 -112.5 181.5 -194.5s66 -174.667 66 -278
c0 -106.667 -22.833 -201 -68.5 -283s-106.5 -146 -182.5 -192s-159.333 -69 -250 -69zM760 320c38 0 71.334 8.16895 100.001 24.502s51 38.833 67 67.5s24 61 24 97c0 37.333 -8.5 70.666 -25.5 99.999s-39.833 52.5 -68.5 69.5s-61.334 25.5 -98.001 25.5
s-69.667 -8.5 -99 -25.5s-52.5 -40 -69.5 -69s-25.5 -62.167 -25.5 -99.5c0 -36 8.33301 -68.333 25 -97s39.667 -51.334 69 -68.001s63 -25 101 -25z" />
    <glyph glyph-name="c" unicode="c" horiz-adv-x="1010" 
d="M639 -32c-78.667 0 -153.164 14.167 -223.497 42.5s-132.5 67.5 -186.5 117.5s-96.5 107.833 -127.5 173.5s-46.5 135.5 -46.5 209.5c0 69.333 14.5 136.5 43.5 201.5s69.667 123.333 122 175s114 92.667 185 123s148.167 45.5 231.5 45.5
c65.333 0 128.666 -9 189.999 -27s108.666 -39.667 141.999 -65l-136 -280c-33.333 22.667 -76 34 -128 34c-49.333 0 -89.5 -11 -120.5 -33s-53.667 -49 -68 -81s-21.5 -62.667 -21.5 -92c0 -36.667 8.5 -70.667 25.5 -102s41.5 -56.5 73.5 -75.5s69.667 -28.5 113 -28.5
c26.667 0 51.167 3.5 73.5 10.5s39.833 14.833 52.5 23.5l136 -280c-34.667 -24.667 -81.834 -46.167 -141.501 -64.5s-122.5 -27.5 -188.5 -27.5z" />
    <glyph glyph-name="d" unicode="d" 
d="M574 -32c-90.667 0 -174 23 -250 69s-136.833 110 -182.5 192s-68.5 176.333 -68.5 283c0 103.333 22 196 66 278s104.5 146.833 181.5 194.5s165.167 71.5 264.5 71.5c58.667 0 114.334 -8.5 167.001 -25.5s99 -41.167 139 -72.5v762h416v-1720h-416v80
c-46.667 -36 -96.834 -63.667 -150.501 -83s-109.167 -29 -166.5 -29zM704 320c38 0 71.667 8.33105 101 24.998s52.333 39.334 69 68.001s25 61 25 97c0 37.333 -8.5 70.5 -25.5 99.5s-40 52 -69 69s-61.833 25.5 -98.5 25.5s-69.5 -8.5 -98.5 -25.5s-52 -40.167 -69 -69.5
s-25.5 -62.666 -25.5 -99.999c0 -36 8 -68.333 24 -97s38.5 -51.167 67.5 -67.5s62.167 -24.5 99.5 -24.5z" />
    <glyph glyph-name="e" unicode="e" horiz-adv-x="1264" 
d="M658 -32c-113.333 0 -215.166 24.0039 -305.499 72.0039s-161.833 113.167 -214.5 195.5s-79 175.166 -79 278.499c0 76.667 15 147.834 45 213.501s71.667 123.167 125 172.5s115.833 87.666 187.5 114.999s149.5 41 233.5 41c106.667 0 200.167 -22.167 280.5 -66.5
s143.166 -106 188.499 -185s68 -170.833 68 -275.5c0 -8.66699 -0.166992 -16.834 -0.5 -24.501s-1.5 -24.5 -3.5 -50.5h-694c0 -32.667 7.66699 -60.834 23 -84.501s37.5 -41.834 66.5 -54.501s63.5 -19 103.5 -19c37.333 0 69.5 6.66699 96.5 20s58.5 37.333 94.5 72
l298 -148c-48 -84.667 -117.5 -151.167 -208.5 -199.5s-192.5 -72.5 -304.5 -72.5zM501 650.004l280 -0.000976562c-4 27.333 -12 49.833 -24 67.5s-27.667 30.834 -47 39.501s-43 13 -71 13c-29.333 0 -54.166 -4.66699 -74.499 -14s-35.833 -22.833 -46.5 -40.5
s-16.334 -39.5 -17.001 -65.5z" />
    <glyph glyph-name="f" unicode="f" horiz-adv-x="887" 
d="M218 0l0.000976562 708h-160v316h160v178c0 109.333 17.833 205.166 53.5 287.499s86.334 146.333 152.001 192s143.834 68.5 234.501 68.5c57.333 0 114.666 -9.16699 171.999 -27.5s106 -43.166 146 -74.499l-144 -290c-32 16 -65.333 24 -100 24
c-32.667 0 -55.834 -8.5 -69.501 -25.5s-21.834 -40.167 -24.501 -69.5s-4 -62.333 -4 -99v-164h228v-316h-228v-708h-416z" />
    <glyph glyph-name="g" unicode="g" 
d="M679 -550c-144 0 -264.499 25.167 -361.499 75.5s-166.5 124.5 -208.5 222.5l336 166c25.333 -32 59.166 -57.333 101.499 -76s85.833 -28 130.5 -28c44 0 82 9 114 27s56.667 42 74 72s26 63 26 99v72c-46.667 -36 -96.834 -63.667 -150.501 -83
s-109.167 -29 -166.5 -29c-90.667 0 -174 23 -250 69s-136.833 110 -182.5 192s-68.5 176.333 -68.5 283c0 103.333 22 196 66 278s104.5 146.833 181.5 194.5s165.167 71.5 264.5 71.5c58.667 0 114.334 -8.5 167.001 -25.5s99 -41.167 139 -72.5v66h416v-1052
c0 -92 -21.333 -177.667 -64 -257s-110.167 -143.333 -202.5 -192s-212.833 -73 -361.5 -73zM704.001 320c38 0 71.667 8.33105 101 24.998s52.333 39.334 69 68.001s25 61 25 97c0 37.333 -8.5 70.5 -25.5 99.5s-40 52 -69 69s-61.833 25.5 -98.5 25.5
s-69.5 -8.5 -98.5 -25.5s-52 -40.167 -69 -69.5s-25.5 -62.666 -25.5 -99.999c0 -36 8 -68.333 24 -97s38.5 -51.167 67.5 -67.5s62.167 -24.5 99.5 -24.5z" />
    <glyph glyph-name="h" unicode="h" horiz-adv-x="1461" 
d="M157 0v1720h416v-792c47.333 40.667 100.833 72.167 160.5 94.5s120.167 33.5 181.5 33.5c78 0 147.833 -17.667 209.5 -53s110.5 -83.166 146.5 -143.499s54 -128.833 54 -205.5v-654h-416v564c0 51.333 -15.333 92.5 -46 123.5s-71.334 46.5 -122.001 46.5
c-33.333 0 -62.666 -7 -87.999 -21s-45 -33.667 -59 -59s-21 -55.333 -21 -90v-564h-416z" />
    <glyph glyph-name="i" unicode="i" horiz-adv-x="730" 
d="M157 0v1024h416v-1024h-416zM365 1243c-44 0 -84.333 10.833 -121 32.5s-65.834 50.834 -87.501 87.501s-32.5 77 -32.5 121s10.833 84.167 32.5 120.5s50.834 65.333 87.501 87s77 32.5 121 32.5s84.167 -10.833 120.5 -32.5s65.333 -50.667 87 -87
s32.5 -76.5 32.5 -120.5s-10.833 -84.333 -32.5 -121s-50.667 -65.834 -87 -87.501s-76.5 -32.5 -120.5 -32.5z" />
    <glyph glyph-name="j" unicode="j" horiz-adv-x="730" 
d="M168 -550c-50 0 -104.001 6.16699 -162.001 18.5s-104.333 28.833 -139 49.5l128 334c32.667 -18.667 61 -28 85 -28c51.333 0 77 40 77 120v1080h416v-1162c0 -124 -36.167 -223.667 -108.5 -299s-171.166 -113 -296.499 -113zM364.999 1243
c-44 0 -84.333 10.833 -121 32.5s-65.834 50.834 -87.501 87.501s-32.5 77 -32.5 121s10.833 84.167 32.5 120.5s50.834 65.333 87.501 87s77 32.5 121 32.5s84.167 -10.833 120.5 -32.5s65.333 -50.667 87 -87s32.5 -76.5 32.5 -120.5s-10.833 -84.333 -32.5 -121
s-50.667 -65.834 -87 -87.501s-76.5 -32.5 -120.5 -32.5z" />
    <glyph glyph-name="k" unicode="k" horiz-adv-x="1426" 
d="M157 0v1720h416v-1040l358 344h538l-524 -516l546 -508h-534l-384 350v-350h-416z" />
    <glyph glyph-name="l" unicode="l" horiz-adv-x="730" 
d="M157 0v1720h416v-1720h-416z" />
    <glyph glyph-name="m" unicode="m" horiz-adv-x="2098" 
d="M157 0v1024h416v-96c58 46.667 109.667 79.667 155 99s93.333 29 144 29c74.667 0 144 -16.5 208 -49.5s111 -76.5 141 -130.5c56.667 63.333 112.5 109.166 167.5 137.499s115.833 42.5 182.5 42.5c74.667 0 141 -15.667 199 -47s103.667 -75 137 -131
s50 -120.667 50 -194v-684h-416v572c0 48 -12.333 85.667 -37 113s-58.667 41 -102 41c-28.667 0 -53.167 -5.5 -73.5 -16.5s-36 -26.833 -47 -47.5s-16.5 -45.334 -16.5 -74.001v-588h-416v572c0 46 -11.833 83.167 -35.5 111.5s-58.167 42.5 -103.5 42.5
c-28.667 0 -53.167 -6 -73.5 -18s-36 -29.333 -47 -52s-16.5 -50 -16.5 -82v-574h-416z" />
    <glyph glyph-name="n" unicode="n" horiz-adv-x="1461" 
d="M157 0v1024h416v-96c47.333 40.667 100.833 72.167 160.5 94.5s120.167 33.5 181.5 33.5c78 0 147.833 -17.667 209.5 -53s110.5 -83.166 146.5 -143.499s54 -128.833 54 -205.5v-654h-416v564c0 51.333 -15.333 92.5 -46 123.5s-71.334 46.5 -122.001 46.5
c-33.333 0 -62.666 -7 -87.999 -21s-45 -33.667 -59 -59s-21 -55.333 -21 -90v-564h-416z" />
    <glyph glyph-name="o" unicode="o" horiz-adv-x="1366" 
d="M683 -32c-117.333 0 -223.166 23.167 -317.499 69.5s-169 110.333 -224 192s-82.5 175.834 -82.5 282.501s27.5 200.834 82.5 282.501s129.667 145.667 224 192s200.166 69.5 317.499 69.5s223.166 -23.167 317.499 -69.5s169 -110.333 224 -192
s82.5 -175.834 82.5 -282.501s-27.5 -200.834 -82.5 -282.501s-129.667 -145.667 -224 -192s-200.166 -69.5 -317.499 -69.5zM683 320c34 0 65.333 8.16699 94 24.5s51.5 38.833 68.5 67.5s25.5 62 25.5 100s-8.5 71.5 -25.5 100.5s-39.833 51.5 -68.5 67.5s-60 24 -94 24
s-65.333 -8 -94 -24s-51.5 -38.5 -68.5 -67.5s-25.5 -62.5 -25.5 -100.5s8.5 -71.333 25.5 -100s39.833 -51.167 68.5 -67.5s60 -24.5 94 -24.5z" />
    <glyph glyph-name="p" unicode="p" horiz-adv-x="1465" 
d="M157 -520l0.00195312 1544h416v-66c41.333 31.333 88.333 55.5 141 72.5s108 25.5 166 25.5c98 0 185.5 -23.667 262.5 -71s137.667 -112 182 -194s66.5 -175 66.5 -279c0 -102.667 -22 -195 -66 -277s-103.833 -147 -179.5 -195s-160.834 -72 -255.501 -72
c-56.667 0 -111.834 9.5 -165.501 28.5s-104.167 46.833 -151.5 83.5v-600h-416zM760.002 320c37.333 0 70.333 8.16602 99 24.499s51.167 38.833 67.5 67.5s24.5 61.334 24.5 98.001c0 37.333 -8.5 70.5 -25.5 99.5s-39.833 52 -68.5 69s-61.334 25.5 -98.001 25.5
s-69.667 -8.5 -99 -25.5s-52.5 -40 -69.5 -69s-25.5 -61.833 -25.5 -98.5s8.33301 -69.5 25 -98.5s39.834 -51.667 69.501 -68s63.167 -24.5 100.5 -24.5z" />
    <glyph glyph-name="q" unicode="q" 
d="M891 -520l0.00292969 600c-47.333 -36.667 -97.833 -64.5 -151.5 -83.5s-108.834 -28.5 -165.501 -28.5c-94.667 0 -179.834 24 -255.501 72s-135.5 113 -179.5 195s-66 174.333 -66 277c0 104 22.167 197 66.5 279s105.166 146.667 182.499 194s165 71 263 71
c58 0 113 -8.33301 165 -25s99 -41 141 -73v66h416v-1544h-416zM705.003 320c37.333 0 70.667 8.16797 100 24.501s52.333 39 69 68s25 61.833 25 98.5s-8.5 69.5 -25.5 98.5s-40 52 -69 69s-61.833 25.5 -98.5 25.5s-69.5 -8.5 -98.5 -25.5s-52 -39.833 -69 -68.5
s-25.5 -61.334 -25.5 -98.001c0 -37.333 8.16699 -70.5 24.5 -99.5s39 -51.667 68 -68s62.167 -24.5 99.5 -24.5z" />
    <glyph glyph-name="r" unicode="r" horiz-adv-x="1078" 
d="M157 0l0.000976562 1024h416v-144c42.667 55.333 92.5 98.5 149.5 129.5s115.833 46.5 176.5 46.5c39.333 0 81 -6.66699 125 -20s80.333 -30.666 109 -51.999l-174 -350c-24.667 18.667 -53.834 33.667 -87.501 45s-64.5 17 -92.5 17
c-35.333 0 -68.833 -9.16699 -100.5 -27.5s-57.167 -42.166 -76.5 -71.499s-29 -61 -29 -95v-502h-416z" />
    <glyph glyph-name="s" unicode="s" horiz-adv-x="1046" 
d="M464 -32c-88 0 -167.497 9.16309 -238.497 27.4961s-132.167 45.833 -183.5 82.5l164 288c49.333 -30.667 95.833 -54 139.5 -70s83.5 -24 119.5 -24c14.667 0 26.167 1.33301 34.5 4s14.5 6.83398 18.5 12.501s6 13.167 6 22.5c0 16.667 -5.83301 29.834 -17.5 39.501
s-30.5 19.834 -56.5 30.501l-104 44c-40.667 18 -78.834 38 -114.501 60s-64.5 50 -86.5 84s-33 77.333 -33 130c0 70 20 131.667 60 185s95.667 95 167 125s153.666 45 246.999 45c47.333 0 100.5 -4.66699 159.5 -14s127.833 -24.666 206.5 -45.999l-130 -274
c-102 38.667 -179.333 58 -232 58c-26 0 -46.167 -4 -60.5 -12s-21.5 -17.667 -21.5 -29c0 -16 12.5 -31.333 37.5 -46s54.167 -28 87.5 -40l87 -31c45.333 -15.333 86.166 -34.333 122.499 -57s65.333 -52.667 87 -90s32.5 -86.333 32.5 -147
c0 -78 -19.167 -143.5 -57.5 -196.5s-94.5 -93.167 -168.5 -120.5s-164.667 -41 -272 -41z" />
    <glyph glyph-name="t" unicode="t" horiz-adv-x="940" 
d="M577 -32c-118.667 0 -211.168 37 -277.501 111s-99.5 177 -99.5 309v320h-160v316h160v384h416v-384h204v-316h-204v-288c0 -26.667 5.5 -46.667 16.5 -60s27.167 -20 48.5 -20c26.667 0 54.334 10.667 83.001 32l104 -334c-42.667 -22 -89.667 -39.167 -141 -51.5
s-101.333 -18.5 -150 -18.5z" />
    <glyph glyph-name="u" unicode="u" horiz-adv-x="1441" 
d="M720 -32c-208.667 0 -359.499 38.333 -452.499 115s-139.5 200.334 -139.5 371.001v570h416v-466c0 -94 13.167 -159.833 39.5 -197.5s72.166 -56.5 137.499 -56.5c64.667 0 110 18.833 136 56.5s39 103.5 39 197.5v466h416v-570
c0 -170.667 -46.5 -294.334 -139.5 -371.001s-243.833 -115 -452.5 -115z" />
    <glyph glyph-name="v" unicode="v" horiz-adv-x="1280" 
d="M500 0l-566 1024h492l214 -484l214 484h492l-566 -1024h-280z" />
    <glyph glyph-name="w" unicode="w" horiz-adv-x="1984" 
d="M500 0l-566 1024h476l216 -480l224 480h284l224 -480l216 480h476l-566 -1024h-280l-212 452l-212 -452h-280z" />
    <glyph glyph-name="x" unicode="x" horiz-adv-x="1266" 
d="M-57 0l440 540l-376 484h484l142 -194l142 194h484l-376 -484l440 -540h-500l-190 248l-190 -248h-500z" />
    <glyph glyph-name="y" unicode="y" horiz-adv-x="1281" 
d="M31 -520l384 718l-486 826h478l252 -432l208 432h478l-836 -1544h-478z" />
    <glyph glyph-name="z" unicode="z" horiz-adv-x="1180" 
d="M16 0l436 712h-350v312h1038l-436 -712h392v-312h-1080z" />
    <glyph glyph-name="braceleft" unicode="{" horiz-adv-x="798" 
d="M515 -520c-64 0 -116.667 10.8291 -158 32.4961s-73.666 50.334 -96.999 86.001s-39.666 74.834 -48.999 117.501s-14 84.667 -14 126v512c0 49.333 -14.167 84.666 -42.5 105.999s-66.166 32 -113.499 32v216c47.333 0 85.166 10.833 113.499 32.5
s42.5 56.834 42.5 105.501v512c0 41.333 4.66699 83.333 14 126s25.666 81.834 48.999 117.501s55.666 64.334 96.999 86.001s94 32.5 158 32.5h226v-296h-90c-24 0 -46.333 -10 -67 -30s-31 -44 -31 -72v-480c0 -64.667 -13.833 -116.167 -41.5 -154.5
s-61.167 -67.5 -100.5 -87.5c39.333 -20 72.833 -49.5 100.5 -88.5s41.5 -90.167 41.5 -153.5v-480c0 -28 10.333 -52 31 -72s43 -30 67 -30h90v-296h-226z" />
    <glyph glyph-name="bar" unicode="|" horiz-adv-x="826" 
d="M235 0v1720h356v-1720h-356z" />
    <glyph glyph-name="braceright" unicode="}" horiz-adv-x="798" 
d="M57 -520v296.004h90c24 0 46.333 10 67 30s31 44 31 72v480c0 63.333 14 114.5 42 153.5s61.333 68.5 100 88.5c-38.667 20 -72 49.167 -100 87.5s-42 89.833 -42 154.5v480c0 28 -10.333 52 -31 72s-43 30 -67 30h-90v296h226c64 0 116.667 -10.833 158 -32.5
s73.666 -50.334 96.999 -86.001s39.666 -74.834 48.999 -117.501s14 -84.667 14 -126v-512c0 -48.667 14.333 -83.834 43 -105.501s66.334 -32.5 113.001 -32.5v-216c-46.667 0 -84.334 -10.667 -113.001 -32s-43 -56.666 -43 -105.999v-512
c0 -41.333 -4.66699 -83.333 -14 -126s-25.666 -81.834 -48.999 -117.501s-55.666 -64.334 -96.999 -86.001s-94 -32.5 -158 -32.5h-226z" />
    <glyph glyph-name="asciitilde" unicode="~" horiz-adv-x="1449" 
d="M932 576c-40.667 0 -81.835 8.83398 -123.502 26.501s-82 37.834 -121 60.501l-108.5 60.5c-33.333 17.667 -62.666 26.5 -87.999 26.5c-28.667 0 -57.167 -14 -85.5 -42s-50.166 -66 -65.499 -114l-214 190c24 52.667 57.167 101.167 99.5 145.5
s88.833 80.166 139.5 107.499s100 41 148 41c40.667 0 81.667 -8.83301 123 -26.5s81.5 -37.834 120.5 -60.501l108 -60.5c33 -17.667 61.833 -26.5 86.5 -26.5c29.333 0 58 14 86 42s49.667 65.333 65 112l216 -188c-24 -50 -56.5 -97.333 -97.5 -142
s-86.5 -81.167 -136.5 -109.5s-100.667 -42.5 -152 -42.5z" />
    <glyph glyph-name="uni00A0" unicode="&#xa0;" horiz-adv-x="556" 
 />
    <glyph glyph-name="exclamdown" unicode="&#xa1;" horiz-adv-x="811" 
d="M197 -522l58 1140h300l58 -1140h-416zM403 698c-49.333 0 -94.166 11.833 -134.499 35.5s-72.333 55.667 -96 96s-35.5 85.166 -35.5 134.499s11.833 94.166 35.5 134.499s55.667 72.333 96 96s85.166 35.5 134.499 35.5s94.166 -11.833 134.499 -35.5
s72.333 -55.667 96 -96s35.5 -85.166 35.5 -134.499s-11.833 -94.166 -35.5 -134.499s-55.667 -72.333 -96 -96s-85.166 -35.5 -134.499 -35.5z" />
    <glyph glyph-name="cent" unicode="&#xa2;" horiz-adv-x="1109" 
d="M516 -258l-0.000976562 244.003c-83.333 21.333 -158 58.166 -224 110.499s-117.833 114.666 -155.5 186.999s-56.5 148.5 -56.5 228.5c0 72.667 15.5 142.167 46.5 208.5s74.5 125.5 130.5 177.5s121 92 195 120v254h250v-218c56 -3.33301 110 -13 162 -29
s95.333 -36.333 130 -61l-136 -280c-16 10 -37.167 18.167 -63.5 24.5s-52.5 9.5 -78.5 9.5c-41.333 0 -76.666 -8.33301 -105.999 -25s-51.666 -40 -66.999 -70s-23 -65.333 -23 -106c0 -42.667 8.33301 -79.834 25 -111.501s40 -56.167 70 -73.5s64.333 -26 103 -26
c24 0 49.333 3.16699 76 9.5s48 14.5 64 24.5l136 -280c-28 -19.333 -62.333 -36.333 -103 -51s-82.334 -25.667 -125.001 -33v-234h-250z" />
    <glyph glyph-name="sterling" unicode="&#xa3;" horiz-adv-x="1514" 
d="M1095 -30c-48 0 -96.166 5.17285 -144.499 15.5059s-95.333 22.166 -141 35.499s-88.5 25.166 -128.5 35.499s-75.667 15.5 -107 15.5c-18.667 0 -33.667 -2.33301 -45 -7s-19.5 -12.334 -24.5 -23.001s-7.5 -24.667 -7.5 -42h-358c-2.66699 74 8.5 140 33.5 198
s60.333 103.833 106 137.5s97.834 50.5 156.501 50.5c7.33301 9.33301 13 22.166 17 38.499s6 33.5 6 51.5c0 15.333 -2 30.833 -6 46.5s-9.66699 29.5 -17 41.5h-282v226h184c-29.333 52 -52 108.333 -68 169s-24 122.667 -24 186c0 110.667 23.5 206.167 70.5 286.5
s112.833 142.166 197.5 185.499s184 65 298 65c102 0 190.667 -16.667 266 -50s137 -77.833 185 -133.5s81.667 -117.834 101 -186.501l-356 -181c-12.667 42 -27.834 76.667 -45.501 104s-39.334 47.666 -65.001 60.999s-57.167 20 -94.5 20
c-31.333 0 -57.666 -5.16699 -78.999 -15.5s-37.333 -26.666 -48 -48.999s-16 -51.5 -16 -87.5c0 -26 3 -58 9 -96s15.667 -80.5 29 -127.5s30.666 -97.167 51.999 -150.5h318v-226h-264c4.66699 -14 8.16699 -28.833 10.5 -44.5s3.5 -31.167 3.5 -46.5
c0 -22 -2.83301 -43 -8.5 -63s-14.167 -40.667 -25.5 -62c17.333 -5.33301 37 -10.5 59 -15.5s44.667 -9.5 68 -13.5s45.5 -7.16699 66.5 -9.5s38.833 -3.5 53.5 -3.5c26 0 47 3.5 63 10.5s28.5 19 37.5 36s15.833 40.167 20.5 69.5l320 -158
c-12 -61.333 -34.833 -114 -68.5 -158s-76.5 -77.667 -128.5 -101s-111.667 -35 -179 -35z" />
    <glyph glyph-name="currency" unicode="&#xa4;" horiz-adv-x="1240" 
d="M215 54l-140 140l143 142c-22.667 37.333 -40.5 78.166 -53.5 122.499s-19.5 91.5 -19.5 141.5s6.5 97.333 19.5 142s30.833 85.334 53.5 122.001l-143 142l140 140l141 -142c37.333 24.667 78.333 43.5 123 56.5s92 19.5 142 19.5c49.333 0 96.5 -6.5 141.5 -19.5
s86.167 -31.5 123.5 -55.5l141 141l138 -140l-141 -141c23.333 -37.333 41.333 -78.333 54 -123s19 -92 19 -142s-6.33301 -97.333 -19 -142s-30.667 -85.667 -54 -123l141 -141l-138 -140l-141 141c-37.333 -24 -78.5 -42.5 -123.5 -55.5s-92.167 -19.5 -141.5 -19.5
c-50 0 -97.333 6.5 -142 19.5s-85.667 31.833 -123 56.5zM621 470c26.667 0 50 5.16699 70 15.5s35.667 25.166 47 44.499s17 42.666 17 69.999s-5.66699 50.666 -17 69.999s-27 34.166 -47 44.499s-43.333 15.5 -70 15.5s-50 -5.16699 -70 -15.5
s-35.667 -25.166 -47 -44.499s-17 -42.666 -17 -69.999s5.66699 -50.666 17 -69.999s27 -34.166 47 -44.499s43.333 -15.5 70 -15.5z" />
    <glyph glyph-name="yen" unicode="&#xa5;" horiz-adv-x="1767" 
d="M664 0v192h-434v310h434v86h-434v310h330l-516 752h530l310 -458l310 458h530l-518 -752h330v-310h-432v-86h432v-310h-432v-192h-440z" />
    <glyph glyph-name="brokenbar" unicode="&#xa6;" horiz-adv-x="826" 
d="M235 1056v664h356v-664h-356zM235 0v664h356v-664h-356z" />
    <glyph glyph-name="section" unicode="&#xa7;" horiz-adv-x="1427" 
d="M673 -550c-94 0 -173.665 11.5 -238.998 34.5s-119 53.5 -161 91.5s-74.667 79.667 -98 125s-39.666 90.333 -48.999 135l376 78c6.66699 -20 16.167 -39.167 28.5 -57.5s29.666 -33.333 51.999 -45s51.166 -17.5 86.499 -17.5c27.333 0 48.166 3.33301 62.499 10
s24 14.334 29 23.001s7.5 16.334 7.5 23.001c0 18 -12.5 35.5 -37.5 52.5s-58 35 -99 54s-85.5 40.833 -133.5 65.5c-48.667 25.333 -97 54.333 -145 87s-91.167 69.5 -129.5 110.5s-68.166 86.833 -89.499 137.5s-30 107 -26 169c5.33301 80 33.833 151.167 85.5 213.5
s127.834 114.5 228.501 156.5c-68 42 -119.667 92.333 -155 151s-53 126.334 -53 203.001c0 77.333 18.5 148.666 55.5 213.999s94 117.666 171 156.999s174.833 59 293.5 59c91.333 0 168.166 -11.5 230.499 -34.5s113 -53.333 152 -91s69 -78.834 90 -123.501
s35.5 -89 43.5 -133l-376 -76c0 26 -9 51.5 -27 76.5s-49.667 37.5 -95 37.5c-18 0 -32.833 -2.16699 -44.5 -6.5s-20.5 -10.333 -26.5 -18s-9 -16.167 -9 -25.5c0 -18.667 10 -37.334 30 -56.001s45.333 -36.667 76 -54s62.5 -33.666 95.5 -48.999
s62.5 -29.666 88.5 -42.999c50.667 -25.333 99.167 -54.166 145.5 -86.499s87.5 -68.666 123.5 -108.999s63.667 -85 83 -134s27.333 -102.5 24 -160.5c-4.66699 -80.667 -32.334 -152.334 -83.001 -215.001s-124.334 -114.334 -221.001 -155.001
c60.667 -41.333 108.5 -90.333 143.5 -147s52.5 -124.334 52.5 -203.001c0 -95.333 -25.167 -174.5 -75.5 -237.5s-117.666 -109.833 -201.999 -140.5s-177.5 -46 -279.5 -46zM768.002 381c22 6.66699 45.8301 15.8359 71.4971 27.5029s47.834 26.667 66.501 45
s28 40.166 28 65.499c0 18 -6 35.833 -18 53.5s-31.5 36.834 -58.5 57.501s-62.833 43.334 -107.5 68.001c-4.66699 3.33301 -12.667 7.66602 -24 12.999s-24 11 -38 17c-27.333 -6.66699 -54.666 -15 -81.999 -25s-50.166 -23.333 -68.499 -40s-27.5 -38 -27.5 -64
c0 -14 3.5 -28.833 10.5 -44.5s18 -31.334 33 -47.001s34.167 -31.834 57.5 -48.501c20.667 -14 41.5 -26.5 62.5 -37.5s40 -19.833 57 -26.5s29.5 -11.334 37.5 -14.001z" />
    <glyph glyph-name="dieresis" unicode="&#xa8;" horiz-adv-x="896" 
d="M684 1186c-58.667 0 -108.667 20.667 -150 62s-62 91.333 -62 150c0 59.333 20.667 109.5 62 150.5s91.333 61.5 150 61.5c59.333 0 109.5 -20.5 150.5 -61.5s61.5 -91.167 61.5 -150.5c0 -58.667 -20.5 -108.667 -61.5 -150s-91.167 -62 -150.5 -62zM212 1186
c-58.667 0 -108.667 20.667 -150 62s-62 91.333 -62 150c0 59.333 20.667 109.5 62 150.5s91.333 61.5 150 61.5c59.333 0 109.5 -20.5 150.5 -61.5s61.5 -91.167 61.5 -150.5c0 -58.667 -20.5 -108.667 -61.5 -150s-91.167 -62 -150.5 -62z" />
    <glyph glyph-name="copyright" unicode="&#xa9;" horiz-adv-x="1900" 
d="M951 -30c-117.333 0 -227.835 22.3291 -331.502 66.9961s-195.167 106.334 -274.5 185.001s-141.5 169.667 -186.5 273s-67.5 214 -67.5 332c0 116.667 22.167 226.334 66.5 329.001s105.833 193.334 184.5 272.001s169.834 140.334 273.501 185.001
s214.834 67 333.501 67c118 0 229 -22.167 333 -66.5s195.5 -105.833 274.5 -184.5s140.833 -169.667 185.5 -273s67 -213.666 67 -330.999s-22.333 -227.5 -67 -330.5s-106.5 -193.833 -185.5 -272.5s-170.333 -140.334 -274 -185.001s-214.167 -67 -331.5 -67z
M950.998 233.996c81.333 0 158.166 15.499 230.499 46.499s136 73.667 191 128s98.167 117.166 129.5 188.499s47 147.333 47 228c0 81.333 -15.667 157.833 -47 229.5s-74.666 134.667 -129.999 189s-119.166 97 -191.499 128s-149.5 46.5 -231.5 46.5
c-81.333 0 -158 -15.5 -230 -46.5s-135.5 -73.667 -190.5 -128s-98 -117.166 -129 -188.499s-46.5 -147.666 -46.5 -228.999c0 -80.667 15.667 -156.667 47 -228s74.5 -134.333 129.5 -189s118.667 -97.5 191 -128.5s149.166 -46.5 230.499 -46.5zM997.998 439.995
c-72.667 0 -140.829 17.666 -204.496 52.999s-115 82.5 -154 141.5s-58.5 123.5 -58.5 193.5c0 69.333 19.167 134 57.5 194s89.666 108.667 153.999 146s135.5 56 213.5 56c43.333 0 86.666 -5.66699 129.999 -17s77.666 -25.666 102.999 -42.999l-96 -206
c-24 12 -52.667 18 -86 18c-28 0 -53.167 -6.5 -75.5 -19.5s-40 -30.5 -53 -52.5s-19.5 -47 -19.5 -75c0 -26 6.16699 -49.833 18.5 -71.5s29.666 -39 51.999 -52s48.5 -19.5 78.5 -19.5c16 0 32.5 1.66699 49.5 5s28.167 7 33.5 11l97 -206
c-89.333 -37.333 -169.333 -56 -240 -56z" />
    <glyph glyph-name="ordfeminine" unicode="&#xaa;" horiz-adv-x="1094" 
d="M445 1008c-57.333 0 -109.333 14.833 -156 44.5s-83.667 70 -111 121s-41 108.167 -41 171.5c0 61.333 13 117.333 39 168s62.833 91.167 110.5 121.5s103.5 45.5 167.5 45.5c35.333 0 68.833 -5 100.5 -15s60.5 -25 86.5 -45v40h258v-632h-258v50
c-24 -18.667 -52.5 -35 -85.5 -49s-69.833 -21 -110.5 -21zM526 1226c24 0 44.999 5.16602 62.999 15.499s32.167 24.333 42.5 42s15.5 37.834 15.5 60.501c0 35.333 -11.667 63.833 -35 85.5s-51.666 32.5 -84.999 32.5c-22 0 -42 -5 -60 -15s-32.5 -23.833 -43.5 -41.5
s-16.5 -38.5 -16.5 -62.5c0 -22 5 -41.833 15 -59.5s23.833 -31.667 41.5 -42s38.5 -15.5 62.5 -15.5z" />
    <glyph glyph-name="guillemotleft" unicode="&#xab;" horiz-adv-x="1302" 
d="M1013 58l-390 500l390 500l214 -168l-260 -332l260 -332zM435 58l-390 500l390 500l214 -168l-260 -332l260 -332z" />
    <glyph glyph-name="logicalnot" unicode="&#xac;" horiz-adv-x="1280" 
d="M794 316v334h-668v360h1028v-694h-360z" />
    <glyph glyph-name="uni00AD" unicode="&#xad;" horiz-adv-x="958" 
d="M157 400v358h644v-358h-644z" />
    <glyph glyph-name="registered" unicode="&#xae;" horiz-adv-x="1191" 
d="M595 784c-82 0 -156.833 20.1689 -224.5 60.502s-121.834 94.166 -162.501 161.499s-61 142 -61 224c0 81.333 20 156.166 60 224.499s93.833 123 161.5 164s143.167 61.5 226.5 61.5c82 0 156.833 -20.167 224.5 -60.5s121.834 -94.5 162.501 -162.5
s61 -143.667 61 -227s-20.5 -158.833 -61.5 -226.5s-95.333 -121.167 -163 -160.5s-142.167 -59 -223.5 -59zM596 922.002c55.333 0 106.331 13.333 152.998 40s84.334 63.334 113.001 110.001s43 99.334 43 158.001s-14.167 111.5 -42.5 158.5s-65.833 84.333 -112.5 112
s-98.334 41.5 -155.001 41.5c-58 0 -110.167 -14.333 -156.5 -43s-83.166 -66.667 -110.499 -114s-41 -99 -41 -155c0 -56.667 14 -108.334 42 -155.001s65.333 -83.834 112 -111.501s98.334 -41.5 155.001 -41.5zM456.998 1044v380h166c37.333 0 69 -9.5 95 -28.5
s39 -50.167 39 -93.5c0 -28.667 -6.5 -52.667 -19.5 -72s-29.167 -34 -48.5 -44l120 -142h-140l-99 130h-1v-130h-112zM568.998 1264h18c11.333 0 22.833 1.5 34.5 4.5s17.5 12.833 17.5 29.5c0 19.333 -6.5 30.5 -19.5 33.5s-23.833 4.5 -32.5 4.5h-18v-72z" />
    <glyph glyph-name="macron" unicode="&#xaf;" horiz-adv-x="816" 
d="M0 1248v280h816v-280h-816z" />
    <glyph glyph-name="degree" unicode="&#xb0;" horiz-adv-x="862" 
d="M431 1338c-66.667 0 -123 19.167 -169 57.5s-69 87.833 -69 148.5c0 61.333 23 111 69 149s102.333 57 169 57c67.333 0 123.833 -19 169.5 -57s68.5 -87.667 68.5 -149c0 -60.667 -22.833 -110.167 -68.5 -148.5s-102.167 -57.5 -169.5 -57.5zM431 1468
c20 0 37 7.16699 51 21.5s21 32.5 21 54.5s-7 40.167 -21 54.5s-31 21.5 -51 21.5s-37 -7.16699 -51 -21.5s-21 -32.5 -21 -54.5s7 -40.167 21 -54.5s31 -21.5 51 -21.5z" />
    <glyph glyph-name="plusminus" unicode="&#xb1;" horiz-adv-x="1396" 
d="M518 436v274h-334v358h334v274h360v-274h334v-358h-334v-274h-360zM184 0v360h1028v-360h-1028z" />
    <glyph glyph-name="uni00B2" unicode="&#xb2;" horiz-adv-x="658" 
d="M47 1026v98.999c68.667 50.667 125.834 97.167 171.501 139.5s80 80.333 103 114s34.5 63.167 34.5 88.5c0 17.333 -4.83301 31.166 -14.5 41.499s-22.5 15.5 -38.5 15.5c-17.333 0 -33.333 -7.5 -48 -22.5s-32.334 -42.167 -53.001 -81.5l-156 81
c28.667 61.333 64 106.833 106 136.5s93 44.5 153 44.5c76.667 0 138.167 -21.333 184.5 -64s69.5 -96 69.5 -160c0 -32.667 -6.66699 -64.667 -20 -96s-33 -61.166 -59 -89.499s-58.333 -55.166 -97 -80.499h188v-166h-524z" />
    <glyph glyph-name="uni00B3" unicode="&#xb3;" horiz-adv-x="611" 
d="M298 1026c-64.667 0 -119.499 12.6699 -164.499 38.0029s-79.833 62.666 -104.5 111.999l172 88c3.33301 -24.667 12.666 -44.167 27.999 -58.5s35 -21.5 59 -21.5c19.333 0 35 5 47 15s18 24.333 18 43c0 23.333 -8.5 41.666 -25.5 54.999s-38.833 20 -65.5 20
c-10 0 -19.667 -1.66699 -29 -5v119h36c16 0 31.5 5.83301 46.5 17.5s22.5 25.167 22.5 40.5c0 12.667 -5.5 23.167 -16.5 31.5s-24.5 12.5 -40.5 12.5c-18 0 -34 -5.33301 -48 -16s-23.667 -24.667 -29 -42l-146 74c21.333 42.667 50.333 75.167 87 97.5s88 33.5 154 33.5
c67.333 0 121.833 -12.333 163.5 -37s62.5 -63.667 62.5 -117c0 -22.667 -4.33301 -46 -13 -70s-22.667 -47.667 -42 -71c28.667 -18.667 50.167 -41.5 64.5 -68.5s21.5 -57.833 21.5 -92.5c0 -68.667 -25.5 -118.834 -76.5 -150.501s-111.5 -47.5 -181.5 -47.5z" />
    <glyph glyph-name="acute" unicode="&#xb4;" horiz-adv-x="652" 
d="M167 1075l-167 140l335 483l268 -205z" />
    <glyph glyph-name="uni00B5" unicode="&#xb5;" horiz-adv-x="1616" 
d="M185 -320c0 50 3.33008 100.166 9.99707 150.499s14.334 103.833 23.001 160.5s16.334 119.334 23.001 188.001s10 146.334 10 233.001v612h416v-572c0 -47.333 14.167 -86.166 42.5 -116.499s64.833 -45.5 109.5 -45.5c33.333 0 63.833 8.16699 91.5 24.5
s50 38.166 67 65.499s25.5 56.666 25.5 87.999v556h416v-1024h-416v96c-39.333 -39.333 -85.166 -70.5 -137.499 -93.5s-103.833 -34.5 -154.5 -34.5c-6 0 -13.167 0.166992 -21.5 0.5s-16.5 0.833008 -24.5 1.5v-290h-480z" />
    <glyph glyph-name="paragraph" unicode="&#xb6;" horiz-adv-x="1623" 
d="M780 0v588h-192c-107.333 0 -200.333 25.667 -279 77s-139.5 118.166 -182.5 200.499s-64.5 170.5 -64.5 264.5c0 94.667 21.5 181.334 64.5 260.001s103.833 141.667 182.5 189s171.667 71 279 71h800v-1650h-236v1410h-136v-1410h-236z" />
    <glyph glyph-name="periodcentered" unicode="&#xb7;" horiz-adv-x="851" 
d="M424 274c-49.333 0 -94.166 11.833 -134.499 35.5s-72.333 55.667 -96 96s-35.5 85.166 -35.5 134.499s11.833 94.166 35.5 134.499s55.667 72.333 96 96s85.166 35.5 134.499 35.5s94.166 -11.833 134.499 -35.5s72.333 -55.667 96 -96s35.5 -85.166 35.5 -134.499
s-11.833 -94.166 -35.5 -134.499s-55.667 -72.333 -96 -96s-85.166 -35.5 -134.499 -35.5z" />
    <glyph glyph-name="cedilla" unicode="&#xb8;" horiz-adv-x="597" 
d="M314 -551c-58.667 0 -113.834 13.168 -165.501 39.501s-101.167 66.5 -148.5 120.5l154 117c47.333 -55.333 97.333 -83 150 -83c22 0 39.667 5.5 53 16.5s20 25.167 20 42.5c0 21.333 -10.833 38.166 -32.5 50.499s-50.167 18.5 -85.5 18.5c-16.667 0 -32.5 -1 -47.5 -3
s-25.167 -4.66699 -30.5 -8l-23 19l75 228h164l-37 -113c25.333 0 51.333 -3.66699 78 -11s50.334 -17.666 71.001 -30.999c29.333 -18 51.333 -40.333 66 -67s22 -57.667 22 -93c0 -70.667 -26.5 -128.834 -79.5 -174.501s-120.833 -68.5 -203.5 -68.5z" />
    <glyph glyph-name="uni00B9" unicode="&#xb9;" horiz-adv-x="458" 
d="M161 1026v443h-125v181h309v-624h-184z" />
    <glyph glyph-name="ordmasculine" unicode="&#xba;" horiz-adv-x="934" 
d="M466 1004c-71.333 0 -135.5 14.5 -192.5 43.5s-102.167 68.833 -135.5 119.5s-50 109 -50 175s16.667 124.5 50 175.5s78.5 90.833 135.5 119.5s121.167 43 192.5 43s135.5 -14.333 192.5 -43s102.167 -68.5 135.5 -119.5s50 -109.5 50 -175.5s-16.667 -124.333 -50 -175
s-78.5 -90.5 -135.5 -119.5s-121.167 -43.5 -192.5 -43.5zM466 1220c20 0 38 5.16699 54 15.5s28.667 24.666 38 42.999s14 39.5 14 63.5s-4.66699 45.167 -14 63.5s-22 32.666 -38 42.999s-34 15.5 -54 15.5s-38 -5.16699 -54 -15.5s-28.667 -24.666 -38 -42.999
s-14 -39.5 -14 -63.5s4.66699 -45.167 14 -63.5s22 -32.666 38 -42.999s34 -15.5 54 -15.5z" />
    <glyph glyph-name="guillemotright" unicode="&#xbb;" horiz-adv-x="1298" 
d="M285 58l-214 168l260 332l-260 332l214 168l390 -500zM863 58l-214 168l260 332l-260 332l214 168l390 -500z" />
    <glyph glyph-name="onequarter" unicode="&#xbc;" horiz-adv-x="2535" 
d="M337 600v722h-199v328h535v-1050h-336zM424 0l960 1650h274l-960 -1650h-274zM1837 0v181h-579v89l561 780h331v-576h136v-293h-136v-181h-313zM1718 474h119v186z" />
    <glyph glyph-name="onehalf" unicode="&#xbd;" horiz-adv-x="2606" 
d="M337 600v722h-199v328h535v-1050h-336zM424 0l960 1650h274l-960 -1650h-274zM1373 0l0.00195312 176.002c96 58.667 180 114.167 252 166.5s132.167 100.833 180.5 145.5s84.5 84.667 108.5 120s36 65.666 36 90.999c0 17.333 -5.16699 32.666 -15.5 45.999
s-24.5 23.833 -42.5 31.5s-39.333 11.5 -64 11.5c-21.333 0 -41.333 -4 -60 -12s-37.334 -22.333 -56.001 -43s-39 -50.334 -61 -89.001l-276 142c29.333 66.667 66.666 121.834 111.999 165.501s98 76.167 158 97.5s127 32 201 32c96.667 0 179.5 -16.167 248.5 -48.5
s122.167 -76 159.5 -131s56 -116.5 56 -184.5c0 -42.667 -7.66699 -84.667 -23 -126s-37.833 -80.333 -67.5 -117s-66 -70.5 -109 -101.5s-92.167 -57.833 -147.5 -80.5h369v-292h-959z" />
    <glyph glyph-name="threequarters" unicode="&#xbe;" horiz-adv-x="2966" 
d="M646 579c-100 0 -190.338 22.6709 -271.005 68.0039s-140 107 -178 185l308 158c6.66699 -36.667 21.667 -66.834 45 -90.501s55.333 -35.5 96 -35.5c34.667 0 62.334 8.5 83.001 25.5s31 40.5 31 70.5c0 20.667 -5 39 -15 55s-23.667 28.5 -41 37.5
s-37.333 13.5 -60 13.5c-20.667 0 -39 -3.33301 -55 -10v213h65c14 0 27 3.83301 39 11.5s21.833 17.5 29.5 29.5s11.5 24.333 11.5 37s-4.16699 24 -12.5 34s-19.666 18 -33.999 24s-31.166 9 -50.499 9s-37.666 -3.16699 -54.999 -9.5s-32.5 -15.833 -45.5 -28.5
s-23.167 -28 -30.5 -46l-260 133c20.667 45.333 50.334 84.166 89.001 116.499s84.167 57.166 136.5 74.499s108.833 26 169.5 26c77.333 0 145.666 -13.833 204.999 -41.5s105.833 -66.334 139.5 -116.001s50.5 -107.167 50.5 -172.5
c0 -28.667 -4.16699 -56.167 -12.5 -82.5s-23.166 -53.5 -44.499 -81.5c42 -34.667 71.333 -70.667 88 -108s25 -77.333 25 -120c0 -72.667 -19.5 -137.5 -58.5 -194.5s-92.167 -102 -159.5 -135s-143.333 -49.5 -228 -49.5zM854.995 0.00390625l960 1650h274l-960 -1650
h-274zM2268 0.00390625v181h-579v89l561 780h331v-576h136v-293h-136v-181h-313zM2149 474.004h119v186z" />
    <glyph glyph-name="questiondown" unicode="&#xbf;" horiz-adv-x="1137" 
d="M599 -550c-110 0 -207.833 23.166 -293.5 69.499s-152.834 107.5 -201.501 183.5s-73 158 -73 246c0 76.667 17.5 147.834 52.5 213.501s80.667 121.667 137 168s116.5 78.833 180.5 97.5v128h386v-492c-15.333 5.33301 -36.666 9.66602 -63.999 12.999s-56 5 -86 5
c-47.333 0 -87.166 -5 -119.499 -15s-56.5 -24.667 -72.5 -44s-24 -43.666 -24 -72.999c0 -26.667 7.16699 -50.167 21.5 -70.5s35.5 -36 63.5 -47s63 -16.5 105 -16.5c49.333 0 91.5 8.66699 126.5 26s60.167 45.333 75.5 84l340 -76
c-21.333 -80.667 -58.5 -151 -111.5 -211s-117.333 -106.5 -193 -139.5s-158.834 -49.5 -249.501 -49.5zM595 629.999c-49.333 0 -94.166 11.833 -134.499 35.5s-72.333 55.667 -96 96s-35.5 85.166 -35.5 134.499s11.833 94.166 35.5 134.499s55.667 72.333 96 96
s85.166 35.5 134.499 35.5s94.166 -11.833 134.499 -35.5s72.333 -55.667 96 -96s35.5 -85.166 35.5 -134.499s-11.833 -94.166 -35.5 -134.499s-55.667 -72.333 -96 -96s-85.166 -35.5 -134.499 -35.5z" />
    <glyph glyph-name="Agrave" unicode="&#xc0;" horiz-adv-x="1670" 
d="M-41 0l672 1650h408l672 -1650h-474l-99 274h-606l-99 -274h-474zM682 660h306l-153 392zM945 1701l-436 418l268 205l335 -483z" />
    <glyph glyph-name="Aacute" unicode="&#xc1;" horiz-adv-x="1670" 
d="M-41 0l672 1650h408l672 -1650h-474l-99 274h-606l-99 -274h-474zM682 660h306l-153 392zM760 1701l-167 140l335 483l268 -205z" />
    <glyph glyph-name="Acircumflex" unicode="&#xc2;" horiz-adv-x="1670" 
d="M-41 0l672 1650h408l672 -1650h-474l-99 274h-606l-99 -274h-474zM682 660h306l-153 392zM529 1756l-156 210l462 340l462 -340l-156 -210l-306 224z" />
    <glyph glyph-name="Atilde" unicode="&#xc3;" horiz-adv-x="1670" 
d="M-41 0l672 1650h408l672 -1650h-474l-99 274h-606l-99 -274h-474zM682 660h306l-153 392zM1042 1735c-32 0 -65.6729 8.33398 -101.006 25.001s-71.166 35.667 -107.499 57s-72.166 40.333 -107.499 57s-68.666 25 -99.999 25c-42.667 0 -75.667 -15.667 -99 -47
s-40 -64.666 -50 -99.999l-204 179c37.333 78.667 87.333 144.5 150 197.5s128.334 79.5 197.001 79.5c40 0 81.5 -8.33301 124.5 -25s85 -35.667 126 -57l111 -57c33 -16.667 59.167 -25 78.5 -25c26.667 0 53.334 15.667 80.001 47s44.334 64.666 53.001 99.999l203 -179
c-23.333 -52 -56 -98.833 -98 -140.5s-86 -74.834 -132 -99.501s-87.333 -37 -124 -37z" />
    <glyph glyph-name="Adieresis" unicode="&#xc4;" horiz-adv-x="1670" 
d="M-41 0l672 1650h408l672 -1650h-474l-99 274h-606l-99 -274h-474zM682 660h306l-153 392zM1071 1812c-58.667 0 -108.667 20.667 -150 62s-62 91.333 -62 150c0 59.333 20.667 109.5 62 150.5s91.333 61.5 150 61.5c59.333 0 109.5 -20.5 150.5 -61.5
s61.5 -91.167 61.5 -150.5c0 -58.667 -20.5 -108.667 -61.5 -150s-91.167 -62 -150.5 -62zM599 1812c-58.667 0 -108.667 20.667 -150 62s-62 91.333 -62 150c0 59.333 20.667 109.5 62 150.5s91.333 61.5 150 61.5c59.333 0 109.5 -20.5 150.5 -61.5
s61.5 -91.167 61.5 -150.5c0 -58.667 -20.5 -108.667 -61.5 -150s-91.167 -62 -150.5 -62z" />
    <glyph glyph-name="Aring" unicode="&#xc5;" horiz-adv-x="1670" 
d="M-41 0l672 1650h408l672 -1650h-474l-99 274h-606l-99 -274h-474zM682 660h306l-153 392zM835 1786c-64.667 0 -123.334 13 -176.001 39s-94.5 62 -125.5 108s-46.5 99 -46.5 159v0c0 60 15.5 113 46.5 159s72.833 82 125.5 108s111.334 39 176.001 39
s123.334 -13 176.001 -39s94.5 -62 125.5 -108s46.5 -99 46.5 -159s-15.5 -113 -46.5 -159s-72.833 -82 -125.5 -108s-111.334 -39 -176.001 -39zM835 1968c31.333 0 58.833 12.167 82.5 36.5s35.5 53.5 35.5 87.5s-11.833 63.167 -35.5 87.5s-51.167 36.5 -82.5 36.5
c-30.667 0 -58 -12.167 -82 -36.5s-36 -53.5 -36 -87.5v0c0 -34 12 -63.167 36 -87.5s51.333 -36.5 82 -36.5z" />
    <glyph glyph-name="AE" unicode="&#xc6;" horiz-adv-x="2172" 
d="M-41 0l672 1650h948l149 -386h-532l100 -244h501l149 -386h-493l101 -248h511l148 -386h-976l-99 274h-606l-99 -274h-474zM682 660h306l-153 392z" />
    <glyph glyph-name="Ccedilla" unicode="&#xc7;" horiz-adv-x="1476" 
d="M953 -32c-124.667 0 -242.833 22.1641 -354.5 66.4971s-210.5 105.833 -296.5 184.5s-153.5 169.5 -202.5 272.5s-73.5 213.5 -73.5 331.5s24.667 228.833 74 332.5s116.833 194.834 202.5 273.501s184.167 140.167 295.5 184.5s229 66.5 353 66.5
c100 0 196.167 -13.833 288.5 -41.5s169.833 -62.5 232.5 -104.5l-186 -376c-36 27.333 -81.5 49.166 -136.5 65.499s-111.5 24.5 -169.5 24.5c-66.667 0 -128.834 -10.667 -186.501 -32s-108.334 -51.166 -152.001 -89.499s-77.834 -83.166 -102.501 -134.499
s-37 -107.333 -37 -168s12.333 -116.667 37 -168s58.834 -96.166 102.501 -134.499s94.334 -68.166 152.001 -89.499s119.834 -32 186.501 -32c58 0 114.5 8.16699 169.5 24.5s100.5 38.166 136.5 65.499l186 -376c-59.333 -40 -134.833 -74.333 -226.5 -103
s-189.167 -43 -292.5 -43zM870.001 -590.003c-58.667 0 -113.834 13.168 -165.501 39.501s-101.167 66.5 -148.5 120.5l154 117c47.333 -55.333 97.333 -83 150 -83c22 0 39.667 5.5 53 16.5s20 25.167 20 42.5c0 21.333 -10.833 38.166 -32.5 50.499
s-50.167 18.5 -85.5 18.5c-16.667 0 -32.5 -1 -47.5 -3s-25.167 -4.66699 -30.5 -8l-23 19l75 228h164l-37 -113c25.333 0 51.333 -3.66699 78 -11s50.334 -17.666 71.001 -30.999c29.333 -18 51.333 -40.333 66 -67s22 -57.667 22 -93
c0 -70.667 -26.5 -128.834 -79.5 -174.501s-120.833 -68.5 -203.5 -68.5z" />
    <glyph glyph-name="Egrave" unicode="&#xc8;" horiz-adv-x="1340" 
d="M196 0v1650h976v-386h-536v-244h512v-386h-512v-248h536v-386h-976zM780 1701l-436 418l268 205l335 -483z" />
    <glyph glyph-name="Eacute" unicode="&#xc9;" horiz-adv-x="1340" 
d="M196 0v1650h976v-386h-536v-244h512v-386h-512v-248h536v-386h-976zM595 1701l-167 140l335 483l268 -205z" />
    <glyph glyph-name="Ecircumflex" unicode="&#xca;" horiz-adv-x="1340" 
d="M196 0v1650h976v-386h-536v-244h512v-386h-512v-248h536v-386h-976zM364 1756l-156 210l462 340l462 -340l-156 -210l-306 224z" />
    <glyph glyph-name="Edieresis" unicode="&#xcb;" horiz-adv-x="1340" 
d="M196 0v1650h976v-386h-536v-244h512v-386h-512v-248h536v-386h-976zM906 1812c-58.667 0 -108.667 20.667 -150 62s-62 91.333 -62 150c0 59.333 20.667 109.5 62 150.5s91.333 61.5 150 61.5c59.333 0 109.5 -20.5 150.5 -61.5s61.5 -91.167 61.5 -150.5
c0 -58.667 -20.5 -108.667 -61.5 -150s-91.167 -62 -150.5 -62zM434 1812c-58.667 0 -108.667 20.667 -150 62s-62 91.333 -62 150c0 59.333 20.667 109.5 62 150.5s91.333 61.5 150 61.5c59.333 0 109.5 -20.5 150.5 -61.5s61.5 -91.167 61.5 -150.5
c0 -58.667 -20.5 -108.667 -61.5 -150s-91.167 -62 -150.5 -62z" />
    <glyph glyph-name="Igrave" unicode="&#xcc;" horiz-adv-x="832" 
d="M196 0v1650h440v-1650h-440zM526 1701l-436 418l268 205l335 -483z" />
    <glyph glyph-name="Iacute" unicode="&#xcd;" horiz-adv-x="832" 
d="M196 0v1650h440v-1650h-440zM341 1701l-167 140l335 483l268 -205z" />
    <glyph glyph-name="Icircumflex" unicode="&#xce;" horiz-adv-x="832" 
d="M196 0v1650h440v-1650h-440zM110 1756l-156 210l462 340l462 -340l-156 -210l-306 224z" />
    <glyph glyph-name="Idieresis" unicode="&#xcf;" horiz-adv-x="832" 
d="M196 0v1650h440v-1650h-440zM652 1812c-58.667 0 -108.667 20.667 -150 62s-62 91.333 -62 150c0 59.333 20.667 109.5 62 150.5s91.333 61.5 150 61.5c59.333 0 109.5 -20.5 150.5 -61.5s61.5 -91.167 61.5 -150.5c0 -58.667 -20.5 -108.667 -61.5 -150
s-91.167 -62 -150.5 -62zM180 1812c-58.667 0 -108.667 20.667 -150 62s-62 91.333 -62 150c0 59.333 20.667 109.5 62 150.5s91.333 61.5 150 61.5c59.333 0 109.5 -20.5 150.5 -61.5s61.5 -91.167 61.5 -150.5c0 -58.667 -20.5 -108.667 -61.5 -150
s-91.167 -62 -150.5 -62z" />
    <glyph glyph-name="Eth" unicode="&#xd0;" horiz-adv-x="1645" 
d="M247 0v646h-164v358h164v646h508c113.333 0 220 -20.333 320 -61s188.5 -98 265.5 -172s137.333 -161.333 181 -262s65.5 -211 65.5 -331c0 -120.667 -21.833 -231.167 -65.5 -331.5s-103.834 -187.333 -180.501 -261s-165.167 -130.667 -265.5 -171
s-207.166 -60.5 -320.499 -60.5h-508zM687 394h15.999c62.667 0 119 11.167 169 33.5s92.833 53.166 128.5 92.499s63 85 82 137s28.5 107.667 28.5 167s-9.16699 115 -27.5 167s-45.166 97.833 -80.499 137.5s-78.333 70.834 -129 93.501s-107.667 34 -171 34h-16v-252h154
v-358h-154v-252z" />
    <glyph glyph-name="Ntilde" unicode="&#xd1;" horiz-adv-x="1864" 
d="M196 0v1650h440l592 -920v920h440v-1650h-440l-592 920v-920h-440zM1139 1735c-32 0 -65.6729 8.33398 -101.006 25.001s-71.166 35.667 -107.499 57s-72.166 40.333 -107.499 57s-68.666 25 -99.999 25c-42.667 0 -75.667 -15.667 -99 -47s-40 -64.666 -50 -99.999
l-204 179c37.333 78.667 87.333 144.5 150 197.5s128.334 79.5 197.001 79.5c40 0 81.5 -8.33301 124.5 -25s85 -35.667 126 -57l111 -57c33 -16.667 59.167 -25 78.5 -25c26.667 0 53.334 15.667 80.001 47s44.334 64.666 53.001 99.999l203 -179
c-23.333 -52 -56 -98.833 -98 -140.5s-86 -74.834 -132 -99.501s-87.333 -37 -124 -37z" />
    <glyph glyph-name="Ograve" unicode="&#xd2;" horiz-adv-x="1788" 
d="M894 -32c-115.333 0 -223.333 22 -324 66s-189 105.167 -265 183.5s-135.5 169.333 -178.5 273s-64.5 214.834 -64.5 333.501s21.5 229.834 64.5 333.501s102.5 194.667 178.5 273s164.333 139.5 265 183.5s208.667 66 324 66s223.333 -22 324 -66
s189 -105.167 265 -183.5s135.5 -169.333 178.5 -273s64.5 -214.834 64.5 -333.501s-21.5 -229.834 -64.5 -333.501s-102.5 -194.667 -178.5 -273s-164.333 -139.5 -265 -183.5s-208.667 -66 -324 -66zM894 392c54 0 103 10.167 147 30.5s81.667 49.5 113 87.5
s55.5 83.5 72.5 136.5s25.5 112.167 25.5 177.5s-8.5 124.5 -25.5 177.5s-41.167 98.5 -72.5 136.5s-69 67.167 -113 87.5s-93 30.5 -147 30.5s-103 -10.167 -147 -30.5s-81.667 -49.5 -113 -87.5s-55.5 -83.5 -72.5 -136.5s-25.5 -112.167 -25.5 -177.5
s8.5 -124.5 25.5 -177.5s41.167 -98.5 72.5 -136.5s69 -67.167 113 -87.5s93 -30.5 147 -30.5zM1004 1731l-436 418l268 205l335 -483z" />
    <glyph glyph-name="Oacute" unicode="&#xd3;" horiz-adv-x="1788" 
d="M894 -32c-115.333 0 -223.333 22 -324 66s-189 105.167 -265 183.5s-135.5 169.333 -178.5 273s-64.5 214.834 -64.5 333.501s21.5 229.834 64.5 333.501s102.5 194.667 178.5 273s164.333 139.5 265 183.5s208.667 66 324 66s223.333 -22 324 -66
s189 -105.167 265 -183.5s135.5 -169.333 178.5 -273s64.5 -214.834 64.5 -333.501s-21.5 -229.834 -64.5 -333.501s-102.5 -194.667 -178.5 -273s-164.333 -139.5 -265 -183.5s-208.667 -66 -324 -66zM894 392c54 0 103 10.167 147 30.5s81.667 49.5 113 87.5
s55.5 83.5 72.5 136.5s25.5 112.167 25.5 177.5s-8.5 124.5 -25.5 177.5s-41.167 98.5 -72.5 136.5s-69 67.167 -113 87.5s-93 30.5 -147 30.5s-103 -10.167 -147 -30.5s-81.667 -49.5 -113 -87.5s-55.5 -83.5 -72.5 -136.5s-25.5 -112.167 -25.5 -177.5
s8.5 -124.5 25.5 -177.5s41.167 -98.5 72.5 -136.5s69 -67.167 113 -87.5s93 -30.5 147 -30.5zM819 1731l-167 140l335 483l268 -205z" />
    <glyph glyph-name="Ocircumflex" unicode="&#xd4;" horiz-adv-x="1788" 
d="M894 -32c-115.333 0 -223.333 22 -324 66s-189 105.167 -265 183.5s-135.5 169.333 -178.5 273s-64.5 214.834 -64.5 333.501s21.5 229.834 64.5 333.501s102.5 194.667 178.5 273s164.333 139.5 265 183.5s208.667 66 324 66s223.333 -22 324 -66
s189 -105.167 265 -183.5s135.5 -169.333 178.5 -273s64.5 -214.834 64.5 -333.501s-21.5 -229.834 -64.5 -333.501s-102.5 -194.667 -178.5 -273s-164.333 -139.5 -265 -183.5s-208.667 -66 -324 -66zM894 392c54 0 103 10.167 147 30.5s81.667 49.5 113 87.5
s55.5 83.5 72.5 136.5s25.5 112.167 25.5 177.5s-8.5 124.5 -25.5 177.5s-41.167 98.5 -72.5 136.5s-69 67.167 -113 87.5s-93 30.5 -147 30.5s-103 -10.167 -147 -30.5s-81.667 -49.5 -113 -87.5s-55.5 -83.5 -72.5 -136.5s-25.5 -112.167 -25.5 -177.5
s8.5 -124.5 25.5 -177.5s41.167 -98.5 72.5 -136.5s69 -67.167 113 -87.5s93 -30.5 147 -30.5zM588 1786l-156 210l462 340l462 -340l-156 -210l-306 224z" />
    <glyph glyph-name="Otilde" unicode="&#xd5;" horiz-adv-x="1788" 
d="M894 -32c-115.333 0 -223.333 22 -324 66s-189 105.167 -265 183.5s-135.5 169.333 -178.5 273s-64.5 214.834 -64.5 333.501s21.5 229.834 64.5 333.501s102.5 194.667 178.5 273s164.333 139.5 265 183.5s208.667 66 324 66s223.333 -22 324 -66
s189 -105.167 265 -183.5s135.5 -169.333 178.5 -273s64.5 -214.834 64.5 -333.501s-21.5 -229.834 -64.5 -333.501s-102.5 -194.667 -178.5 -273s-164.333 -139.5 -265 -183.5s-208.667 -66 -324 -66zM894 392c54 0 103 10.167 147 30.5s81.667 49.5 113 87.5
s55.5 83.5 72.5 136.5s25.5 112.167 25.5 177.5s-8.5 124.5 -25.5 177.5s-41.167 98.5 -72.5 136.5s-69 67.167 -113 87.5s-93 30.5 -147 30.5s-103 -10.167 -147 -30.5s-81.667 -49.5 -113 -87.5s-55.5 -83.5 -72.5 -136.5s-25.5 -112.167 -25.5 -177.5
s8.5 -124.5 25.5 -177.5s41.167 -98.5 72.5 -136.5s69 -67.167 113 -87.5s93 -30.5 147 -30.5zM1101 1765c-32 0 -65.6729 8.33398 -101.006 25.001s-71.166 35.667 -107.499 57s-72.166 40.333 -107.499 57s-68.666 25 -99.999 25c-42.667 0 -75.667 -15.667 -99 -47
s-40 -64.666 -50 -99.999l-204 179c37.333 78.667 87.333 144.5 150 197.5s128.334 79.5 197.001 79.5c40 0 81.5 -8.33301 124.5 -25s85 -35.667 126 -57l111 -57c33 -16.667 59.167 -25 78.5 -25c26.667 0 53.334 15.667 80.001 47s44.334 64.666 53.001 99.999l203 -179
c-23.333 -52 -56 -98.833 -98 -140.5s-86 -74.834 -132 -99.501s-87.333 -37 -124 -37z" />
    <glyph glyph-name="Odieresis" unicode="&#xd6;" horiz-adv-x="1788" 
d="M894 -32c-115.333 0 -223.333 22 -324 66s-189 105.167 -265 183.5s-135.5 169.333 -178.5 273s-64.5 214.834 -64.5 333.501s21.5 229.834 64.5 333.501s102.5 194.667 178.5 273s164.333 139.5 265 183.5s208.667 66 324 66s223.333 -22 324 -66
s189 -105.167 265 -183.5s135.5 -169.333 178.5 -273s64.5 -214.834 64.5 -333.501s-21.5 -229.834 -64.5 -333.501s-102.5 -194.667 -178.5 -273s-164.333 -139.5 -265 -183.5s-208.667 -66 -324 -66zM894 392c54 0 103 10.167 147 30.5s81.667 49.5 113 87.5
s55.5 83.5 72.5 136.5s25.5 112.167 25.5 177.5s-8.5 124.5 -25.5 177.5s-41.167 98.5 -72.5 136.5s-69 67.167 -113 87.5s-93 30.5 -147 30.5s-103 -10.167 -147 -30.5s-81.667 -49.5 -113 -87.5s-55.5 -83.5 -72.5 -136.5s-25.5 -112.167 -25.5 -177.5
s8.5 -124.5 25.5 -177.5s41.167 -98.5 72.5 -136.5s69 -67.167 113 -87.5s93 -30.5 147 -30.5zM1130 1842c-58.667 0 -108.667 20.667 -150 62s-62 91.333 -62 150c0 59.333 20.667 109.5 62 150.5s91.333 61.5 150 61.5c59.333 0 109.5 -20.5 150.5 -61.5
s61.5 -91.167 61.5 -150.5c0 -58.667 -20.5 -108.667 -61.5 -150s-91.167 -62 -150.5 -62zM658 1842c-58.667 0 -108.667 20.667 -150 62s-62 91.333 -62 150c0 59.333 20.667 109.5 62 150.5s91.333 61.5 150 61.5c59.333 0 109.5 -20.5 150.5 -61.5
s61.5 -91.167 61.5 -150.5c0 -58.667 -20.5 -108.667 -61.5 -150s-91.167 -62 -150.5 -62z" />
    <glyph glyph-name="multiply" unicode="&#xd7;" horiz-adv-x="1276" 
d="M352 292l-252 250l286 288l-286 288l252 250l286 -284l286 284l252 -250l-286 -288l286 -288l-252 -250l-286 284z" />
    <glyph glyph-name="Oslash" unicode="&#xd8;" horiz-adv-x="1788" 
d="M914 -32c-115.333 0 -223.333 22 -324 66s-189 105.167 -265 183.5s-135.5 169.333 -178.5 273s-64.5 214.834 -64.5 333.501s21.5 229.834 64.5 333.501s102.5 194.667 178.5 273s164.333 139.5 265 183.5s208.667 66 324 66s223.333 -22 324 -66
s189 -105.167 265 -183.5s135.5 -169.333 178.5 -273s64.5 -214.834 64.5 -333.501s-21.5 -229.834 -64.5 -333.501s-102.5 -194.667 -178.5 -273s-164.333 -139.5 -265 -183.5s-208.667 -66 -324 -66zM914 392c54 0 103 10.167 147 30.5s81.667 49.5 113 87.5
s55.5 83.5 72.5 136.5s25.5 112.167 25.5 177.5s-8.5 124.5 -25.5 177.5s-41.167 98.5 -72.5 136.5s-69 67.167 -113 87.5s-93 30.5 -147 30.5s-103 -10.167 -147 -30.5s-81.667 -49.5 -113 -87.5s-55.5 -83.5 -72.5 -136.5s-25.5 -112.167 -25.5 -177.5
s8.5 -124.5 25.5 -177.5s41.167 -98.5 72.5 -136.5s69 -67.167 113 -87.5s93 -30.5 147 -30.5zM424 -35l-260 190l1254 1563l260 -200z" />
    <glyph glyph-name="Ugrave" unicode="&#xd9;" horiz-adv-x="1663" 
d="M832 -32c-219.333 0 -385.333 51.833 -498 155.5s-169 256.5 -169 458.5v1068h440v-936c0 -118.667 16.333 -200.667 49 -246s91.667 -68 177 -68s144.333 22.667 177 68s49 127.333 49 246v936h440v-1068c0 -202 -56.167 -354.833 -168.5 -458.5
s-277.833 -155.5 -496.5 -155.5zM942 1701l-436 418l268 205l335 -483z" />
    <glyph glyph-name="Uacute" unicode="&#xda;" horiz-adv-x="1663" 
d="M832 -32c-219.333 0 -385.333 51.833 -498 155.5s-169 256.5 -169 458.5v1068h440v-936c0 -118.667 16.333 -200.667 49 -246s91.667 -68 177 -68s144.333 22.667 177 68s49 127.333 49 246v936h440v-1068c0 -202 -56.167 -354.833 -168.5 -458.5
s-277.833 -155.5 -496.5 -155.5zM757 1701l-167 140l335 483l268 -205z" />
    <glyph glyph-name="Ucircumflex" unicode="&#xdb;" horiz-adv-x="1663" 
d="M832 -32c-219.333 0 -385.333 51.833 -498 155.5s-169 256.5 -169 458.5v1068h440v-936c0 -118.667 16.333 -200.667 49 -246s91.667 -68 177 -68s144.333 22.667 177 68s49 127.333 49 246v936h440v-1068c0 -202 -56.167 -354.833 -168.5 -458.5
s-277.833 -155.5 -496.5 -155.5zM526 1756l-156 210l462 340l462 -340l-156 -210l-306 224z" />
    <glyph glyph-name="Udieresis" unicode="&#xdc;" horiz-adv-x="1663" 
d="M832 -32c-219.333 0 -385.333 51.833 -498 155.5s-169 256.5 -169 458.5v1068h440v-936c0 -118.667 16.333 -200.667 49 -246s91.667 -68 177 -68s144.333 22.667 177 68s49 127.333 49 246v936h440v-1068c0 -202 -56.167 -354.833 -168.5 -458.5
s-277.833 -155.5 -496.5 -155.5zM1068 1812c-58.667 0 -108.667 20.667 -150 62s-62 91.333 -62 150c0 59.333 20.667 109.5 62 150.5s91.333 61.5 150 61.5c59.333 0 109.5 -20.5 150.5 -61.5s61.5 -91.167 61.5 -150.5c0 -58.667 -20.5 -108.667 -61.5 -150
s-91.167 -62 -150.5 -62zM596 1812c-58.667 0 -108.667 20.667 -150 62s-62 91.333 -62 150c0 59.333 20.667 109.5 62 150.5s91.333 61.5 150 61.5c59.333 0 109.5 -20.5 150.5 -61.5s61.5 -91.167 61.5 -150.5c0 -58.667 -20.5 -108.667 -61.5 -150
s-91.167 -62 -150.5 -62z" />
    <glyph glyph-name="Yacute" unicode="&#xdd;" horiz-adv-x="1540" 
d="M550 0v748l-620 902h530l310 -458l310 458h530l-620 -902v-748h-440zM695 1701l-167 140l335 483l268 -205z" />
    <glyph glyph-name="Thorn" unicode="&#xde;" horiz-adv-x="1448" 
d="M196 0v1650h440v-292h212c178 0 318.167 -46.333 420.5 -139s153.5 -219.667 153.5 -381c0 -109.333 -23.667 -204.666 -71 -285.999s-114 -144.333 -200 -189s-187 -67 -303 -67h-212v-296h-440zM636 643.999h68c51.333 0 95 7.16699 131 21.5s63.5 35.333 82.5 63
s28.5 61.5 28.5 101.5c0 57.333 -20.333 101.333 -61 132s-101 46 -181 46h-68v-364z" />
    <glyph glyph-name="germandbls" unicode="&#xdf;" horiz-adv-x="1399" 
d="M736 -32l-0.000976562 377.998h1c31.333 0 58.666 8.66699 81.999 26s41.5 41.333 54.5 72s19.5 66.334 19.5 107.001c0 41.333 -6.33301 77.333 -19 108s-30.667 54.5 -54 71.5s-51 25.5 -83 25.5h-1v312h1c28 0 52.5 7.5 73.5 22.5s37.333 35.667 49 62
s17.5 56.5 17.5 90.5c0 32 -5.83301 60 -17.5 84s-28 42.833 -49 56.5s-45.167 20.5 -72.5 20.5c-24 0 -44.333 -6.16699 -61 -18.5s-29.167 -30.333 -37.5 -54s-12.5 -52.834 -12.5 -87.501v-1244h-414v628h-132v314h132v286c0 100 23 189.333 69 268s109 140.667 189 186
s170.667 68 272 68c100 0 189.5 -21.667 268.5 -65s141.333 -102.5 187 -177.5s68.5 -159.833 68.5 -254.5c0 -74 -15.167 -138.167 -45.5 -192.5s-77.166 -101.166 -140.499 -140.499c56 -27.333 102.667 -60.5 140 -99.5s65.333 -83.5 84 -133.5s28 -105.667 28 -167
c0 -106 -25.167 -200.167 -75.5 -282.5s-120.166 -147.166 -209.499 -194.499s-193 -72.333 -311 -75h-1z" />
    <glyph glyph-name="agrave" unicode="&#xe0;" 
d="M579 -32c-93.333 0 -178.332 23.501 -254.999 70.501s-137.667 111.667 -183 194s-68 176.166 -68 281.499c0 102 21.5 193.833 64.5 275.5s102.5 146.5 178.5 194.5s163.667 72 263 72c58.667 0 115.167 -8.5 169.5 -25.5s101.833 -41.167 142.5 -72.5v66h416v-1024
h-416v80c-48.667 -37.333 -98.834 -65.333 -150.501 -84s-105.5 -28 -161.5 -28zM707.001 320.001c37.333 0 70.502 8.33203 99.502 24.999s51.667 39.5 68 68.5s24.5 61.833 24.5 98.5c0 37.333 -8.33301 70.333 -25 99s-39.334 51.334 -68.001 68.001s-61.667 25 -99 25
c-36.667 0 -69.667 -8.33301 -99 -25s-52.5 -39.5 -69.5 -68.5s-25.5 -61.833 -25.5 -98.5s8.33301 -69.5 25 -98.5s39.667 -51.833 69 -68.5s62.666 -25 99.999 -25zM889.003 1107l-436 418l268 205l335 -483z" />
    <glyph glyph-name="aacute" unicode="&#xe1;" 
d="M579 -32c-93.333 0 -178.332 23.501 -254.999 70.501s-137.667 111.667 -183 194s-68 176.166 -68 281.499c0 102 21.5 193.833 64.5 275.5s102.5 146.5 178.5 194.5s163.667 72 263 72c58.667 0 115.167 -8.5 169.5 -25.5s101.833 -41.167 142.5 -72.5v66h416v-1024
h-416v80c-48.667 -37.333 -98.834 -65.333 -150.501 -84s-105.5 -28 -161.5 -28zM707.001 320.001c37.333 0 70.502 8.33203 99.502 24.999s51.667 39.5 68 68.5s24.5 61.833 24.5 98.5c0 37.333 -8.33301 70.333 -25 99s-39.334 51.334 -68.001 68.001s-61.667 25 -99 25
c-36.667 0 -69.667 -8.33301 -99 -25s-52.5 -39.5 -69.5 -68.5s-25.5 -61.833 -25.5 -98.5s8.33301 -69.5 25 -98.5s39.667 -51.833 69 -68.5s62.666 -25 99.999 -25zM704.003 1107l-167 140l335 483l268 -205z" />
    <glyph glyph-name="acircumflex" unicode="&#xe2;" 
d="M579 -32c-93.333 0 -178.332 23.501 -254.999 70.501s-137.667 111.667 -183 194s-68 176.166 -68 281.499c0 102 21.5 193.833 64.5 275.5s102.5 146.5 178.5 194.5s163.667 72 263 72c58.667 0 115.167 -8.5 169.5 -25.5s101.833 -41.167 142.5 -72.5v66h416v-1024
h-416v80c-48.667 -37.333 -98.834 -65.333 -150.501 -84s-105.5 -28 -161.5 -28zM707.001 320.001c37.333 0 70.502 8.33203 99.502 24.999s51.667 39.5 68 68.5s24.5 61.833 24.5 98.5c0 37.333 -8.33301 70.333 -25 99s-39.334 51.334 -68.001 68.001s-61.667 25 -99 25
c-36.667 0 -69.667 -8.33301 -99 -25s-52.5 -39.5 -69.5 -68.5s-25.5 -61.833 -25.5 -98.5s8.33301 -69.5 25 -98.5s39.667 -51.833 69 -68.5s62.666 -25 99.999 -25zM473.003 1162l-156 210l462 340l462 -340l-156 -210l-306 224z" />
    <glyph glyph-name="atilde" unicode="&#xe3;" 
d="M579 -32c-93.333 0 -178.332 23.501 -254.999 70.501s-137.667 111.667 -183 194s-68 176.166 -68 281.499c0 102 21.5 193.833 64.5 275.5s102.5 146.5 178.5 194.5s163.667 72 263 72c58.667 0 115.167 -8.5 169.5 -25.5s101.833 -41.167 142.5 -72.5v66h416v-1024
h-416v80c-48.667 -37.333 -98.834 -65.333 -150.501 -84s-105.5 -28 -161.5 -28zM707.001 320.001c37.333 0 70.502 8.33203 99.502 24.999s51.667 39.5 68 68.5s24.5 61.833 24.5 98.5c0 37.333 -8.33301 70.333 -25 99s-39.334 51.334 -68.001 68.001s-61.667 25 -99 25
c-36.667 0 -69.667 -8.33301 -99 -25s-52.5 -39.5 -69.5 -68.5s-25.5 -61.833 -25.5 -98.5s8.33301 -69.5 25 -98.5s39.667 -51.833 69 -68.5s62.666 -25 99.999 -25zM986.003 1141c-32 0 -65.6729 8.33398 -101.006 25.001s-71.166 35.667 -107.499 57
s-72.166 40.333 -107.499 57s-68.666 25 -99.999 25c-42.667 0 -75.667 -15.667 -99 -47s-40 -64.666 -50 -99.999l-204 179c37.333 78.667 87.333 144.5 150 197.5s128.334 79.5 197.001 79.5c40 0 81.5 -8.33301 124.5 -25s85 -35.667 126 -57l111 -57
c33 -16.667 59.167 -25 78.5 -25c26.667 0 53.334 15.667 80.001 47s44.334 64.666 53.001 99.999l203 -179c-23.333 -52 -56 -98.833 -98 -140.5s-86 -74.834 -132 -99.501s-87.333 -37 -124 -37z" />
    <glyph glyph-name="adieresis" unicode="&#xe4;" 
d="M579 -32c-93.333 0 -178.332 23.501 -254.999 70.501s-137.667 111.667 -183 194s-68 176.166 -68 281.499c0 102 21.5 193.833 64.5 275.5s102.5 146.5 178.5 194.5s163.667 72 263 72c58.667 0 115.167 -8.5 169.5 -25.5s101.833 -41.167 142.5 -72.5v66h416v-1024
h-416v80c-48.667 -37.333 -98.834 -65.333 -150.501 -84s-105.5 -28 -161.5 -28zM707.001 320.001c37.333 0 70.502 8.33203 99.502 24.999s51.667 39.5 68 68.5s24.5 61.833 24.5 98.5c0 37.333 -8.33301 70.333 -25 99s-39.334 51.334 -68.001 68.001s-61.667 25 -99 25
c-36.667 0 -69.667 -8.33301 -99 -25s-52.5 -39.5 -69.5 -68.5s-25.5 -61.833 -25.5 -98.5s8.33301 -69.5 25 -98.5s39.667 -51.833 69 -68.5s62.666 -25 99.999 -25zM1015 1218c-58.667 0 -108.667 20.667 -150 62s-62 91.333 -62 150c0 59.333 20.667 109.5 62 150.5
s91.333 61.5 150 61.5c59.333 0 109.5 -20.5 150.5 -61.5s61.5 -91.167 61.5 -150.5c0 -58.667 -20.5 -108.667 -61.5 -150s-91.167 -62 -150.5 -62zM543.003 1218c-58.667 0 -108.667 20.667 -150 62s-62 91.333 -62 150c0 59.333 20.667 109.5 62 150.5
s91.333 61.5 150 61.5c59.333 0 109.5 -20.5 150.5 -61.5s61.5 -91.167 61.5 -150.5c0 -58.667 -20.5 -108.667 -61.5 -150s-91.167 -62 -150.5 -62z" />
    <glyph glyph-name="aring" unicode="&#xe5;" 
d="M579 -32c-93.333 0 -178.332 23.501 -254.999 70.501s-137.667 111.667 -183 194s-68 176.166 -68 281.499c0 102 21.5 193.833 64.5 275.5s102.5 146.5 178.5 194.5s163.667 72 263 72c58.667 0 115.167 -8.5 169.5 -25.5s101.833 -41.167 142.5 -72.5v66h416v-1024
h-416v80c-48.667 -37.333 -98.834 -65.333 -150.501 -84s-105.5 -28 -161.5 -28zM707.001 320.001c37.333 0 70.502 8.33203 99.502 24.999s51.667 39.5 68 68.5s24.5 61.833 24.5 98.5c0 37.333 -8.33301 70.333 -25 99s-39.334 51.334 -68.001 68.001s-61.667 25 -99 25
c-36.667 0 -69.667 -8.33301 -99 -25s-52.5 -39.5 -69.5 -68.5s-25.5 -61.833 -25.5 -98.5s8.33301 -69.5 25 -98.5s39.667 -51.833 69 -68.5s62.666 -25 99.999 -25zM779.003 1192c-64.667 0 -123.334 13 -176.001 39s-94.5 62 -125.5 108s-46.5 99 -46.5 159v0
c0 60 15.5 113 46.5 159s72.833 82 125.5 108s111.334 39 176.001 39s123.334 -13 176.001 -39s94.5 -62 125.5 -108s46.5 -99 46.5 -159s-15.5 -113 -46.5 -159s-72.833 -82 -125.5 -108s-111.334 -39 -176.001 -39zM779.003 1374c31.333 0 58.833 12.167 82.5 36.5
s35.5 53.5 35.5 87.5s-11.833 63.167 -35.5 87.5s-51.167 36.5 -82.5 36.5c-30.667 0 -58 -12.167 -82 -36.5s-36 -53.5 -36 -87.5v0c0 -34 12 -63.167 36 -87.5s51.333 -36.5 82 -36.5z" />
    <glyph glyph-name="ae" unicode="&#xe6;" horiz-adv-x="1923" 
d="M438 -32c-78.667 0 -145.999 12.1699 -201.999 36.5029s-98.667 59.666 -128 105.999s-44 101.833 -44 166.5c0 63.333 16 118.833 48 166.5s76.333 85 133 112s122.334 40.5 197.001 40.5c47.333 0 96.666 -5.5 147.999 -16.5s97.333 -26.167 138 -45.5v60
c0 38 -20.667 69.833 -62 95.5s-92.333 38.5 -153 38.5c-24 0 -52.167 -2 -84.5 -6s-63.833 -9.33301 -94.5 -16s-56 -14 -76 -22l-126 284c52.667 28.667 114 50.5 184 65.5s144.333 22.5 223 22.5c80 0 156.333 -7.66699 229 -23s134 -37 184 -65
c53.333 29.333 108.666 51.333 165.999 66s117 22 179 22c110 0 206.167 -22 288.5 -66s146.333 -105.5 192 -184.5s68.5 -171.5 68.5 -277.5c0 -10 -0.333008 -19.5 -1 -28.5s-1.66699 -24.167 -3 -45.5h-694c0 -33.333 7.5 -61.833 22.5 -85.5s37 -41.667 66 -54
s63.833 -18.5 104.5 -18.5c37.333 0 69.333 6.5 96 19.5s58.334 37.167 95.001 72.5l298 -148c-50.667 -87.333 -121.167 -154.5 -211.5 -201.5s-194.5 -70.5 -312.5 -70.5c-74.667 0 -143.834 10.167 -207.501 30.5s-125.834 52.166 -186.501 95.499
c-81.333 -31.333 -150.166 -56.333 -206.499 -75s-105.5 -31.834 -147.5 -39.501s-82 -11.5 -120 -11.5zM609.001 214.003c24.667 0 47 3.66992 67 11.0029s36 17.166 48 29.499s18 26.166 18 41.499c0 16 -6.16699 30.333 -18.5 43s-29 22.667 -50 30s-44.5 11 -70.5 11
c-24.667 0 -46.5 -3.33301 -65.5 -10s-34 -15.834 -45 -27.501s-16.5 -25.167 -16.5 -40.5c0 -16 5.83301 -30.667 17.5 -44s27.667 -24 48 -32s42.833 -12 67.5 -12zM1160 670.006l280 -0.000976562c-4 25.333 -11.667 46 -23 62s-26.5 28 -45.5 36s-42.167 12 -69.5 12
c-29.333 0 -54.5 -4.33301 -75.5 -13s-37.167 -21.167 -48.5 -37.5s-17.333 -36.166 -18 -59.499z" />
    <glyph glyph-name="ccedilla" unicode="&#xe7;" horiz-adv-x="1010" 
d="M639 -32c-78.667 0 -153.164 14.167 -223.497 42.5s-132.5 67.5 -186.5 117.5s-96.5 107.833 -127.5 173.5s-46.5 135.5 -46.5 209.5c0 69.333 14.5 136.5 43.5 201.5s69.667 123.333 122 175s114 92.667 185 123s148.167 45.5 231.5 45.5
c65.333 0 128.666 -9 189.999 -27s108.666 -39.667 141.999 -65l-136 -280c-33.333 22.667 -76 34 -128 34c-49.333 0 -89.5 -11 -120.5 -33s-53.667 -49 -68 -81s-21.5 -62.667 -21.5 -92c0 -36.667 8.5 -70.667 25.5 -102s41.5 -56.5 73.5 -75.5s69.667 -28.5 113 -28.5
c26.667 0 51.167 3.5 73.5 10.5s39.833 14.833 52.5 23.5l136 -280c-34.667 -24.667 -81.834 -46.167 -141.501 -64.5s-122.5 -27.5 -188.5 -27.5zM566.003 -540c-58.667 0 -113.834 13.168 -165.501 39.501s-101.167 66.5 -148.5 120.5l154 117
c47.333 -55.333 97.333 -83 150 -83c22 0 39.667 5.5 53 16.5s20 25.167 20 42.5c0 21.333 -10.833 38.166 -32.5 50.499s-50.167 18.5 -85.5 18.5c-16.667 0 -32.5 -1 -47.5 -3s-25.167 -4.66699 -30.5 -8l-23 19l75 228h164l-37 -113c25.333 0 51.333 -3.66699 78 -11
s50.334 -17.666 71.001 -30.999c29.333 -18 51.333 -40.333 66 -67s22 -57.667 22 -93c0 -70.667 -26.5 -128.834 -79.5 -174.501s-120.833 -68.5 -203.5 -68.5z" />
    <glyph glyph-name="egrave" unicode="&#xe8;" horiz-adv-x="1264" 
d="M658 -32c-113.333 0 -215.166 24.0039 -305.499 72.0039s-161.833 113.167 -214.5 195.5s-79 175.166 -79 278.499c0 76.667 15 147.834 45 213.501s71.667 123.167 125 172.5s115.833 87.666 187.5 114.999s149.5 41 233.5 41c106.667 0 200.167 -22.167 280.5 -66.5
s143.166 -106 188.499 -185s68 -170.833 68 -275.5c0 -8.66699 -0.166992 -16.834 -0.5 -24.501s-1.5 -24.5 -3.5 -50.5h-694c0 -32.667 7.66699 -60.834 23 -84.501s37.5 -41.834 66.5 -54.501s63.5 -19 103.5 -19c37.333 0 69.5 6.66699 96.5 20s58.5 37.333 94.5 72
l298 -148c-48 -84.667 -117.5 -151.167 -208.5 -199.5s-192.5 -72.5 -304.5 -72.5zM501 650.004l280 -0.000976562c-4 27.333 -12 49.833 -24 67.5s-27.667 30.834 -47 39.501s-43 13 -71 13c-29.333 0 -54.166 -4.66699 -74.499 -14s-35.833 -22.833 -46.5 -40.5
s-16.334 -39.5 -17.001 -65.5zM759 1107l-436 418l268 205l335 -483z" />
    <glyph glyph-name="eacute" unicode="&#xe9;" horiz-adv-x="1264" 
d="M658 -32c-113.333 0 -215.166 24.0039 -305.499 72.0039s-161.833 113.167 -214.5 195.5s-79 175.166 -79 278.499c0 76.667 15 147.834 45 213.501s71.667 123.167 125 172.5s115.833 87.666 187.5 114.999s149.5 41 233.5 41c106.667 0 200.167 -22.167 280.5 -66.5
s143.166 -106 188.499 -185s68 -170.833 68 -275.5c0 -8.66699 -0.166992 -16.834 -0.5 -24.501s-1.5 -24.5 -3.5 -50.5h-694c0 -32.667 7.66699 -60.834 23 -84.501s37.5 -41.834 66.5 -54.501s63.5 -19 103.5 -19c37.333 0 69.5 6.66699 96.5 20s58.5 37.333 94.5 72
l298 -148c-48 -84.667 -117.5 -151.167 -208.5 -199.5s-192.5 -72.5 -304.5 -72.5zM501 650.004l280 -0.000976562c-4 27.333 -12 49.833 -24 67.5s-27.667 30.834 -47 39.501s-43 13 -71 13c-29.333 0 -54.166 -4.66699 -74.499 -14s-35.833 -22.833 -46.5 -40.5
s-16.334 -39.5 -17.001 -65.5zM574 1107l-167 140l335 483l268 -205z" />
    <glyph glyph-name="ecircumflex" unicode="&#xea;" horiz-adv-x="1264" 
d="M658 -32c-113.333 0 -215.166 24.0039 -305.499 72.0039s-161.833 113.167 -214.5 195.5s-79 175.166 -79 278.499c0 76.667 15 147.834 45 213.501s71.667 123.167 125 172.5s115.833 87.666 187.5 114.999s149.5 41 233.5 41c106.667 0 200.167 -22.167 280.5 -66.5
s143.166 -106 188.499 -185s68 -170.833 68 -275.5c0 -8.66699 -0.166992 -16.834 -0.5 -24.501s-1.5 -24.5 -3.5 -50.5h-694c0 -32.667 7.66699 -60.834 23 -84.501s37.5 -41.834 66.5 -54.501s63.5 -19 103.5 -19c37.333 0 69.5 6.66699 96.5 20s58.5 37.333 94.5 72
l298 -148c-48 -84.667 -117.5 -151.167 -208.5 -199.5s-192.5 -72.5 -304.5 -72.5zM501 650.004l280 -0.000976562c-4 27.333 -12 49.833 -24 67.5s-27.667 30.834 -47 39.501s-43 13 -71 13c-29.333 0 -54.166 -4.66699 -74.499 -14s-35.833 -22.833 -46.5 -40.5
s-16.334 -39.5 -17.001 -65.5zM343 1162l-156 210l462 340l462 -340l-156 -210l-306 224z" />
    <glyph glyph-name="edieresis" unicode="&#xeb;" horiz-adv-x="1264" 
d="M658 -32c-113.333 0 -215.166 24.0039 -305.499 72.0039s-161.833 113.167 -214.5 195.5s-79 175.166 -79 278.499c0 76.667 15 147.834 45 213.501s71.667 123.167 125 172.5s115.833 87.666 187.5 114.999s149.5 41 233.5 41c106.667 0 200.167 -22.167 280.5 -66.5
s143.166 -106 188.499 -185s68 -170.833 68 -275.5c0 -8.66699 -0.166992 -16.834 -0.5 -24.501s-1.5 -24.5 -3.5 -50.5h-694c0 -32.667 7.66699 -60.834 23 -84.501s37.5 -41.834 66.5 -54.501s63.5 -19 103.5 -19c37.333 0 69.5 6.66699 96.5 20s58.5 37.333 94.5 72
l298 -148c-48 -84.667 -117.5 -151.167 -208.5 -199.5s-192.5 -72.5 -304.5 -72.5zM501 650.004l280 -0.000976562c-4 27.333 -12 49.833 -24 67.5s-27.667 30.834 -47 39.501s-43 13 -71 13c-29.333 0 -54.166 -4.66699 -74.499 -14s-35.833 -22.833 -46.5 -40.5
s-16.334 -39.5 -17.001 -65.5zM885 1218c-58.667 0 -108.667 20.667 -150 62s-62 91.333 -62 150c0 59.333 20.667 109.5 62 150.5s91.333 61.5 150 61.5c59.333 0 109.5 -20.5 150.5 -61.5s61.5 -91.167 61.5 -150.5c0 -58.667 -20.5 -108.667 -61.5 -150
s-91.167 -62 -150.5 -62zM413 1218c-58.667 0 -108.667 20.667 -150 62s-62 91.333 -62 150c0 59.333 20.667 109.5 62 150.5s91.333 61.5 150 61.5c59.333 0 109.5 -20.5 150.5 -61.5s61.5 -91.167 61.5 -150.5c0 -58.667 -20.5 -108.667 -61.5 -150
s-91.167 -62 -150.5 -62z" />
    <glyph glyph-name="igrave" unicode="&#xec;" horiz-adv-x="730" 
d="M157 0v1024h416v-1024h-416zM475 1075l-436 418l268 205l335 -483z" />
    <glyph glyph-name="iacute" unicode="&#xed;" horiz-adv-x="730" 
d="M157 0v1024h416v-1024h-416zM290 1075l-167 140l335 483l268 -205z" />
    <glyph glyph-name="icircumflex" unicode="&#xee;" horiz-adv-x="730" 
d="M157 0v1024h416v-1024h-416zM59 1130l-156 210l462 340l462 -340l-156 -210l-306 224z" />
    <glyph glyph-name="idieresis" unicode="&#xef;" horiz-adv-x="730" 
d="M157 0v1024h416v-1024h-416zM601 1186c-58.667 0 -108.667 20.667 -150 62s-62 91.333 -62 150c0 59.333 20.667 109.5 62 150.5s91.333 61.5 150 61.5c59.333 0 109.5 -20.5 150.5 -61.5s61.5 -91.167 61.5 -150.5c0 -58.667 -20.5 -108.667 -61.5 -150
s-91.167 -62 -150.5 -62zM129 1186c-58.667 0 -108.667 20.667 -150 62s-62 91.333 -62 150c0 59.333 20.667 109.5 62 150.5s91.333 61.5 150 61.5c59.333 0 109.5 -20.5 150.5 -61.5s61.5 -91.167 61.5 -150.5c0 -58.667 -20.5 -108.667 -61.5 -150
s-91.167 -62 -150.5 -62z" />
    <glyph glyph-name="eth" unicode="&#xf0;" horiz-adv-x="1410" 
d="M695 -32c-127.333 0 -238.336 23.334 -333.003 70.001s-168.167 111 -220.5 193s-78.5 175.667 -78.5 281c0 96.667 19.167 180.167 57.5 250.5s88 128.333 149 174s126.167 79.667 195.5 102s135.333 33.5 198 33.5c5.33301 0 11 -0.166992 17 -0.5
s11 -0.833008 15 -1.5c-34.667 24 -69.5 46.667 -104.5 68l-99.5 62l-168 -166l-178 178l120 118c-41.333 19.333 -81.166 35 -119.499 47s-69.166 20.333 -92.499 25l96 348c54 -12.667 116.167 -30.834 186.5 -54.501s139.5 -52.834 207.5 -87.501l144 142l174 -180
l-94 -94c66.667 -44.667 132.667 -97.167 198 -157.5s124.833 -129.666 178.5 -207.999s96.667 -167 129 -266s48.5 -209.833 48.5 -332.5c0 -105.333 -26.833 -199 -80.5 -281s-127.667 -146.333 -222 -193s-202.166 -70 -323.499 -70zM692.997 322.001
c36 0 67.999 8.16699 95.999 24.5s50 38.833 66 67.5s24 61.334 24 98.001c0 38 -8.5 71.5 -25.5 100.5s-39.667 51.5 -68 67.5s-59.166 24 -92.499 24c-34 0 -65.333 -8 -94 -24s-51.5 -38.5 -68.5 -67.5s-25.5 -62.5 -25.5 -100.5c0 -36.667 7.83301 -69.334 23.5 -98.001
s37.5 -51.167 65.5 -67.5s61 -24.5 99 -24.5z" />
    <glyph glyph-name="ntilde" unicode="&#xf1;" horiz-adv-x="1461" 
d="M157 0v1024h416v-96c47.333 40.667 100.833 72.167 160.5 94.5s120.167 33.5 181.5 33.5c78 0 147.833 -17.667 209.5 -53s110.5 -83.166 146.5 -143.499s54 -128.833 54 -205.5v-654h-416v564c0 51.333 -15.333 92.5 -46 123.5s-71.334 46.5 -122.001 46.5
c-33.333 0 -62.666 -7 -87.999 -21s-45 -33.667 -59 -59s-21 -55.333 -21 -90v-564h-416zM962 1141c-32 0 -65.6729 8.33398 -101.006 25.001s-71.166 35.667 -107.499 57s-72.166 40.333 -107.499 57s-68.666 25 -99.999 25c-42.667 0 -75.667 -15.667 -99 -47
s-40 -64.666 -50 -99.999l-204 179c37.333 78.667 87.333 144.5 150 197.5s128.334 79.5 197.001 79.5c40 0 81.5 -8.33301 124.5 -25s85 -35.667 126 -57l111 -57c33 -16.667 59.167 -25 78.5 -25c26.667 0 53.334 15.667 80.001 47s44.334 64.666 53.001 99.999l203 -179
c-23.333 -52 -56 -98.833 -98 -140.5s-86 -74.834 -132 -99.501s-87.333 -37 -124 -37z" />
    <glyph glyph-name="ograve" unicode="&#xf2;" horiz-adv-x="1366" 
d="M683 -32c-117.333 0 -223.166 23.167 -317.499 69.5s-169 110.333 -224 192s-82.5 175.834 -82.5 282.501s27.5 200.834 82.5 282.501s129.667 145.667 224 192s200.166 69.5 317.499 69.5s223.166 -23.167 317.499 -69.5s169 -110.333 224 -192
s82.5 -175.834 82.5 -282.501s-27.5 -200.834 -82.5 -282.501s-129.667 -145.667 -224 -192s-200.166 -69.5 -317.499 -69.5zM683 320c34 0 65.333 8.16699 94 24.5s51.5 38.833 68.5 67.5s25.5 62 25.5 100s-8.5 71.5 -25.5 100.5s-39.833 51.5 -68.5 67.5s-60 24 -94 24
s-65.333 -8 -94 -24s-51.5 -38.5 -68.5 -67.5s-25.5 -62.5 -25.5 -100.5s8.5 -71.333 25.5 -100s39.833 -51.167 68.5 -67.5s60 -24.5 94 -24.5zM793 1107l-436 418l268 205l335 -483z" />
    <glyph glyph-name="oacute" unicode="&#xf3;" horiz-adv-x="1366" 
d="M683 -32c-117.333 0 -223.166 23.167 -317.499 69.5s-169 110.333 -224 192s-82.5 175.834 -82.5 282.501s27.5 200.834 82.5 282.501s129.667 145.667 224 192s200.166 69.5 317.499 69.5s223.166 -23.167 317.499 -69.5s169 -110.333 224 -192
s82.5 -175.834 82.5 -282.501s-27.5 -200.834 -82.5 -282.501s-129.667 -145.667 -224 -192s-200.166 -69.5 -317.499 -69.5zM683 320c34 0 65.333 8.16699 94 24.5s51.5 38.833 68.5 67.5s25.5 62 25.5 100s-8.5 71.5 -25.5 100.5s-39.833 51.5 -68.5 67.5s-60 24 -94 24
s-65.333 -8 -94 -24s-51.5 -38.5 -68.5 -67.5s-25.5 -62.5 -25.5 -100.5s8.5 -71.333 25.5 -100s39.833 -51.167 68.5 -67.5s60 -24.5 94 -24.5zM608 1107l-167 140l335 483l268 -205z" />
    <glyph glyph-name="ocircumflex" unicode="&#xf4;" horiz-adv-x="1366" 
d="M683 -32c-117.333 0 -223.166 23.167 -317.499 69.5s-169 110.333 -224 192s-82.5 175.834 -82.5 282.501s27.5 200.834 82.5 282.501s129.667 145.667 224 192s200.166 69.5 317.499 69.5s223.166 -23.167 317.499 -69.5s169 -110.333 224 -192
s82.5 -175.834 82.5 -282.501s-27.5 -200.834 -82.5 -282.501s-129.667 -145.667 -224 -192s-200.166 -69.5 -317.499 -69.5zM683 320c34 0 65.333 8.16699 94 24.5s51.5 38.833 68.5 67.5s25.5 62 25.5 100s-8.5 71.5 -25.5 100.5s-39.833 51.5 -68.5 67.5s-60 24 -94 24
s-65.333 -8 -94 -24s-51.5 -38.5 -68.5 -67.5s-25.5 -62.5 -25.5 -100.5s8.5 -71.333 25.5 -100s39.833 -51.167 68.5 -67.5s60 -24.5 94 -24.5zM377 1162l-156 210l462 340l462 -340l-156 -210l-306 224z" />
    <glyph glyph-name="otilde" unicode="&#xf5;" horiz-adv-x="1366" 
d="M683 -32c-117.333 0 -223.166 23.167 -317.499 69.5s-169 110.333 -224 192s-82.5 175.834 -82.5 282.501s27.5 200.834 82.5 282.501s129.667 145.667 224 192s200.166 69.5 317.499 69.5s223.166 -23.167 317.499 -69.5s169 -110.333 224 -192
s82.5 -175.834 82.5 -282.501s-27.5 -200.834 -82.5 -282.501s-129.667 -145.667 -224 -192s-200.166 -69.5 -317.499 -69.5zM683 320c34 0 65.333 8.16699 94 24.5s51.5 38.833 68.5 67.5s25.5 62 25.5 100s-8.5 71.5 -25.5 100.5s-39.833 51.5 -68.5 67.5s-60 24 -94 24
s-65.333 -8 -94 -24s-51.5 -38.5 -68.5 -67.5s-25.5 -62.5 -25.5 -100.5s8.5 -71.333 25.5 -100s39.833 -51.167 68.5 -67.5s60 -24.5 94 -24.5zM890 1141c-32 0 -65.6729 8.33398 -101.006 25.001s-71.166 35.667 -107.499 57s-72.166 40.333 -107.499 57
s-68.666 25 -99.999 25c-42.667 0 -75.667 -15.667 -99 -47s-40 -64.666 -50 -99.999l-204 179c37.333 78.667 87.333 144.5 150 197.5s128.334 79.5 197.001 79.5c40 0 81.5 -8.33301 124.5 -25s85 -35.667 126 -57l111 -57c33 -16.667 59.167 -25 78.5 -25
c26.667 0 53.334 15.667 80.001 47s44.334 64.666 53.001 99.999l203 -179c-23.333 -52 -56 -98.833 -98 -140.5s-86 -74.834 -132 -99.501s-87.333 -37 -124 -37z" />
    <glyph glyph-name="odieresis" unicode="&#xf6;" horiz-adv-x="1366" 
d="M683 -32c-117.333 0 -223.166 23.167 -317.499 69.5s-169 110.333 -224 192s-82.5 175.834 -82.5 282.501s27.5 200.834 82.5 282.501s129.667 145.667 224 192s200.166 69.5 317.499 69.5s223.166 -23.167 317.499 -69.5s169 -110.333 224 -192
s82.5 -175.834 82.5 -282.501s-27.5 -200.834 -82.5 -282.501s-129.667 -145.667 -224 -192s-200.166 -69.5 -317.499 -69.5zM683 320c34 0 65.333 8.16699 94 24.5s51.5 38.833 68.5 67.5s25.5 62 25.5 100s-8.5 71.5 -25.5 100.5s-39.833 51.5 -68.5 67.5s-60 24 -94 24
s-65.333 -8 -94 -24s-51.5 -38.5 -68.5 -67.5s-25.5 -62.5 -25.5 -100.5s8.5 -71.333 25.5 -100s39.833 -51.167 68.5 -67.5s60 -24.5 94 -24.5zM919 1218c-58.667 0 -108.667 20.667 -150 62s-62 91.333 -62 150c0 59.333 20.667 109.5 62 150.5s91.333 61.5 150 61.5
c59.333 0 109.5 -20.5 150.5 -61.5s61.5 -91.167 61.5 -150.5c0 -58.667 -20.5 -108.667 -61.5 -150s-91.167 -62 -150.5 -62zM447 1218c-58.667 0 -108.667 20.667 -150 62s-62 91.333 -62 150c0 59.333 20.667 109.5 62 150.5s91.333 61.5 150 61.5
c59.333 0 109.5 -20.5 150.5 -61.5s61.5 -91.167 61.5 -150.5c0 -58.667 -20.5 -108.667 -61.5 -150s-91.167 -62 -150.5 -62z" />
    <glyph glyph-name="divide" unicode="&#xf7;" horiz-adv-x="1210" 
d="M91 650v360h1028v-360h-1028zM605 206c-50 0 -92.833 18.167 -128.5 54.5s-53.5 80.833 -53.5 133.5c0 53.333 17.833 98 53.5 134s78.5 54 128.5 54s92.833 -18 128.5 -54s53.5 -80.667 53.5 -134c0 -52.667 -17.833 -97.167 -53.5 -133.5s-78.5 -54.5 -128.5 -54.5z
M605 1078c-50 0 -92.833 18.167 -128.5 54.5s-53.5 80.833 -53.5 133.5c0 53.333 17.833 98 53.5 134s78.5 54 128.5 54s92.833 -18 128.5 -54s53.5 -80.667 53.5 -134c0 -52.667 -17.833 -97.167 -53.5 -133.5s-78.5 -54.5 -128.5 -54.5z" />
    <glyph glyph-name="oslash" unicode="&#xf8;" horiz-adv-x="1366" 
d="M683 -32c-117.333 0 -223.166 23.167 -317.499 69.5s-169 110.333 -224 192s-82.5 175.834 -82.5 282.501s27.5 200.834 82.5 282.501s129.667 145.667 224 192s200.166 69.5 317.499 69.5s223.166 -23.167 317.499 -69.5s169 -110.333 224 -192
s82.5 -175.834 82.5 -282.501s-27.5 -200.834 -82.5 -282.501s-129.667 -145.667 -224 -192s-200.166 -69.5 -317.499 -69.5zM683 320c34 0 65.333 8.16699 94 24.5s51.5 38.833 68.5 67.5s25.5 62 25.5 100s-8.5 71.5 -25.5 100.5s-39.833 51.5 -68.5 67.5s-60 24 -94 24
s-65.333 -8 -94 -24s-51.5 -38.5 -68.5 -67.5s-25.5 -62.5 -25.5 -100.5s8.5 -71.333 25.5 -100s39.833 -51.167 68.5 -67.5s60 -24.5 94 -24.5zM151 -32l892 1088h172l-892 -1088h-172z" />
    <glyph glyph-name="ugrave" unicode="&#xf9;" horiz-adv-x="1441" 
d="M720 -32c-208.667 0 -359.499 38.333 -452.499 115s-139.5 200.334 -139.5 371.001v570h416v-466c0 -94 13.167 -159.833 39.5 -197.5s72.166 -56.5 137.499 -56.5c64.667 0 110 18.833 136 56.5s39 103.5 39 197.5v466h416v-570
c0 -170.667 -46.5 -294.334 -139.5 -371.001s-243.833 -115 -452.5 -115zM831.001 1075l-436 418l268 205l335 -483z" />
    <glyph glyph-name="uacute" unicode="&#xfa;" horiz-adv-x="1441" 
d="M720 -32c-208.667 0 -359.499 38.333 -452.499 115s-139.5 200.334 -139.5 371.001v570h416v-466c0 -94 13.167 -159.833 39.5 -197.5s72.166 -56.5 137.499 -56.5c64.667 0 110 18.833 136 56.5s39 103.5 39 197.5v466h416v-570
c0 -170.667 -46.5 -294.334 -139.5 -371.001s-243.833 -115 -452.5 -115zM646.001 1075l-167 140l335 483l268 -205z" />
    <glyph glyph-name="ucircumflex" unicode="&#xfb;" horiz-adv-x="1441" 
d="M720 -32c-208.667 0 -359.499 38.333 -452.499 115s-139.5 200.334 -139.5 371.001v570h416v-466c0 -94 13.167 -159.833 39.5 -197.5s72.166 -56.5 137.499 -56.5c64.667 0 110 18.833 136 56.5s39 103.5 39 197.5v466h416v-570
c0 -170.667 -46.5 -294.334 -139.5 -371.001s-243.833 -115 -452.5 -115zM415.001 1130l-156 210l462 340l462 -340l-156 -210l-306 224z" />
    <glyph glyph-name="udieresis" unicode="&#xfc;" horiz-adv-x="1441" 
d="M720 -32c-208.667 0 -359.499 38.333 -452.499 115s-139.5 200.334 -139.5 371.001v570h416v-466c0 -94 13.167 -159.833 39.5 -197.5s72.166 -56.5 137.499 -56.5c64.667 0 110 18.833 136 56.5s39 103.5 39 197.5v466h416v-570
c0 -170.667 -46.5 -294.334 -139.5 -371.001s-243.833 -115 -452.5 -115zM957.001 1186c-58.667 0 -108.667 20.667 -150 62s-62 91.333 -62 150c0 59.333 20.667 109.5 62 150.5s91.333 61.5 150 61.5c59.333 0 109.5 -20.5 150.5 -61.5s61.5 -91.167 61.5 -150.5
c0 -58.667 -20.5 -108.667 -61.5 -150s-91.167 -62 -150.5 -62zM485.001 1186c-58.667 0 -108.667 20.667 -150 62s-62 91.333 -62 150c0 59.333 20.667 109.5 62 150.5s91.333 61.5 150 61.5c59.333 0 109.5 -20.5 150.5 -61.5s61.5 -91.167 61.5 -150.5
c0 -58.667 -20.5 -108.667 -61.5 -150s-91.167 -62 -150.5 -62z" />
    <glyph glyph-name="yacute" unicode="&#xfd;" horiz-adv-x="1281" 
d="M31 -520l384 718l-486 826h478l252 -432l208 432h478l-836 -1544h-478zM566 1075l-167 140l335 483l268 -205z" />
    <glyph glyph-name="thorn" unicode="&#xfe;" horiz-adv-x="1465" 
d="M157 -520v2240h416v-762c42 32 89 56.333 141 73s109 25 171 25c100.667 0 189 -24.833 265 -74.5s135.167 -115.667 177.5 -198s63.5 -172.833 63.5 -271.5s-21.167 -189.167 -63.5 -271.5s-101.5 -148.333 -177.5 -198s-164.333 -74.5 -265 -74.5
c-62 0 -119.5 11 -172.5 33s-99.5 48.333 -139.5 79v-600h-416zM757 320c40 0 74.499 8.33301 103.499 25s51.333 39.5 67 68.5s23.5 61.833 23.5 98.5c0 37.333 -8.66699 70.5 -26 99.5s-40.666 51.667 -69.999 68s-62 24.5 -98 24.5c-34.667 0 -66.5 -8.16699 -95.5 -24.5
s-52.333 -39 -70 -68s-26.5 -62.167 -26.5 -99.5c0 -36.667 8.16699 -69.5 24.5 -98.5s39 -51.833 68 -68.5s62.167 -25 99.5 -25z" />
    <glyph glyph-name="ydieresis" unicode="&#xff;" horiz-adv-x="1281" 
d="M31 -520l384 718l-486 826h478l252 -432l208 432h478l-836 -1544h-478zM877 1186c-58.667 0 -108.667 20.667 -150 62s-62 91.333 -62 150c0 59.333 20.667 109.5 62 150.5s91.333 61.5 150 61.5c59.333 0 109.5 -20.5 150.5 -61.5s61.5 -91.167 61.5 -150.5
c0 -58.667 -20.5 -108.667 -61.5 -150s-91.167 -62 -150.5 -62zM405 1186c-58.667 0 -108.667 20.667 -150 62s-62 91.333 -62 150c0 59.333 20.667 109.5 62 150.5s91.333 61.5 150 61.5c59.333 0 109.5 -20.5 150.5 -61.5s61.5 -91.167 61.5 -150.5
c0 -58.667 -20.5 -108.667 -61.5 -150s-91.167 -62 -150.5 -62z" />
    <glyph glyph-name="Amacron" unicode="&#x100;" horiz-adv-x="1670" 
d="M-41 0l672 1650h408l672 -1650h-474l-99 274h-606l-99 -274h-474zM682 660h306l-153 392zM427 1874v280h816v-280h-816z" />
    <glyph glyph-name="amacron" unicode="&#x101;" 
d="M579 -32c-93.333 0 -178.332 23.501 -254.999 70.501s-137.667 111.667 -183 194s-68 176.166 -68 281.499c0 102 21.5 193.833 64.5 275.5s102.5 146.5 178.5 194.5s163.667 72 263 72c58.667 0 115.167 -8.5 169.5 -25.5s101.833 -41.167 142.5 -72.5v66h416v-1024
h-416v80c-48.667 -37.333 -98.834 -65.333 -150.501 -84s-105.5 -28 -161.5 -28zM707.001 320.001c37.333 0 70.502 8.33203 99.502 24.999s51.667 39.5 68 68.5s24.5 61.833 24.5 98.5c0 37.333 -8.33301 70.333 -25 99s-39.334 51.334 -68.001 68.001s-61.667 25 -99 25
c-36.667 0 -69.667 -8.33301 -99 -25s-52.5 -39.5 -69.5 -68.5s-25.5 -61.833 -25.5 -98.5s8.33301 -69.5 25 -98.5s39.667 -51.833 69 -68.5s62.666 -25 99.999 -25zM371.003 1280v280h816v-280h-816z" />
    <glyph glyph-name="Abreve" unicode="&#x102;" horiz-adv-x="1670" 
d="M-41 0l672 1650h408l672 -1650h-474l-99 274h-606l-99 -274h-474zM682 660h306l-153 392zM835 1860c-90 0 -169.334 15.833 -238.001 47.5s-123.667 75.667 -165 132s-65.666 121.166 -72.999 194.5l292 72c2 -29.333 9 -59 21 -89s31.167 -55 57.5 -75
s61.5 -30 105.5 -30c44.667 0 80 10 106 30s45.167 45 57.5 75s19.166 59.667 20.499 89l292 -72c-7.33301 -73.333 -31.666 -138.166 -72.999 -194.5c-41.333 -56.333 -96.333 -100.333 -165 -132s-148 -47.5 -238 -47.5z" />
    <glyph glyph-name="abreve" unicode="&#x103;" 
d="M579 -32c-93.333 0 -178.332 23.501 -254.999 70.501s-137.667 111.667 -183 194s-68 176.166 -68 281.499c0 102 21.5 193.833 64.5 275.5s102.5 146.5 178.5 194.5s163.667 72 263 72c58.667 0 115.167 -8.5 169.5 -25.5s101.833 -41.167 142.5 -72.5v66h416v-1024
h-416v80c-48.667 -37.333 -98.834 -65.333 -150.501 -84s-105.5 -28 -161.5 -28zM707.001 320.001c37.333 0 70.502 8.33203 99.502 24.999s51.667 39.5 68 68.5s24.5 61.833 24.5 98.5c0 37.333 -8.33301 70.333 -25 99s-39.334 51.334 -68.001 68.001s-61.667 25 -99 25
c-36.667 0 -69.667 -8.33301 -99 -25s-52.5 -39.5 -69.5 -68.5s-25.5 -61.833 -25.5 -98.5s8.33301 -69.5 25 -98.5s39.667 -51.833 69 -68.5s62.666 -25 99.999 -25zM779.003 1266c-90 0 -169.334 15.833 -238.001 47.5s-123.667 75.667 -165 132
s-65.666 121.166 -72.999 194.499l292 72c2 -29.333 9 -59 21 -89s31.167 -55 57.5 -75s61.5 -30 105.5 -30c44.667 0 80 10 106 30s45.167 45 57.5 75s19.166 59.667 20.499 89l292 -72c-7.33301 -73.333 -31.666 -138.166 -72.999 -194.499s-96.333 -100.333 -165 -132
s-148 -47.5 -238 -47.5z" />
    <glyph glyph-name="Aogonek" unicode="&#x104;" horiz-adv-x="1670" 
d="M-41 0l672 1650h408l672 -1650h-474l-99 274h-606l-99 -274h-474zM682 660h306l-153 392zM1611 -547c-72 0 -132.002 22.001 -180.002 66.001s-72 97 -72 159c0 45.333 14.333 96.5 43 153.5s70 116.5 124 178.5h185c-34.667 -42.667 -62.667 -88.834 -84 -138.501
s-32 -92.5 -32 -128.5c0 -22.667 4.33301 -40 13 -52s21.334 -18 38.001 -18c14 0 27.667 4.33301 41 13s24 20.334 32 35.001l166 -124c-30.667 -44.667 -70.667 -79.834 -120 -105.501s-100.666 -38.5 -153.999 -38.5z" />
    <glyph glyph-name="aogonek" unicode="&#x105;" 
d="M579 -32c-93.333 0 -178.332 23.501 -254.999 70.501s-137.667 111.667 -183 194s-68 176.166 -68 281.499c0 102 21.5 193.833 64.5 275.5s102.5 146.5 178.5 194.5s163.667 72 263 72c58.667 0 115.167 -8.5 169.5 -25.5s101.833 -41.167 142.5 -72.5v66h416v-1024
h-416v80c-48.667 -37.333 -98.834 -65.333 -150.501 -84s-105.5 -28 -161.5 -28zM707.001 320.001c37.333 0 70.502 8.33203 99.502 24.999s51.667 39.5 68 68.5s24.5 61.833 24.5 98.5c0 37.333 -8.33301 70.333 -25 99s-39.334 51.334 -68.001 68.001s-61.667 25 -99 25
c-36.667 0 -69.667 -8.33301 -99 -25s-52.5 -39.5 -69.5 -68.5s-25.5 -61.833 -25.5 -98.5s8.33301 -69.5 25 -98.5s39.667 -51.833 69 -68.5s62.666 -25 99.999 -25zM1207 -557c-72 0 -132.002 22.001 -180.002 66.001s-72 97 -72 159c0 45.333 14.333 96.5 43 153.5
s70 116.5 124 178.5h185c-34.667 -42.667 -62.667 -88.834 -84 -138.501s-32 -92.5 -32 -128.5c0 -22.667 4.33301 -40 13 -52s21.334 -18 38.001 -18c14 0 27.667 4.33301 41 13s24 20.334 32 35.001l166 -124c-30.667 -44.667 -70.667 -79.834 -120 -105.501
s-100.666 -38.5 -153.999 -38.5z" />
    <glyph glyph-name="Cacute" unicode="&#x106;" horiz-adv-x="1476" 
d="M953 -32c-124.667 0 -242.833 22.1641 -354.5 66.4971s-210.5 105.833 -296.5 184.5s-153.5 169.5 -202.5 272.5s-73.5 213.5 -73.5 331.5s24.667 228.833 74 332.5s116.833 194.834 202.5 273.501s184.167 140.167 295.5 184.5s229 66.5 353 66.5
c100 0 196.167 -13.833 288.5 -41.5s169.833 -62.5 232.5 -104.5l-186 -376c-36 27.333 -81.5 49.166 -136.5 65.499s-111.5 24.5 -169.5 24.5c-66.667 0 -128.834 -10.667 -186.501 -32s-108.334 -51.166 -152.001 -89.499s-77.834 -83.166 -102.501 -134.499
s-37 -107.333 -37 -168s12.333 -116.667 37 -168s58.834 -96.166 102.501 -134.499s94.334 -68.166 152.001 -89.499s119.834 -32 186.501 -32c58 0 114.5 8.16699 169.5 24.5s100.5 38.166 136.5 65.499l186 -376c-59.333 -40 -134.833 -74.333 -226.5 -103
s-189.167 -43 -292.5 -43zM876.001 1731l-167 140l335 483l268 -205z" />
    <glyph glyph-name="cacute" unicode="&#x107;" horiz-adv-x="1010" 
d="M639 -32c-78.667 0 -153.164 14.167 -223.497 42.5s-132.5 67.5 -186.5 117.5s-96.5 107.833 -127.5 173.5s-46.5 135.5 -46.5 209.5c0 69.333 14.5 136.5 43.5 201.5s69.667 123.333 122 175s114 92.667 185 123s148.167 45.5 231.5 45.5
c65.333 0 128.666 -9 189.999 -27s108.666 -39.667 141.999 -65l-136 -280c-33.333 22.667 -76 34 -128 34c-49.333 0 -89.5 -11 -120.5 -33s-53.667 -49 -68 -81s-21.5 -62.667 -21.5 -92c0 -36.667 8.5 -70.667 25.5 -102s41.5 -56.5 73.5 -75.5s69.667 -28.5 113 -28.5
c26.667 0 51.167 3.5 73.5 10.5s39.833 14.833 52.5 23.5l136 -280c-34.667 -24.667 -81.834 -46.167 -141.501 -64.5s-122.5 -27.5 -188.5 -27.5zM492.003 1107l-167 140l335 483l268 -205z" />
    <glyph glyph-name="Cdotaccent" unicode="&#x10a;" horiz-adv-x="1476" 
d="M953 -32c-124.667 0 -242.833 22.1641 -354.5 66.4971s-210.5 105.833 -296.5 184.5s-153.5 169.5 -202.5 272.5s-73.5 213.5 -73.5 331.5s24.667 228.833 74 332.5s116.833 194.834 202.5 273.501s184.167 140.167 295.5 184.5s229 66.5 353 66.5
c100 0 196.167 -13.833 288.5 -41.5s169.833 -62.5 232.5 -104.5l-186 -376c-36 27.333 -81.5 49.166 -136.5 65.499s-111.5 24.5 -169.5 24.5c-66.667 0 -128.834 -10.667 -186.501 -32s-108.334 -51.166 -152.001 -89.499s-77.834 -83.166 -102.501 -134.499
s-37 -107.333 -37 -168s12.333 -116.667 37 -168s58.834 -96.166 102.501 -134.499s94.334 -68.166 152.001 -89.499s119.834 -32 186.501 -32c58 0 114.5 8.16699 169.5 24.5s100.5 38.166 136.5 65.499l186 -376c-59.333 -40 -134.833 -74.333 -226.5 -103
s-189.167 -43 -292.5 -43zM952.001 1899c-44 0 -84.333 10.833 -121 32.5s-65.834 50.834 -87.501 87.501s-32.5 77 -32.5 121s10.833 84.167 32.5 120.5s50.834 65.333 87.501 87s77 32.5 121 32.5s84.167 -10.833 120.5 -32.5s65.333 -50.667 87 -87
s32.5 -76.5 32.5 -120.5s-10.833 -84.333 -32.5 -121s-50.667 -65.834 -87 -87.501s-76.5 -32.5 -120.5 -32.5z" />
    <glyph glyph-name="cdotaccent" unicode="&#x10b;" horiz-adv-x="1010" 
d="M639 -32c-78.667 0 -153.164 14.167 -223.497 42.5s-132.5 67.5 -186.5 117.5s-96.5 107.833 -127.5 173.5s-46.5 135.5 -46.5 209.5c0 69.333 14.5 136.5 43.5 201.5s69.667 123.333 122 175s114 92.667 185 123s148.167 45.5 231.5 45.5
c65.333 0 128.666 -9 189.999 -27s108.666 -39.667 141.999 -65l-136 -280c-33.333 22.667 -76 34 -128 34c-49.333 0 -89.5 -11 -120.5 -33s-53.667 -49 -68 -81s-21.5 -62.667 -21.5 -92c0 -36.667 8.5 -70.667 25.5 -102s41.5 -56.5 73.5 -75.5s69.667 -28.5 113 -28.5
c26.667 0 51.167 3.5 73.5 10.5s39.833 14.833 52.5 23.5l136 -280c-34.667 -24.667 -81.834 -46.167 -141.501 -64.5s-122.5 -27.5 -188.5 -27.5zM568.003 1275c-44 0 -84.333 10.833 -121 32.5s-65.834 50.834 -87.501 87.501s-32.5 77 -32.5 121
s10.833 84.167 32.5 120.5s50.834 65.333 87.501 87s77 32.5 121 32.5s84.167 -10.833 120.5 -32.5s65.333 -50.667 87 -87s32.5 -76.5 32.5 -120.5s-10.833 -84.333 -32.5 -121s-50.667 -65.834 -87 -87.501s-76.5 -32.5 -120.5 -32.5z" />
    <glyph glyph-name="Ccaron" unicode="&#x10c;" horiz-adv-x="1476" 
d="M953 -32c-124.667 0 -242.833 22.1641 -354.5 66.4971s-210.5 105.833 -296.5 184.5s-153.5 169.5 -202.5 272.5s-73.5 213.5 -73.5 331.5s24.667 228.833 74 332.5s116.833 194.834 202.5 273.501s184.167 140.167 295.5 184.5s229 66.5 353 66.5
c100 0 196.167 -13.833 288.5 -41.5s169.833 -62.5 232.5 -104.5l-186 -376c-36 27.333 -81.5 49.166 -136.5 65.499s-111.5 24.5 -169.5 24.5c-66.667 0 -128.834 -10.667 -186.501 -32s-108.334 -51.166 -152.001 -89.499s-77.834 -83.166 -102.501 -134.499
s-37 -107.333 -37 -168s12.333 -116.667 37 -168s58.834 -96.166 102.501 -134.499s94.334 -68.166 152.001 -89.499s119.834 -32 186.501 -32c58 0 114.5 8.16699 169.5 24.5s100.5 38.166 136.5 65.499l186 -376c-59.333 -40 -134.833 -74.333 -226.5 -103
s-189.167 -43 -292.5 -43zM951.001 1786l-462 340l156 210l306 -224l306 224l156 -210z" />
    <glyph glyph-name="ccaron" unicode="&#x10d;" horiz-adv-x="1010" 
d="M639 -32c-78.667 0 -153.164 14.167 -223.497 42.5s-132.5 67.5 -186.5 117.5s-96.5 107.833 -127.5 173.5s-46.5 135.5 -46.5 209.5c0 69.333 14.5 136.5 43.5 201.5s69.667 123.333 122 175s114 92.667 185 123s148.167 45.5 231.5 45.5
c65.333 0 128.666 -9 189.999 -27s108.666 -39.667 141.999 -65l-136 -280c-33.333 22.667 -76 34 -128 34c-49.333 0 -89.5 -11 -120.5 -33s-53.667 -49 -68 -81s-21.5 -62.667 -21.5 -92c0 -36.667 8.5 -70.667 25.5 -102s41.5 -56.5 73.5 -75.5s69.667 -28.5 113 -28.5
c26.667 0 51.167 3.5 73.5 10.5s39.833 14.833 52.5 23.5l136 -280c-34.667 -24.667 -81.834 -46.167 -141.501 -64.5s-122.5 -27.5 -188.5 -27.5zM567.003 1162l-462 340l156 210l306 -224l306 224l156 -210z" />
    <glyph glyph-name="Dcaron" unicode="&#x10e;" horiz-adv-x="1594" 
d="M196 0l-0.000976562 1650h508c117.333 0 226.333 -21 327 -63s188.834 -100.667 264.501 -176s134.667 -163.166 177 -263.499s63.5 -208.5 63.5 -324.5s-21 -224 -63 -324s-100.833 -187.333 -176.5 -262s-164 -132.834 -265 -174.501s-210.167 -62.5 -327.5 -62.5h-508
zM635.999 394l16 -0.00195312c60 0 114.833 10.5 164.5 31.5s92.667 50.667 129 89s64.5 83.833 84.5 136.5s30 110.667 30 174c0 62.667 -10 120.334 -30 173.001s-48.167 98.334 -84.5 137.001s-79.333 68.5 -129 89.5s-104.5 31.5 -164.5 31.5h-16v-862zM796.999 1756
l-462 340l156 210l306 -224l306 224l156 -210z" />
    <glyph glyph-name="dcaron" unicode="&#x10f;" 
d="M574 -32c-90.667 0 -174 23 -250 69s-136.833 110 -182.5 192s-68.5 176.333 -68.5 283c0 103.333 22 196 66 278s104.5 146.833 181.5 194.5s165.167 71.5 264.5 71.5c58.667 0 114.334 -8.5 167.001 -25.5s99 -41.167 139 -72.5v762h416v-1720h-416v80
c-46.667 -36 -96.834 -63.667 -150.501 -83s-109.167 -29 -166.5 -29zM704 320c38 0 71.667 8.33105 101 24.998s52.333 39.334 69 68.001s25 61 25 97c0 37.333 -8.5 70.5 -25.5 99.5s-40 52 -69 69s-61.833 25.5 -98.5 25.5s-69.5 -8.5 -98.5 -25.5s-52 -40.167 -69 -69.5
s-25.5 -62.666 -25.5 -99.999c0 -36 8 -68.333 24 -97s38.5 -51.167 67.5 -67.5s62.167 -24.5 99.5 -24.5zM632 1653l-462 340l156 210l306 -224l306 224l156 -210z" />
    <glyph glyph-name="Dcroat" unicode="&#x110;" horiz-adv-x="1645" 
d="M247 0v646h-164v358h164v646h508c113.333 0 220 -20.333 320 -61s188.5 -98 265.5 -172s137.333 -161.333 181 -262s65.5 -211 65.5 -331c0 -120.667 -21.833 -231.167 -65.5 -331.5s-103.834 -187.333 -180.501 -261s-165.167 -130.667 -265.5 -171
s-207.166 -60.5 -320.499 -60.5h-508zM687 394h15.999c62.667 0 119 11.167 169 33.5s92.833 53.166 128.5 92.499s63 85 82 137s28.5 107.667 28.5 167s-9.16699 115 -27.5 167s-45.166 97.833 -80.499 137.5s-78.333 70.834 -129 93.501s-107.667 34 -171 34h-16v-252h154
v-358h-154v-252z" />
    <glyph glyph-name="dcroat" unicode="&#x111;" 
d="M579 -32c-100.667 0 -189 24.833 -265 74.5s-135.167 115.667 -177.5 198s-63.5 172.833 -63.5 271.5v0c0 98.667 21.167 189.167 63.5 271.5s101.5 148.333 177.5 198s164.333 74.5 265 74.5c62 0 119 -8.33301 171 -25s99 -41 141 -73v280h-206v264h206v218h416v-218
h102v-264h-102v-1238h-416v80c-40 -30.667 -86.5 -57 -139.5 -79s-110.5 -33 -172.5 -33zM707 320c37.333 0 70.499 8.33301 99.499 25s51.667 39.5 68 68.5s24.5 61.833 24.5 98.5c0 37.333 -8.83301 70.5 -26.5 99.5s-41 51.667 -70 68s-60.833 24.5 -95.5 24.5
c-36 0 -68.667 -8.16699 -98 -24.5s-52.666 -39 -69.999 -68s-26 -62.167 -26 -99.5v0c0 -36.667 7.83301 -69.5 23.5 -98.5s38 -51.833 67 -68.5s63.5 -25 103.5 -25z" />
    <glyph glyph-name="Emacron" unicode="&#x112;" horiz-adv-x="1340" 
d="M196 0v1650h976v-386h-536v-244h512v-386h-512v-248h536v-386h-976zM262 1874v280h816v-280h-816z" />
    <glyph glyph-name="emacron" unicode="&#x113;" horiz-adv-x="1264" 
d="M658 -32c-113.333 0 -215.166 24.0039 -305.499 72.0039s-161.833 113.167 -214.5 195.5s-79 175.166 -79 278.499c0 76.667 15 147.834 45 213.501s71.667 123.167 125 172.5s115.833 87.666 187.5 114.999s149.5 41 233.5 41c106.667 0 200.167 -22.167 280.5 -66.5
s143.166 -106 188.499 -185s68 -170.833 68 -275.5c0 -8.66699 -0.166992 -16.834 -0.5 -24.501s-1.5 -24.5 -3.5 -50.5h-694c0 -32.667 7.66699 -60.834 23 -84.501s37.5 -41.834 66.5 -54.501s63.5 -19 103.5 -19c37.333 0 69.5 6.66699 96.5 20s58.5 37.333 94.5 72
l298 -148c-48 -84.667 -117.5 -151.167 -208.5 -199.5s-192.5 -72.5 -304.5 -72.5zM501 650.004l280 -0.000976562c-4 27.333 -12 49.833 -24 67.5s-27.667 30.834 -47 39.501s-43 13 -71 13c-29.333 0 -54.166 -4.66699 -74.499 -14s-35.833 -22.833 -46.5 -40.5
s-16.334 -39.5 -17.001 -65.5zM241 1280v280h816v-280h-816z" />
    <glyph glyph-name="Edotaccent" unicode="&#x116;" horiz-adv-x="1340" 
d="M196 0v1650h976v-386h-536v-244h512v-386h-512v-248h536v-386h-976zM671 1869c-44 0 -84.333 10.833 -121 32.5s-65.834 50.834 -87.501 87.501s-32.5 77 -32.5 121s10.833 84.167 32.5 120.5s50.834 65.333 87.501 87s77 32.5 121 32.5s84.167 -10.833 120.5 -32.5
s65.333 -50.667 87 -87s32.5 -76.5 32.5 -120.5s-10.833 -84.333 -32.5 -121s-50.667 -65.834 -87 -87.501s-76.5 -32.5 -120.5 -32.5z" />
    <glyph glyph-name="edotaccent" unicode="&#x117;" horiz-adv-x="1264" 
d="M658 -32c-113.333 0 -215.166 24.0039 -305.499 72.0039s-161.833 113.167 -214.5 195.5s-79 175.166 -79 278.499c0 76.667 15 147.834 45 213.501s71.667 123.167 125 172.5s115.833 87.666 187.5 114.999s149.5 41 233.5 41c106.667 0 200.167 -22.167 280.5 -66.5
s143.166 -106 188.499 -185s68 -170.833 68 -275.5c0 -8.66699 -0.166992 -16.834 -0.5 -24.501s-1.5 -24.5 -3.5 -50.5h-694c0 -32.667 7.66699 -60.834 23 -84.501s37.5 -41.834 66.5 -54.501s63.5 -19 103.5 -19c37.333 0 69.5 6.66699 96.5 20s58.5 37.333 94.5 72
l298 -148c-48 -84.667 -117.5 -151.167 -208.5 -199.5s-192.5 -72.5 -304.5 -72.5zM501 650.004l280 -0.000976562c-4 27.333 -12 49.833 -24 67.5s-27.667 30.834 -47 39.501s-43 13 -71 13c-29.333 0 -54.166 -4.66699 -74.499 -14s-35.833 -22.833 -46.5 -40.5
s-16.334 -39.5 -17.001 -65.5zM650 1275c-44 0 -84.333 10.833 -121 32.5s-65.834 50.834 -87.501 87.501s-32.5 77 -32.5 121s10.833 84.167 32.5 120.5s50.834 65.333 87.501 87s77 32.5 121 32.5s84.167 -10.833 120.5 -32.5s65.333 -50.667 87 -87
s32.5 -76.5 32.5 -120.5s-10.833 -84.333 -32.5 -121s-50.667 -65.834 -87 -87.501s-76.5 -32.5 -120.5 -32.5z" />
    <glyph glyph-name="Eogonek" unicode="&#x118;" horiz-adv-x="1340" 
d="M196 0v1650h976v-386h-536v-244h512v-386h-512v-248h536v-386h-976zM1072 -557c-72 0 -132.002 22.001 -180.002 66.001s-72 97 -72 159c0 45.333 14.333 96.5 43 153.5s70 116.5 124 178.5h185c-34.667 -42.667 -62.667 -88.834 -84 -138.501s-32 -92.5 -32 -128.5
c0 -22.667 4.33301 -40 13 -52s21.334 -18 38.001 -18c14 0 27.667 4.33301 41 13s24 20.334 32 35.001l166 -124c-30.667 -44.667 -70.667 -79.834 -120 -105.501s-100.666 -38.5 -153.999 -38.5z" />
    <glyph glyph-name="eogonek" unicode="&#x119;" horiz-adv-x="1264" 
d="M658 -32c-113.333 0 -215.166 24.0039 -305.499 72.0039s-161.833 113.167 -214.5 195.5s-79 175.166 -79 278.499c0 76.667 15 147.834 45 213.501s71.667 123.167 125 172.5s115.833 87.666 187.5 114.999s149.5 41 233.5 41c106.667 0 200.167 -22.167 280.5 -66.5
s143.166 -106 188.499 -185s68 -170.833 68 -275.5c0 -8.66699 -0.166992 -16.834 -0.5 -24.501s-1.5 -24.5 -3.5 -50.5h-694c0 -32.667 7.66699 -60.834 23 -84.501s37.5 -41.834 66.5 -54.501s63.5 -19 103.5 -19c37.333 0 69.5 6.66699 96.5 20s58.5 37.333 94.5 72
l298 -148c-48 -84.667 -117.5 -151.167 -208.5 -199.5s-192.5 -72.5 -304.5 -72.5zM501 650.004l280 -0.000976562c-4 27.333 -12 49.833 -24 67.5s-27.667 30.834 -47 39.501s-43 13 -71 13c-29.333 0 -54.166 -4.66699 -74.499 -14s-35.833 -22.833 -46.5 -40.5
s-16.334 -39.5 -17.001 -65.5zM655 -546.997c-72 0 -132.002 22.001 -180.002 66.001s-72 97 -72 159c0 45.333 14.333 96.5 43 153.5s70 116.5 124 178.5h185c-34.667 -42.667 -62.667 -88.834 -84 -138.501s-32 -92.5 -32 -128.5c0 -22.667 4.33301 -40 13 -52
s21.334 -18 38.001 -18c14 0 27.667 4.33301 41 13s24 20.334 32 35.001l166 -124c-30.667 -44.667 -70.667 -79.834 -120 -105.501s-100.666 -38.5 -153.999 -38.5z" />
    <glyph glyph-name="Ecaron" unicode="&#x11a;" horiz-adv-x="1340" 
d="M196 0v1650h976v-386h-536v-244h512v-386h-512v-248h536v-386h-976zM670 1756l-462 340l156 210l306 -224l306 224l156 -210z" />
    <glyph glyph-name="ecaron" unicode="&#x11b;" horiz-adv-x="1264" 
d="M658 -32c-113.333 0 -215.166 24.0039 -305.499 72.0039s-161.833 113.167 -214.5 195.5s-79 175.166 -79 278.499c0 76.667 15 147.834 45 213.501s71.667 123.167 125 172.5s115.833 87.666 187.5 114.999s149.5 41 233.5 41c106.667 0 200.167 -22.167 280.5 -66.5
s143.166 -106 188.499 -185s68 -170.833 68 -275.5c0 -8.66699 -0.166992 -16.834 -0.5 -24.501s-1.5 -24.5 -3.5 -50.5h-694c0 -32.667 7.66699 -60.834 23 -84.501s37.5 -41.834 66.5 -54.501s63.5 -19 103.5 -19c37.333 0 69.5 6.66699 96.5 20s58.5 37.333 94.5 72
l298 -148c-48 -84.667 -117.5 -151.167 -208.5 -199.5s-192.5 -72.5 -304.5 -72.5zM501 650.004l280 -0.000976562c-4 27.333 -12 49.833 -24 67.5s-27.667 30.834 -47 39.501s-43 13 -71 13c-29.333 0 -54.166 -4.66699 -74.499 -14s-35.833 -22.833 -46.5 -40.5
s-16.334 -39.5 -17.001 -65.5zM649 1162l-462 340l156 210l306 -224l306 224l156 -210z" />
    <glyph glyph-name="Gbreve" unicode="&#x11e;" horiz-adv-x="1697" 
d="M869 -32c-112.667 0 -217.667 21.4971 -315 64.4971s-182.666 103.167 -255.999 180.5s-130.5 168.166 -171.5 272.499s-61.5 217.833 -61.5 340.5c0 119.333 20 230.833 60 334.5s97 194.334 171 272.001s162.333 138.334 265 182.001s216.667 65.5 342 65.5
c63.333 0 130.5 -6.16699 201.5 -18.5s141.333 -31.5 211 -57.5s133.834 -59.333 192.501 -100l-202 -342c-54.667 41.333 -119 72.5 -193 93.5s-141.333 31.5 -202 31.5s-114 -10.167 -160 -30.5s-84.667 -49.666 -116 -87.999s-54.833 -84.666 -70.5 -138.999
s-23.5 -115.5 -23.5 -183.5c0 -74.667 9 -141.167 27 -199.5s42.833 -107.833 74.5 -148.5s69 -71.5 112 -92.5s89.5 -31.5 139.5 -31.5c40 0 77.5 6.33301 112.5 19s65.667 30.167 92 52.5s47 47.833 62 76.5s22.5 58.667 22.5 90v2h-314v338h762v-320
c0 -89.333 -20.167 -174 -60.5 -254s-95.833 -150.833 -166.5 -212.5s-151.834 -110 -243.501 -145s-188.834 -52.5 -291.501 -52.5zM903 1890c-90 0 -169.334 15.832 -238.001 47.499s-123.667 75.667 -165 132s-65.666 121.166 -72.999 194.5l292 72
c2 -29.333 9 -59 21 -89s31.167 -55 57.5 -75s61.5 -30 105.5 -30c44.667 0 80 10 106 30s45.167 45 57.5 75s19.166 59.667 20.499 89l292 -72c-7.33301 -73.333 -31.666 -138.166 -72.999 -194.499s-96.333 -100.333 -165 -132s-148 -47.5 -238 -47.5z" />
    <glyph glyph-name="gbreve" unicode="&#x11f;" 
d="M679 -550c-144 0 -264.499 25.167 -361.499 75.5s-166.5 124.5 -208.5 222.5l336 166c25.333 -32 59.166 -57.333 101.499 -76s85.833 -28 130.5 -28c44 0 82 9 114 27s56.667 42 74 72s26 63 26 99v72c-46.667 -36 -96.834 -63.667 -150.501 -83
s-109.167 -29 -166.5 -29c-90.667 0 -174 23 -250 69s-136.833 110 -182.5 192s-68.5 176.333 -68.5 283c0 103.333 22 196 66 278s104.5 146.833 181.5 194.5s165.167 71.5 264.5 71.5c58.667 0 114.334 -8.5 167.001 -25.5s99 -41.167 139 -72.5v66h416v-1052
c0 -92 -21.333 -177.667 -64 -257s-110.167 -143.333 -202.5 -192s-212.833 -73 -361.5 -73zM704.001 320c38 0 71.667 8.33105 101 24.998s52.333 39.334 69 68.001s25 61 25 97c0 37.333 -8.5 70.5 -25.5 99.5s-40 52 -69 69s-61.833 25.5 -98.5 25.5
s-69.5 -8.5 -98.5 -25.5s-52 -40.167 -69 -69.5s-25.5 -62.666 -25.5 -99.999c0 -36 8 -68.333 24 -97s38.5 -51.167 67.5 -67.5s62.167 -24.5 99.5 -24.5zM732.001 1234c-90 0 -169.334 15.833 -238.001 47.5s-123.667 75.667 -165 132s-65.666 121.166 -72.999 194.499
l292 72c2 -29.333 9 -59 21 -89s31.167 -55 57.5 -75s61.5 -30 105.5 -30c44.667 0 80 10 106 30s45.167 45 57.5 75s19.166 59.667 20.499 89l292 -72c-7.33301 -73.333 -31.666 -138.166 -72.999 -194.499s-96.333 -100.333 -165 -132s-148 -47.5 -238 -47.5z" />
    <glyph glyph-name="Gdotaccent" unicode="&#x120;" horiz-adv-x="1697" 
d="M869 -32c-112.667 0 -217.667 21.4971 -315 64.4971s-182.666 103.167 -255.999 180.5s-130.5 168.166 -171.5 272.499s-61.5 217.833 -61.5 340.5c0 119.333 20 230.833 60 334.5s97 194.334 171 272.001s162.333 138.334 265 182.001s216.667 65.5 342 65.5
c63.333 0 130.5 -6.16699 201.5 -18.5s141.333 -31.5 211 -57.5s133.834 -59.333 192.501 -100l-202 -342c-54.667 41.333 -119 72.5 -193 93.5s-141.333 31.5 -202 31.5s-114 -10.167 -160 -30.5s-84.667 -49.666 -116 -87.999s-54.833 -84.666 -70.5 -138.999
s-23.5 -115.5 -23.5 -183.5c0 -74.667 9 -141.167 27 -199.5s42.833 -107.833 74.5 -148.5s69 -71.5 112 -92.5s89.5 -31.5 139.5 -31.5c40 0 77.5 6.33301 112.5 19s65.667 30.167 92 52.5s47 47.833 62 76.5s22.5 58.667 22.5 90v2h-314v338h762v-320
c0 -89.333 -20.167 -174 -60.5 -254s-95.833 -150.833 -166.5 -212.5s-151.834 -110 -243.501 -145s-188.834 -52.5 -291.501 -52.5zM904 1899c-44 0 -84.333 10.833 -121 32.5s-65.834 50.834 -87.501 87.501s-32.5 77 -32.5 121s10.833 84.167 32.5 120.5
s50.834 65.333 87.501 87s77 32.5 121 32.5s84.167 -10.833 120.5 -32.5s65.333 -50.667 87 -87s32.5 -76.5 32.5 -120.5s-10.833 -84.333 -32.5 -121s-50.667 -65.834 -87 -87.501s-76.5 -32.5 -120.5 -32.5z" />
    <glyph glyph-name="gdotaccent" unicode="&#x121;" 
d="M679 -550c-144 0 -264.499 25.167 -361.499 75.5s-166.5 124.5 -208.5 222.5l336 166c25.333 -32 59.166 -57.333 101.499 -76s85.833 -28 130.5 -28c44 0 82 9 114 27s56.667 42 74 72s26 63 26 99v72c-46.667 -36 -96.834 -63.667 -150.501 -83
s-109.167 -29 -166.5 -29c-90.667 0 -174 23 -250 69s-136.833 110 -182.5 192s-68.5 176.333 -68.5 283c0 103.333 22 196 66 278s104.5 146.833 181.5 194.5s165.167 71.5 264.5 71.5c58.667 0 114.334 -8.5 167.001 -25.5s99 -41.167 139 -72.5v66h416v-1052
c0 -92 -21.333 -177.667 -64 -257s-110.167 -143.333 -202.5 -192s-212.833 -73 -361.5 -73zM704.001 320c38 0 71.667 8.33105 101 24.998s52.333 39.334 69 68.001s25 61 25 97c0 37.333 -8.5 70.5 -25.5 99.5s-40 52 -69 69s-61.833 25.5 -98.5 25.5
s-69.5 -8.5 -98.5 -25.5s-52 -40.167 -69 -69.5s-25.5 -62.666 -25.5 -99.999c0 -36 8 -68.333 24 -97s38.5 -51.167 67.5 -67.5s62.167 -24.5 99.5 -24.5zM733.001 1243c-44 0 -84.333 10.833 -121 32.5s-65.834 50.834 -87.501 87.501s-32.5 77 -32.5 121
s10.833 84.167 32.5 120.5s50.834 65.333 87.501 87s77 32.5 121 32.5s84.167 -10.833 120.5 -32.5s65.333 -50.667 87 -87s32.5 -76.5 32.5 -120.5s-10.833 -84.333 -32.5 -121s-50.667 -65.834 -87 -87.501s-76.5 -32.5 -120.5 -32.5z" />
    <glyph glyph-name="uni0122" unicode="&#x122;" horiz-adv-x="1697" 
d="M869 -32c-112.667 0 -217.667 21.4971 -315 64.4971s-182.666 103.167 -255.999 180.5s-130.5 168.166 -171.5 272.499s-61.5 217.833 -61.5 340.5c0 119.333 20 230.833 60 334.5s97 194.334 171 272.001s162.333 138.334 265 182.001s216.667 65.5 342 65.5
c63.333 0 130.5 -6.16699 201.5 -18.5s141.333 -31.5 211 -57.5s133.834 -59.333 192.501 -100l-202 -342c-54.667 41.333 -119 72.5 -193 93.5s-141.333 31.5 -202 31.5s-114 -10.167 -160 -30.5s-84.667 -49.666 -116 -87.999s-54.833 -84.666 -70.5 -138.999
s-23.5 -115.5 -23.5 -183.5c0 -74.667 9 -141.167 27 -199.5s42.833 -107.833 74.5 -148.5s69 -71.5 112 -92.5s89.5 -31.5 139.5 -31.5c40 0 77.5 6.33301 112.5 19s65.667 30.167 92 52.5s47 47.833 62 76.5s22.5 58.667 22.5 90v2h-314v338h762v-320
c0 -89.333 -20.167 -174 -60.5 -254s-95.833 -150.833 -166.5 -212.5s-151.834 -110 -243.501 -145s-188.834 -52.5 -291.501 -52.5zM881 -553.003l-59 48.001c16 13.333 33 36.166 51 68.499s29.333 59.833 34 82.5c-29.333 8 -52.666 22.5 -69.999 43.5
s-26 46.833 -26 77.5c0 37.333 12.167 67.833 36.5 91.5s55.833 35.5 94.5 35.5c37.333 0 68.166 -11.5 92.499 -34.5s36.5 -56.833 36.5 -101.5c0 -49.333 -16.5 -101 -49.5 -155s-79.833 -106 -140.5 -156z" />
    <glyph glyph-name="uni0123" unicode="&#x123;" 
d="M679 -550c-144 0 -264.499 25.167 -361.499 75.5s-166.5 124.5 -208.5 222.5l336 166c25.333 -32 59.166 -57.333 101.499 -76s85.833 -28 130.5 -28c44 0 82 9 114 27s56.667 42 74 72s26 63 26 99v72c-46.667 -36 -96.834 -63.667 -150.501 -83
s-109.167 -29 -166.5 -29c-90.667 0 -174 23 -250 69s-136.833 110 -182.5 192s-68.5 176.333 -68.5 283c0 103.333 22 196 66 278s104.5 146.833 181.5 194.5s165.167 71.5 264.5 71.5c58.667 0 114.334 -8.5 167.001 -25.5s99 -41.167 139 -72.5v66h416v-1052
c0 -92 -21.333 -177.667 -64 -257s-110.167 -143.333 -202.5 -192s-212.833 -73 -361.5 -73zM704.001 320c38 0 71.667 8.33105 101 24.998s52.333 39.334 69 68.001s25 61 25 97c0 37.333 -8.5 70.5 -25.5 99.5s-40 52 -69 69s-61.833 25.5 -98.5 25.5
s-69.5 -8.5 -98.5 -25.5s-52 -40.167 -69 -69.5s-25.5 -62.666 -25.5 -99.999c0 -36 8 -68.333 24 -97s38.5 -51.167 67.5 -67.5s62.167 -24.5 99.5 -24.5zM752.001 1300c-55.333 0 -99.165 12.166 -131.498 36.499s-48.5 57.5 -48.5 99.5c0 49.333 21.667 101 65 155
s104.666 106 183.999 156l108 -48c-20.667 -12.667 -43 -35.167 -67 -67.5s-39 -60.166 -45 -83.499c39.333 -8 70.166 -22.833 92.499 -44.5s33.5 -47.167 33.5 -76.5c0 -37.333 -17.833 -67.833 -53.5 -91.5s-81.5 -35.5 -137.5 -35.5z" />
    <glyph glyph-name="Hbar" unicode="&#x126;" horiz-adv-x="1696" 
d="M196 0v1650h440v-776h424v776h440v-1650h-440v580h-424v-580h-440zM66 1064v294h1564v-294h-1564z" />
    <glyph glyph-name="hbar" unicode="&#x127;" horiz-adv-x="1461" 
d="M157 0v1720h416v-792c47.333 40.667 100.833 72.167 160.5 94.5s120.167 33.5 181.5 33.5c78 0 147.833 -17.667 209.5 -53s110.5 -83.166 146.5 -143.499s54 -128.833 54 -205.5v-654h-416v564c0 51.333 -15.333 92.5 -46 123.5s-71.334 46.5 -122.001 46.5
c-33.333 0 -62.666 -7 -87.999 -21s-45 -33.667 -59 -59s-21 -55.333 -21 -90v-564h-416zM20 1218v246h780v-246h-780z" />
    <glyph glyph-name="Imacron" unicode="&#x12a;" horiz-adv-x="832" 
d="M196 0v1650h440v-1650h-440zM8 1874v280h816v-280h-816z" />
    <glyph glyph-name="imacron" unicode="&#x12b;" horiz-adv-x="730" 
d="M157 0v1024h416v-1024h-416zM-43 1248v280h816v-280h-816z" />
    <glyph glyph-name="Iogonek" unicode="&#x12e;" horiz-adv-x="832" 
d="M196 0v1650h440v-1650h-440zM536 -557c-72 0 -132.002 22.001 -180.002 66.001s-72 97 -72 159c0 45.333 14.333 96.5 43 153.5s70 116.5 124 178.5h185c-34.667 -42.667 -62.667 -88.834 -84 -138.501s-32 -92.5 -32 -128.5c0 -22.667 4.33301 -40 13 -52
s21.334 -18 38.001 -18c14 0 27.667 4.33301 41 13s24 20.334 32 35.001l166 -124c-30.667 -44.667 -70.667 -79.834 -120 -105.501s-100.666 -38.5 -153.999 -38.5z" />
    <glyph glyph-name="iogonek" unicode="&#x12f;" horiz-adv-x="730" 
d="M157 0v1024h416v-1024h-416zM366 1243c-44 0 -84.333 10.833 -121 32.5s-65.834 50.834 -87.501 87.501s-32.5 77 -32.5 121s10.833 84.167 32.5 120.5s50.834 65.333 87.501 87s77 32.5 121 32.5s84.167 -10.833 120.5 -32.5s65.333 -50.667 87 -87
s32.5 -76.5 32.5 -120.5s-10.833 -84.333 -32.5 -121s-50.667 -65.834 -87 -87.501s-76.5 -32.5 -120.5 -32.5zM473 -557c-72 0 -132.002 22.001 -180.002 66.001s-72 97 -72 159c0 45.333 14.333 96.5 43 153.5s70 116.5 124 178.5h185
c-34.667 -42.667 -62.667 -88.834 -84 -138.501s-32 -92.5 -32 -128.5c0 -22.667 4.33301 -40 13 -52s21.334 -18 38.001 -18c14 0 27.667 4.33301 41 13s24 20.334 32 35.001l166 -124c-30.667 -44.667 -70.667 -79.834 -120 -105.501s-100.666 -38.5 -153.999 -38.5z" />
    <glyph glyph-name="Idotaccent" unicode="&#x130;" horiz-adv-x="832" 
d="M196 0v1650h440v-1650h-440zM417 1869c-44 0 -84.333 10.833 -121 32.5s-65.834 50.834 -87.501 87.501s-32.5 77 -32.5 121s10.833 84.167 32.5 120.5s50.834 65.333 87.501 87s77 32.5 121 32.5s84.167 -10.833 120.5 -32.5s65.333 -50.667 87 -87
s32.5 -76.5 32.5 -120.5s-10.833 -84.333 -32.5 -121s-50.667 -65.834 -87 -87.501s-76.5 -32.5 -120.5 -32.5z" />
    <glyph glyph-name="dotlessi" unicode="&#x131;" horiz-adv-x="730" 
d="M157 0v1024h416v-1024h-416z" />
    <glyph glyph-name="uni0136" unicode="&#x136;" horiz-adv-x="1740" 
d="M196 0v1650h440v-642l514 642h534l-640 -778l750 -872h-606l-552 662v-662h-440zM805 -547l-59 48.001c16 13.333 33 36.166 51 68.499s29.333 59.833 34 82.5c-29.333 8 -52.666 22.5 -69.999 43.5s-26 46.833 -26 77.5c0 37.333 12.167 67.833 36.5 91.5
s55.833 35.5 94.5 35.5c37.333 0 68.166 -11.5 92.499 -34.5s36.5 -56.833 36.5 -101.5c0 -49.333 -16.5 -101 -49.5 -155s-79.833 -106 -140.5 -156z" />
    <glyph glyph-name="uni0137" unicode="&#x137;" horiz-adv-x="1426" 
d="M157 0v1720h416v-1040l358 344h538l-524 -516l546 -508h-534l-384 350v-350h-416zM653 -547l-59 48.001c16 13.333 33 36.166 51 68.499s29.333 59.833 34 82.5c-29.333 8 -52.666 22.5 -69.999 43.5s-26 46.833 -26 77.5c0 37.333 12.167 67.833 36.5 91.5
s55.833 35.5 94.5 35.5c37.333 0 68.166 -11.5 92.499 -34.5s36.5 -56.833 36.5 -101.5c0 -49.333 -16.5 -101 -49.5 -155s-79.833 -106 -140.5 -156z" />
    <glyph glyph-name="Lacute" unicode="&#x139;" horiz-adv-x="1157" 
d="M196 0v1650h440v-1264h532v-386h-972zM676 1701l-167 140l335 483l268 -205z" />
    <glyph glyph-name="lacute" unicode="&#x13a;" horiz-adv-x="730" 
d="M157 0v1720h416v-1720h-416zM290 1771l-167 140l335 483l268 -205z" />
    <glyph glyph-name="uni013B" unicode="&#x13b;" horiz-adv-x="1157" 
d="M196 0v1650h440v-1264h532v-386h-972zM662 -547l-59 48.001c16 13.333 33 36.166 51 68.499s29.333 59.833 34 82.5c-29.333 8 -52.666 22.5 -69.999 43.5s-26 46.833 -26 77.5c0 37.333 12.167 67.833 36.5 91.5s55.833 35.5 94.5 35.5
c37.333 0 68.166 -11.5 92.499 -34.5s36.5 -56.833 36.5 -101.5c0 -49.333 -16.5 -101 -49.5 -155s-79.833 -106 -140.5 -156z" />
    <glyph glyph-name="uni013C" unicode="&#x13c;" horiz-adv-x="730" 
d="M157 0v1720h416v-1720h-416zM305 -547l-59 48.001c16 13.333 33 36.166 51 68.499s29.333 59.833 34 82.5c-29.333 8 -52.666 22.5 -69.999 43.5s-26 46.833 -26 77.5c0 37.333 12.167 67.833 36.5 91.5s55.833 35.5 94.5 35.5c37.333 0 68.166 -11.5 92.499 -34.5
s36.5 -56.833 36.5 -101.5c0 -49.333 -16.5 -101 -49.5 -155s-79.833 -106 -140.5 -156z" />
    <glyph glyph-name="Lcaron" unicode="&#x13d;" horiz-adv-x="1157" 
d="M196 0v1650h440v-1264h532v-386h-972zM751 1756l-462 340l156 210l306 -224l306 224l156 -210z" />
    <glyph glyph-name="lcaron" unicode="&#x13e;" horiz-adv-x="730" 
d="M157 0v1720h416v-1720h-416zM365 1826l-462 340l156 210l306 -224l306 224l156 -210z" />
    <glyph glyph-name="Lslash" unicode="&#x141;" horiz-adv-x="1202" 
d="M241 0v594l-148 -116v358l148 116v698h440v-352l208 164v-358l-208 -164v-554h532v-386h-972z" />
    <glyph glyph-name="lslash" unicode="&#x142;" horiz-adv-x="812" 
d="M227 0v566l-144 -112v358l144 112v796h416v-470l144 114v-358l-144 -114v-892h-416z" />
    <glyph glyph-name="Nacute" unicode="&#x143;" horiz-adv-x="1864" 
d="M196 0v1650h440l592 -920v920h440v-1650h-440l-592 920v-920h-440zM857 1701l-167 140l335 483l268 -205z" />
    <glyph glyph-name="nacute" unicode="&#x144;" horiz-adv-x="1461" 
d="M157 0v1024h416v-96c47.333 40.667 100.833 72.167 160.5 94.5s120.167 33.5 181.5 33.5c78 0 147.833 -17.667 209.5 -53s110.5 -83.166 146.5 -143.499s54 -128.833 54 -205.5v-654h-416v564c0 51.333 -15.333 92.5 -46 123.5s-71.334 46.5 -122.001 46.5
c-33.333 0 -62.666 -7 -87.999 -21s-45 -33.667 -59 -59s-21 -55.333 -21 -90v-564h-416zM680 1107l-167 140l335 483l268 -205z" />
    <glyph glyph-name="uni0145" unicode="&#x145;" horiz-adv-x="1864" 
d="M196 0v1650h440l592 -920v920h440v-1650h-440l-592 920v-920h-440zM872 -547l-59 48.001c16 13.333 33 36.166 51 68.499s29.333 59.833 34 82.5c-29.333 8 -52.666 22.5 -69.999 43.5s-26 46.833 -26 77.5c0 37.333 12.167 67.833 36.5 91.5s55.833 35.5 94.5 35.5
c37.333 0 68.166 -11.5 92.499 -34.5s36.5 -56.833 36.5 -101.5c0 -49.333 -16.5 -101 -49.5 -155s-79.833 -106 -140.5 -156z" />
    <glyph glyph-name="uni0146" unicode="&#x146;" horiz-adv-x="1461" 
d="M157 0v1024h416v-96c47.333 40.667 100.833 72.167 160.5 94.5s120.167 33.5 181.5 33.5c78 0 147.833 -17.667 209.5 -53s110.5 -83.166 146.5 -143.499s54 -128.833 54 -205.5v-654h-416v564c0 51.333 -15.333 92.5 -46 123.5s-71.334 46.5 -122.001 46.5
c-33.333 0 -62.666 -7 -87.999 -21s-45 -33.667 -59 -59s-21 -55.333 -21 -90v-564h-416zM671 -547.001l-59 48.001c16 13.333 33 36.166 51 68.499s29.333 59.833 34 82.5c-29.333 8 -52.666 22.5 -69.999 43.5s-26 46.833 -26 77.5c0 37.333 12.167 67.833 36.5 91.5
s55.833 35.5 94.5 35.5c37.333 0 68.166 -11.5 92.499 -34.5s36.5 -56.833 36.5 -101.5c0 -49.333 -16.5 -101 -49.5 -155s-79.833 -106 -140.5 -156z" />
    <glyph glyph-name="Ncaron" unicode="&#x147;" horiz-adv-x="1864" 
d="M196 0v1650h440l592 -920v920h440v-1650h-440l-592 920v-920h-440zM932 1756l-462 340l156 210l306 -224l306 224l156 -210z" />
    <glyph glyph-name="ncaron" unicode="&#x148;" horiz-adv-x="1461" 
d="M157 0v1024h416v-96c47.333 40.667 100.833 72.167 160.5 94.5s120.167 33.5 181.5 33.5c78 0 147.833 -17.667 209.5 -53s110.5 -83.166 146.5 -143.499s54 -128.833 54 -205.5v-654h-416v564c0 51.333 -15.333 92.5 -46 123.5s-71.334 46.5 -122.001 46.5
c-33.333 0 -62.666 -7 -87.999 -21s-45 -33.667 -59 -59s-21 -55.333 -21 -90v-564h-416zM755 1162l-462 340l156 210l306 -224l306 224l156 -210z" />
    <glyph glyph-name="Eng" unicode="&#x14a;" horiz-adv-x="1845" 
d="M1175 -551c-80.667 0 -153.999 12.833 -219.999 38.5s-128.333 65.5 -187 119.5l140 364c39.333 -33.333 74.666 -58.333 105.999 -75s59.333 -25 84 -25c39.333 0 70.833 11.667 94.5 35s35.5 54.333 35.5 93v1l-592 920v-920h-440v1650h440l592 -920v920h440v-1705
c0 -158 -43.833 -280.167 -131.5 -366.5s-208.167 -129.5 -361.5 -129.5z" />
    <glyph glyph-name="eng" unicode="&#x14b;" horiz-adv-x="1450" 
d="M918 -550c-52.667 0 -107.667 6.49902 -165 19.499s-102 29.167 -134 48.5l128 334c33.333 -18.667 61.666 -28 84.999 -28c51.333 0 77 40 77 120v620c0 34.667 -7 64.667 -21 90s-33.5 45 -58.5 59s-54.5 21 -88.5 21c-33.333 0 -62.666 -7 -87.999 -21
s-45 -33.667 -59 -59s-21 -55.333 -21 -90v-564h-416v1024h416v-96c47.333 40.667 100.833 72.167 160.5 94.5s120.167 33.5 181.5 33.5c78 0 147.833 -17.667 209.5 -53s110.5 -83.166 146.5 -143.499s54 -128.833 54 -205.5v-792
c0 -123.333 -36.167 -222.833 -108.5 -298.5s-171.833 -113.5 -298.5 -113.5z" />
    <glyph glyph-name="Omacron" unicode="&#x14c;" horiz-adv-x="1788" 
d="M894 -32c-115.333 0 -223.333 22 -324 66s-189 105.167 -265 183.5s-135.5 169.333 -178.5 273s-64.5 214.834 -64.5 333.501s21.5 229.834 64.5 333.501s102.5 194.667 178.5 273s164.333 139.5 265 183.5s208.667 66 324 66s223.333 -22 324 -66
s189 -105.167 265 -183.5s135.5 -169.333 178.5 -273s64.5 -214.834 64.5 -333.501s-21.5 -229.834 -64.5 -333.501s-102.5 -194.667 -178.5 -273s-164.333 -139.5 -265 -183.5s-208.667 -66 -324 -66zM894 392c54 0 103 10.167 147 30.5s81.667 49.5 113 87.5
s55.5 83.5 72.5 136.5s25.5 112.167 25.5 177.5s-8.5 124.5 -25.5 177.5s-41.167 98.5 -72.5 136.5s-69 67.167 -113 87.5s-93 30.5 -147 30.5s-103 -10.167 -147 -30.5s-81.667 -49.5 -113 -87.5s-55.5 -83.5 -72.5 -136.5s-25.5 -112.167 -25.5 -177.5
s8.5 -124.5 25.5 -177.5s41.167 -98.5 72.5 -136.5s69 -67.167 113 -87.5s93 -30.5 147 -30.5zM486 1904v280h816v-280h-816z" />
    <glyph glyph-name="omacron" unicode="&#x14d;" horiz-adv-x="1366" 
d="M683 -32c-117.333 0 -223.166 23.167 -317.499 69.5s-169 110.333 -224 192s-82.5 175.834 -82.5 282.501s27.5 200.834 82.5 282.501s129.667 145.667 224 192s200.166 69.5 317.499 69.5s223.166 -23.167 317.499 -69.5s169 -110.333 224 -192
s82.5 -175.834 82.5 -282.501s-27.5 -200.834 -82.5 -282.501s-129.667 -145.667 -224 -192s-200.166 -69.5 -317.499 -69.5zM683 320c34 0 65.333 8.16699 94 24.5s51.5 38.833 68.5 67.5s25.5 62 25.5 100s-8.5 71.5 -25.5 100.5s-39.833 51.5 -68.5 67.5s-60 24 -94 24
s-65.333 -8 -94 -24s-51.5 -38.5 -68.5 -67.5s-25.5 -62.5 -25.5 -100.5s8.5 -71.333 25.5 -100s39.833 -51.167 68.5 -67.5s60 -24.5 94 -24.5zM275 1280v280h816v-280h-816z" />
    <glyph glyph-name="Ohungarumlaut" unicode="&#x150;" horiz-adv-x="1788" 
d="M894 -32c-115.333 0 -223.333 22 -324 66s-189 105.167 -265 183.5s-135.5 169.333 -178.5 273s-64.5 214.834 -64.5 333.501s21.5 229.834 64.5 333.501s102.5 194.667 178.5 273s164.333 139.5 265 183.5s208.667 66 324 66s223.333 -22 324 -66
s189 -105.167 265 -183.5s135.5 -169.333 178.5 -273s64.5 -214.834 64.5 -333.501s-21.5 -229.834 -64.5 -333.501s-102.5 -194.667 -178.5 -273s-164.333 -139.5 -265 -183.5s-208.667 -66 -324 -66zM894 392c54 0 103 10.167 147 30.5s81.667 49.5 113 87.5
s55.5 83.5 72.5 136.5s25.5 112.167 25.5 177.5s-8.5 124.5 -25.5 177.5s-41.167 98.5 -72.5 136.5s-69 67.167 -113 87.5s-93 30.5 -147 30.5s-103 -10.167 -147 -30.5s-81.667 -49.5 -113 -87.5s-55.5 -83.5 -72.5 -136.5s-25.5 -112.167 -25.5 -177.5
s8.5 -124.5 25.5 -177.5s41.167 -98.5 72.5 -136.5s69 -67.167 113 -87.5s93 -30.5 147 -30.5zM1122 1772l-146 176l401 388l238 -264zM520 1772l-148 176l401 388l238 -264z" />
    <glyph glyph-name="ohungarumlaut" unicode="&#x151;" horiz-adv-x="1366" 
d="M683 -32c-117.333 0 -223.166 23.167 -317.499 69.5s-169 110.333 -224 192s-82.5 175.834 -82.5 282.501s27.5 200.834 82.5 282.501s129.667 145.667 224 192s200.166 69.5 317.499 69.5s223.166 -23.167 317.499 -69.5s169 -110.333 224 -192
s82.5 -175.834 82.5 -282.501s-27.5 -200.834 -82.5 -282.501s-129.667 -145.667 -224 -192s-200.166 -69.5 -317.499 -69.5zM683 320c34 0 65.333 8.16699 94 24.5s51.5 38.833 68.5 67.5s25.5 62 25.5 100s-8.5 71.5 -25.5 100.5s-39.833 51.5 -68.5 67.5s-60 24 -94 24
s-65.333 -8 -94 -24s-51.5 -38.5 -68.5 -67.5s-25.5 -62.5 -25.5 -100.5s8.5 -71.333 25.5 -100s39.833 -51.167 68.5 -67.5s60 -24.5 94 -24.5zM911 1148l-146 176l401 388l238 -264zM309 1148l-148 176l401 388l238 -264z" />
    <glyph glyph-name="OE" unicode="&#x152;" horiz-adv-x="2160" 
d="M892 0c-116 0 -224.332 20.332 -324.999 60.999s-189 98.5 -265 173.5s-135.333 164 -178 267s-64 216.5 -64 340.5c0 119.333 21.333 228.333 64 327s107.167 183.834 193.5 255.501s194.666 127.167 324.999 166.5s283.5 59 459.5 59h890v-386h-536v-244h512v-386h-512
v-248h536v-386h-1100zM1016 391.999v866c-74.667 0 -141.667 -9.33301 -201 -28s-110 -46 -152 -82s-74 -80.833 -96 -134.5s-33 -115.5 -33 -185.5c0 -67.333 10.333 -127.833 31 -181.5s51.5 -99.5 92.5 -137.5s91.5 -67 151.5 -87s129 -30 207 -30z" />
    <glyph glyph-name="oe" unicode="&#x153;" horiz-adv-x="2064" 
d="M667 -32c-118 0 -222.332 23.167 -312.999 69.5s-161.834 110.5 -213.501 192.5s-77.5 176 -77.5 282s25.667 200 77 282s122.5 146.167 213.5 192.5s195.167 69.5 312.5 69.5c80.667 0 153 -11.667 217 -35s119.333 -58.333 166 -105c38.667 32 78.5 58.333 119.5 79
s84.167 36 129.5 46s93 15 143 15c109.333 0 204.833 -22 286.5 -66s145.334 -105.667 191.001 -185s68.5 -171.666 68.5 -276.999c0 -8.66699 -0.166992 -16.334 -0.5 -23.001s-1.5 -23.667 -3.5 -51h-694c0 -33.333 7.5 -61.833 22.5 -85.5s37 -41.667 66 -54
s63.833 -18.5 104.5 -18.5c37.333 0 69.333 6.5 96 19.5s58.334 37.167 95.001 72.5l298 -148c-50.667 -87.333 -121.334 -154.5 -212.001 -201.5s-195.334 -70.5 -314.001 -70.5c-78.667 0 -149.667 11.167 -213 33.5s-124.333 57.833 -183 106.5
c-44 -46 -98.167 -80.833 -162.5 -104.5s-137.5 -35.5 -219.5 -35.5zM687.001 320c36 0 68.167 8.5 96.5 25.5s50.666 40 66.999 69s24.5 61.5 24.5 97.5c0 36.667 -8.16699 69.334 -24.5 98.001s-38.666 51.5 -66.999 68.5s-60.5 25.5 -96.5 25.5
c-35.333 0 -67.333 -8.5 -96 -25.5s-51.167 -39.833 -67.5 -68.5s-24.5 -61.334 -24.5 -98.001c0 -36 8.16699 -68.5 24.5 -97.5s38.833 -52 67.5 -69s60.667 -25.5 96 -25.5zM1301 670l280 -0.000976562c-4 25.333 -11.667 46 -23 62s-26.5 28 -45.5 36
s-42.167 12 -69.5 12c-29.333 0 -54.5 -4.33301 -75.5 -13s-37.167 -21.167 -48.5 -37.5s-17.333 -36.166 -18 -59.499z" />
    <glyph glyph-name="Racute" unicode="&#x154;" horiz-adv-x="1584" 
d="M196 0v1650h652c116 0 217 -20.5 303 -61.5s152.667 -100.333 200 -178s71 -171.834 71 -282.501c0 -78.667 -12.333 -150.5 -37 -215.5s-60.5 -121.667 -107.5 -170s-104.833 -87.166 -173.5 -116.499l534 -626h-558l-443 572h-1v-572h-440zM636 936h68
c56 0 102.833 6.66699 140.5 20s66 33.5 85 60.5s28.5 60.167 28.5 99.5c0 60.667 -21.5 106.5 -64.5 137.5s-106.167 46.5 -189.5 46.5h-68v-364zM717 1701l-167 140l335 483l268 -205z" />
    <glyph glyph-name="racute" unicode="&#x155;" horiz-adv-x="1078" 
d="M157 0l0.000976562 1024h416v-144c42.667 55.333 92.5 98.5 149.5 129.5s115.833 46.5 176.5 46.5c39.333 0 81 -6.66699 125 -20s80.333 -30.666 109 -51.999l-174 -350c-24.667 18.667 -53.834 33.667 -87.501 45s-64.5 17 -92.5 17
c-35.333 0 -68.833 -9.16699 -100.5 -27.5s-57.167 -42.166 -76.5 -71.499s-29 -61 -29 -95v-502h-416zM574.001 1107l-167 140l335 483l268 -205z" />
    <glyph glyph-name="uni0156" unicode="&#x156;" horiz-adv-x="1584" 
d="M196 0v1650h652c116 0 217 -20.5 303 -61.5s152.667 -100.333 200 -178s71 -171.834 71 -282.501c0 -78.667 -12.333 -150.5 -37 -215.5s-60.5 -121.667 -107.5 -170s-104.833 -87.166 -173.5 -116.499l534 -626h-558l-443 572h-1v-572h-440zM636 936h68
c56 0 102.833 6.66699 140.5 20s66 33.5 85 60.5s28.5 60.167 28.5 99.5c0 60.667 -21.5 106.5 -64.5 137.5s-106.167 46.5 -189.5 46.5h-68v-364zM732 -547l-59 48.001c16 13.333 33 36.166 51 68.499s29.333 59.833 34 82.5c-29.333 8 -52.666 22.5 -69.999 43.5
s-26 46.833 -26 77.5c0 37.333 12.167 67.833 36.5 91.5s55.833 35.5 94.5 35.5c37.333 0 68.166 -11.5 92.499 -34.5s36.5 -56.833 36.5 -101.5c0 -49.333 -16.5 -101 -49.5 -155s-79.833 -106 -140.5 -156z" />
    <glyph glyph-name="uni0157" unicode="&#x157;" horiz-adv-x="1078" 
d="M157 0l0.000976562 1024h416v-144c42.667 55.333 92.5 98.5 149.5 129.5s115.833 46.5 176.5 46.5c39.333 0 81 -6.66699 125 -20s80.333 -30.666 109 -51.999l-174 -350c-24.667 18.667 -53.834 33.667 -87.501 45s-64.5 17 -92.5 17
c-35.333 0 -68.833 -9.16699 -100.5 -27.5s-57.167 -42.166 -76.5 -71.499s-29 -61 -29 -95v-502h-416zM513.001 -547.002l-59 48.001c16 13.333 33 36.166 51 68.499s29.333 59.833 34 82.5c-29.333 8 -52.666 22.5 -69.999 43.5s-26 46.833 -26 77.5
c0 37.333 12.167 67.833 36.5 91.5s55.833 35.5 94.5 35.5c37.333 0 68.166 -11.5 92.499 -34.5s36.5 -56.833 36.5 -101.5c0 -49.333 -16.5 -101 -49.5 -155s-79.833 -106 -140.5 -156z" />
    <glyph glyph-name="Rcaron" unicode="&#x158;" horiz-adv-x="1584" 
d="M196 0v1650h652c116 0 217 -20.5 303 -61.5s152.667 -100.333 200 -178s71 -171.834 71 -282.501c0 -78.667 -12.333 -150.5 -37 -215.5s-60.5 -121.667 -107.5 -170s-104.833 -87.166 -173.5 -116.499l534 -626h-558l-443 572h-1v-572h-440zM636 936h68
c56 0 102.833 6.66699 140.5 20s66 33.5 85 60.5s28.5 60.167 28.5 99.5c0 60.667 -21.5 106.5 -64.5 137.5s-106.167 46.5 -189.5 46.5h-68v-364zM792 1756l-462 340l156 210l306 -224l306 224l156 -210z" />
    <glyph glyph-name="rcaron" unicode="&#x159;" horiz-adv-x="1078" 
d="M157 0l0.000976562 1024h416v-144c42.667 55.333 92.5 98.5 149.5 129.5s115.833 46.5 176.5 46.5c39.333 0 81 -6.66699 125 -20s80.333 -30.666 109 -51.999l-174 -350c-24.667 18.667 -53.834 33.667 -87.501 45s-64.5 17 -92.5 17
c-35.333 0 -68.833 -9.16699 -100.5 -27.5s-57.167 -42.166 -76.5 -71.499s-29 -61 -29 -95v-502h-416zM649.001 1162l-462 340l156 210l306 -224l306 224l156 -210z" />
    <glyph glyph-name="Sacute" unicode="&#x15a;" horiz-adv-x="1361" 
d="M637 -32c-70.667 0 -138.333 5.49902 -203 16.499s-124.5 25.833 -179.5 44.5s-104.167 39.167 -147.5 61.5s-79 44.833 -107 67.5l218 374c29.333 -20 61.5 -39.333 96.5 -58s71.5 -35.334 109.5 -50.001s76.167 -26.334 114.5 -35.001s75.5 -13 111.5 -13
c33.333 0 61.333 4 84 12s40 20.5 52 37.5s18 38.167 18 63.5s-6.16699 47.5 -18.5 66.5s-31.833 37.5 -58.5 55.5s-61.667 37.667 -105 59l-158 76c-47.333 22.667 -90.166 48.5 -128.499 77.5s-71 61.167 -98 96.5s-47.667 73.666 -62 114.999s-21.5 85.333 -21.5 132
c0 65.333 13.667 128.5 41 189.5s66.333 115.833 117 164.5s111.5 87.334 182.5 116.001s150.167 43 237.5 43c56 0 115.5 -6 178.5 -18s124.167 -28.667 183.5 -50s111.333 -46 156 -74l-174 -354c-34.667 20 -71.334 37.167 -110.001 51.5s-77 25.333 -115 33
s-74 11.5 -108 11.5c-32.667 0 -60.667 -3.83301 -84 -11.5s-41.333 -19 -54 -34s-19 -33.833 -19 -56.5c0 -14.667 3.16699 -27.5 9.5 -38.5s16.666 -21.167 30.999 -30.5s33.5 -19.333 57.5 -30l88 -39c86 -38 161.333 -74.667 226 -110s118.5 -73.166 161.5 -113.499
s75.167 -86.166 96.5 -137.499s32 -111.666 32 -180.999c0 -110.667 -26.5 -205.667 -79.5 -285s-128.167 -140 -225.5 -182s-212.666 -63 -345.999 -63zM657.001 1731l-167 140l335 483l268 -205z" />
    <glyph glyph-name="sacute" unicode="&#x15b;" horiz-adv-x="1046" 
d="M464 -32c-88 0 -167.497 9.16309 -238.497 27.4961s-132.167 45.833 -183.5 82.5l164 288c49.333 -30.667 95.833 -54 139.5 -70s83.5 -24 119.5 -24c14.667 0 26.167 1.33301 34.5 4s14.5 6.83398 18.5 12.501s6 13.167 6 22.5c0 16.667 -5.83301 29.834 -17.5 39.501
s-30.5 19.834 -56.5 30.501l-104 44c-40.667 18 -78.834 38 -114.501 60s-64.5 50 -86.5 84s-33 77.333 -33 130c0 70 20 131.667 60 185s95.667 95 167 125s153.666 45 246.999 45c47.333 0 100.5 -4.66699 159.5 -14s127.833 -24.666 206.5 -45.999l-130 -274
c-102 38.667 -179.333 58 -232 58c-26 0 -46.167 -4 -60.5 -12s-21.5 -17.667 -21.5 -29c0 -16 12.5 -31.333 37.5 -46s54.167 -28 87.5 -40l87 -31c45.333 -15.333 86.166 -34.333 122.499 -57s65.333 -52.667 87 -90s32.5 -86.333 32.5 -147
c0 -78 -19.167 -143.5 -57.5 -196.5s-94.5 -93.167 -168.5 -120.5s-164.667 -41 -272 -41zM448.003 1075l-167 140l335 483l268 -205z" />
    <glyph glyph-name="Scedilla" unicode="&#x15e;" horiz-adv-x="1361" 
d="M637 -32c-70.667 0 -138.333 5.49902 -203 16.499s-124.5 25.833 -179.5 44.5s-104.167 39.167 -147.5 61.5s-79 44.833 -107 67.5l218 374c29.333 -20 61.5 -39.333 96.5 -58s71.5 -35.334 109.5 -50.001s76.167 -26.334 114.5 -35.001s75.5 -13 111.5 -13
c33.333 0 61.333 4 84 12s40 20.5 52 37.5s18 38.167 18 63.5s-6.16699 47.5 -18.5 66.5s-31.833 37.5 -58.5 55.5s-61.667 37.667 -105 59l-158 76c-47.333 22.667 -90.166 48.5 -128.499 77.5s-71 61.167 -98 96.5s-47.667 73.666 -62 114.999s-21.5 85.333 -21.5 132
c0 65.333 13.667 128.5 41 189.5s66.333 115.833 117 164.5s111.5 87.334 182.5 116.001s150.167 43 237.5 43c56 0 115.5 -6 178.5 -18s124.167 -28.667 183.5 -50s111.333 -46 156 -74l-174 -354c-34.667 20 -71.334 37.167 -110.001 51.5s-77 25.333 -115 33
s-74 11.5 -108 11.5c-32.667 0 -60.667 -3.83301 -84 -11.5s-41.333 -19 -54 -34s-19 -33.833 -19 -56.5c0 -14.667 3.16699 -27.5 9.5 -38.5s16.666 -21.167 30.999 -30.5s33.5 -19.333 57.5 -30l88 -39c86 -38 161.333 -74.667 226 -110s118.5 -73.166 161.5 -113.499
s75.167 -86.166 96.5 -137.499s32 -111.666 32 -180.999c0 -110.667 -26.5 -205.667 -79.5 -285s-128.167 -140 -225.5 -182s-212.666 -63 -345.999 -63zM569.001 -558.001c-58.667 0 -113.834 13.168 -165.501 39.501s-101.167 66.5 -148.5 120.5l154 117
c47.333 -55.333 97.333 -83 150 -83c22 0 39.667 5.5 53 16.5s20 25.167 20 42.5c0 21.333 -10.833 38.166 -32.5 50.499s-50.167 18.5 -85.5 18.5c-16.667 0 -32.5 -1 -47.5 -3s-25.167 -4.66699 -30.5 -8l-23 19l75 228h164l-37 -113c25.333 0 51.333 -3.66699 78 -11
s50.334 -17.666 71.001 -30.999c29.333 -18 51.333 -40.333 66 -67s22 -57.667 22 -93c0 -70.667 -26.5 -128.834 -79.5 -174.501s-120.833 -68.5 -203.5 -68.5z" />
    <glyph glyph-name="scedilla" unicode="&#x15f;" horiz-adv-x="1046" 
d="M464 -32c-88 0 -167.497 9.16309 -238.497 27.4961s-132.167 45.833 -183.5 82.5l164 288c49.333 -30.667 95.833 -54 139.5 -70s83.5 -24 119.5 -24c14.667 0 26.167 1.33301 34.5 4s14.5 6.83398 18.5 12.501s6 13.167 6 22.5c0 16.667 -5.83301 29.834 -17.5 39.501
s-30.5 19.834 -56.5 30.501l-104 44c-40.667 18 -78.834 38 -114.501 60s-64.5 50 -86.5 84s-33 77.333 -33 130c0 70 20 131.667 60 185s95.667 95 167 125s153.666 45 246.999 45c47.333 0 100.5 -4.66699 159.5 -14s127.833 -24.666 206.5 -45.999l-130 -274
c-102 38.667 -179.333 58 -232 58c-26 0 -46.167 -4 -60.5 -12s-21.5 -17.667 -21.5 -29c0 -16 12.5 -31.333 37.5 -46s54.167 -28 87.5 -40l87 -31c45.333 -15.333 86.166 -34.333 122.499 -57s65.333 -52.667 87 -90s32.5 -86.333 32.5 -147
c0 -78 -19.167 -143.5 -57.5 -196.5s-94.5 -93.167 -168.5 -120.5s-164.667 -41 -272 -41zM503.003 -558.004c-58.667 0 -113.834 13.168 -165.501 39.501s-101.167 66.5 -148.5 120.5l154 117c47.333 -55.333 97.333 -83 150 -83c22 0 39.667 5.5 53 16.5
s20 25.167 20 42.5c0 21.333 -10.833 38.166 -32.5 50.499s-50.167 18.5 -85.5 18.5c-16.667 0 -32.5 -1 -47.5 -3s-25.167 -4.66699 -30.5 -8l-23 19l75 228h164l-37 -113c25.333 0 51.333 -3.66699 78 -11s50.334 -17.666 71.001 -30.999
c29.333 -18 51.333 -40.333 66 -67s22 -57.667 22 -93c0 -70.667 -26.5 -128.834 -79.5 -174.501s-120.833 -68.5 -203.5 -68.5z" />
    <glyph glyph-name="Scaron" unicode="&#x160;" horiz-adv-x="1361" 
d="M637 -32c-70.667 0 -138.333 5.49902 -203 16.499s-124.5 25.833 -179.5 44.5s-104.167 39.167 -147.5 61.5s-79 44.833 -107 67.5l218 374c29.333 -20 61.5 -39.333 96.5 -58s71.5 -35.334 109.5 -50.001s76.167 -26.334 114.5 -35.001s75.5 -13 111.5 -13
c33.333 0 61.333 4 84 12s40 20.5 52 37.5s18 38.167 18 63.5s-6.16699 47.5 -18.5 66.5s-31.833 37.5 -58.5 55.5s-61.667 37.667 -105 59l-158 76c-47.333 22.667 -90.166 48.5 -128.499 77.5s-71 61.167 -98 96.5s-47.667 73.666 -62 114.999s-21.5 85.333 -21.5 132
c0 65.333 13.667 128.5 41 189.5s66.333 115.833 117 164.5s111.5 87.334 182.5 116.001s150.167 43 237.5 43c56 0 115.5 -6 178.5 -18s124.167 -28.667 183.5 -50s111.333 -46 156 -74l-174 -354c-34.667 20 -71.334 37.167 -110.001 51.5s-77 25.333 -115 33
s-74 11.5 -108 11.5c-32.667 0 -60.667 -3.83301 -84 -11.5s-41.333 -19 -54 -34s-19 -33.833 -19 -56.5c0 -14.667 3.16699 -27.5 9.5 -38.5s16.666 -21.167 30.999 -30.5s33.5 -19.333 57.5 -30l88 -39c86 -38 161.333 -74.667 226 -110s118.5 -73.166 161.5 -113.499
s75.167 -86.166 96.5 -137.499s32 -111.666 32 -180.999c0 -110.667 -26.5 -205.667 -79.5 -285s-128.167 -140 -225.5 -182s-212.666 -63 -345.999 -63zM732.001 1786l-462 340l156 210l306 -224l306 224l156 -210z" />
    <glyph glyph-name="scaron" unicode="&#x161;" horiz-adv-x="1046" 
d="M464 -32c-88 0 -167.497 9.16309 -238.497 27.4961s-132.167 45.833 -183.5 82.5l164 288c49.333 -30.667 95.833 -54 139.5 -70s83.5 -24 119.5 -24c14.667 0 26.167 1.33301 34.5 4s14.5 6.83398 18.5 12.501s6 13.167 6 22.5c0 16.667 -5.83301 29.834 -17.5 39.501
s-30.5 19.834 -56.5 30.501l-104 44c-40.667 18 -78.834 38 -114.501 60s-64.5 50 -86.5 84s-33 77.333 -33 130c0 70 20 131.667 60 185s95.667 95 167 125s153.666 45 246.999 45c47.333 0 100.5 -4.66699 159.5 -14s127.833 -24.666 206.5 -45.999l-130 -274
c-102 38.667 -179.333 58 -232 58c-26 0 -46.167 -4 -60.5 -12s-21.5 -17.667 -21.5 -29c0 -16 12.5 -31.333 37.5 -46s54.167 -28 87.5 -40l87 -31c45.333 -15.333 86.166 -34.333 122.499 -57s65.333 -52.667 87 -90s32.5 -86.333 32.5 -147
c0 -78 -19.167 -143.5 -57.5 -196.5s-94.5 -93.167 -168.5 -120.5s-164.667 -41 -272 -41zM523.003 1130l-462 340l156 210l306 -224l306 224l156 -210z" />
    <glyph glyph-name="uni0162" unicode="&#x162;" horiz-adv-x="1138" 
d="M349 0v1264h-360v386h1160v-386h-360v-1264h-440zM506 -558c-58.667 0 -113.834 13.168 -165.501 39.501s-101.167 66.5 -148.5 120.5l154 117c47.333 -55.333 97.333 -83 150 -83c22 0 39.667 5.5 53 16.5s20 25.167 20 42.5c0 21.333 -10.833 38.166 -32.5 50.499
s-50.167 18.5 -85.5 18.5c-16.667 0 -32.5 -1 -47.5 -3s-25.167 -4.66699 -30.5 -8l-23 19l75 228h164l-37 -113c25.333 0 51.333 -3.66699 78 -11s50.334 -17.666 71.001 -30.999c29.333 -18 51.333 -40.333 66 -67s22 -57.667 22 -93
c0 -70.667 -26.5 -128.834 -79.5 -174.501s-120.833 -68.5 -203.5 -68.5z" />
    <glyph glyph-name="uni0163" unicode="&#x163;" horiz-adv-x="940" 
d="M577 -32c-118.667 0 -211.168 37 -277.501 111s-99.5 177 -99.5 309v320h-160v316h160v384h416v-384h204v-316h-204v-288c0 -26.667 5.5 -46.667 16.5 -60s27.167 -20 48.5 -20c26.667 0 54.334 10.667 83.001 32l104 -334c-42.667 -22 -89.667 -39.167 -141 -51.5
s-101.333 -18.5 -150 -18.5zM513.999 -558c-58.667 0 -113.834 13.168 -165.501 39.501s-101.167 66.5 -148.5 120.5l154 117c47.333 -55.333 97.333 -83 150 -83c22 0 39.667 5.5 53 16.5s20 25.167 20 42.5c0 21.333 -10.833 38.166 -32.5 50.499s-50.167 18.5 -85.5 18.5
c-16.667 0 -32.5 -1 -47.5 -3s-25.167 -4.66699 -30.5 -8l-23 19l75 228h164l-37 -113c25.333 0 51.333 -3.66699 78 -11s50.334 -17.666 71.001 -30.999c29.333 -18 51.333 -40.333 66 -67s22 -57.667 22 -93c0 -70.667 -26.5 -128.834 -79.5 -174.501
s-120.833 -68.5 -203.5 -68.5z" />
    <glyph glyph-name="Tcaron" unicode="&#x164;" horiz-adv-x="1138" 
d="M349 0v1264h-360v386h1160v-386h-360v-1264h-440zM569 1756l-462 340l156 210l306 -224l306 224l156 -210z" />
    <glyph glyph-name="tcaron" unicode="&#x165;" horiz-adv-x="940" 
d="M577 -32c-118.667 0 -211.168 37 -277.501 111s-99.5 177 -99.5 309v320h-160v316h160v384h416v-384h204v-316h-204v-288c0 -26.667 5.5 -46.667 16.5 -60s27.167 -20 48.5 -20c26.667 0 54.334 10.667 83.001 32l104 -334c-42.667 -22 -89.667 -39.167 -141 -51.5
s-101.333 -18.5 -150 -18.5zM502.999 1429l-462 340l156 210l306 -224l306 224l156 -210z" />
    <glyph glyph-name="Tbar" unicode="&#x166;" horiz-adv-x="1138" 
d="M349 0v1264h-360v386h1160v-386h-360v-1264h-440zM179 764v294h780v-294h-780z" />
    <glyph glyph-name="tbar" unicode="&#x167;" horiz-adv-x="940" 
d="M577 -32c-118.667 0 -211.168 37 -277.501 111s-99.5 177 -99.5 309v220h-160v216h160v84h-160v216h160v284h416v-284h204v-216h-204v-84h204v-216h-204v-188c0 -26.667 5.5 -46.667 16.5 -60s27.167 -20 48.5 -20c26.667 0 54.334 10.667 83.001 32l104 -334
c-42.667 -22 -89.667 -39.167 -141 -51.5s-101.333 -18.5 -150 -18.5z" />
    <glyph glyph-name="Umacron" unicode="&#x16a;" horiz-adv-x="1663" 
d="M832 -32c-219.333 0 -385.333 51.833 -498 155.5s-169 256.5 -169 458.5v1068h440v-936c0 -118.667 16.333 -200.667 49 -246s91.667 -68 177 -68s144.333 22.667 177 68s49 127.333 49 246v936h440v-1068c0 -202 -56.167 -354.833 -168.5 -458.5
s-277.833 -155.5 -496.5 -155.5zM424 1874v280h816v-280h-816z" />
    <glyph glyph-name="umacron" unicode="&#x16b;" horiz-adv-x="1441" 
d="M720 -32c-208.667 0 -359.499 38.333 -452.499 115s-139.5 200.334 -139.5 371.001v570h416v-466c0 -94 13.167 -159.833 39.5 -197.5s72.166 -56.5 137.499 -56.5c64.667 0 110 18.833 136 56.5s39 103.5 39 197.5v466h416v-570
c0 -170.667 -46.5 -294.334 -139.5 -371.001s-243.833 -115 -452.5 -115zM313.001 1248v280h816v-280h-816z" />
    <glyph glyph-name="Uring" unicode="&#x16e;" horiz-adv-x="1663" 
d="M832 -32c-219.333 0 -385.333 51.833 -498 155.5s-169 256.5 -169 458.5v1068h440v-936c0 -118.667 16.333 -200.667 49 -246s91.667 -68 177 -68s144.333 22.667 177 68s49 127.333 49 246v936h440v-1068c0 -202 -56.167 -354.833 -168.5 -458.5
s-277.833 -155.5 -496.5 -155.5zM832 1786c-64.667 0 -123.334 13 -176.001 39s-94.5 62 -125.5 108s-46.5 99 -46.5 159v0c0 60 15.5 113 46.5 159s72.833 82 125.5 108s111.334 39 176.001 39s123.334 -13 176.001 -39s94.5 -62 125.5 -108s46.5 -99 46.5 -159
s-15.5 -113 -46.5 -159s-72.833 -82 -125.5 -108s-111.334 -39 -176.001 -39zM832 1968c31.333 0 58.833 12.167 82.5 36.5s35.5 53.5 35.5 87.5s-11.833 63.167 -35.5 87.5s-51.167 36.5 -82.5 36.5c-30.667 0 -58 -12.167 -82 -36.5s-36 -53.5 -36 -87.5v0
c0 -34 12 -63.167 36 -87.5s51.333 -36.5 82 -36.5z" />
    <glyph glyph-name="uring" unicode="&#x16f;" horiz-adv-x="1441" 
d="M720 -32c-208.667 0 -359.499 38.333 -452.499 115s-139.5 200.334 -139.5 371.001v570h416v-466c0 -94 13.167 -159.833 39.5 -197.5s72.166 -56.5 137.499 -56.5c64.667 0 110 18.833 136 56.5s39 103.5 39 197.5v466h416v-570
c0 -170.667 -46.5 -294.334 -139.5 -371.001s-243.833 -115 -452.5 -115zM721.001 1160c-64.667 0 -123.334 13 -176.001 39s-94.5 62 -125.5 108s-46.5 99 -46.5 159v0c0 60 15.5 113 46.5 159s72.833 82 125.5 108s111.334 39 176.001 39s123.334 -13 176.001 -39
s94.5 -62 125.5 -108s46.5 -99 46.5 -159s-15.5 -113 -46.5 -159s-72.833 -82 -125.5 -108s-111.334 -39 -176.001 -39zM721.001 1342c31.333 0 58.833 12.167 82.5 36.5s35.5 53.5 35.5 87.5s-11.833 63.167 -35.5 87.5s-51.167 36.5 -82.5 36.5
c-30.667 0 -58 -12.167 -82 -36.5s-36 -53.5 -36 -87.5v0c0 -34 12 -63.167 36 -87.5s51.333 -36.5 82 -36.5z" />
    <glyph glyph-name="Uhungarumlaut" unicode="&#x170;" horiz-adv-x="1663" 
d="M832 -32c-219.333 0 -385.333 51.833 -498 155.5s-169 256.5 -169 458.5v1068h440v-936c0 -118.667 16.333 -200.667 49 -246s91.667 -68 177 -68s144.333 22.667 177 68s49 127.333 49 246v936h440v-1068c0 -202 -56.167 -354.833 -168.5 -458.5
s-277.833 -155.5 -496.5 -155.5zM1060 1742l-146 176l401 388l238 -264zM458 1742l-148 176l401 388l238 -264z" />
    <glyph glyph-name="uhungarumlaut" unicode="&#x171;" horiz-adv-x="1441" 
d="M720 -32c-208.667 0 -359.499 38.333 -452.499 115s-139.5 200.334 -139.5 371.001v570h416v-466c0 -94 13.167 -159.833 39.5 -197.5s72.166 -56.5 137.499 -56.5c64.667 0 110 18.833 136 56.5s39 103.5 39 197.5v466h416v-570
c0 -170.667 -46.5 -294.334 -139.5 -371.001s-243.833 -115 -452.5 -115zM949.001 1116l-146 176l401 388l238 -264zM347.001 1116l-148 176l401 388l238 -264z" />
    <glyph glyph-name="Uogonek" unicode="&#x172;" horiz-adv-x="1663" 
d="M832 -32c-219.333 0 -385.333 51.833 -498 155.5s-169 256.5 -169 458.5v1068h440v-936c0 -118.667 16.333 -200.667 49 -246s91.667 -68 177 -68s144.333 22.667 177 68s49 127.333 49 246v936h440v-1068c0 -202 -56.167 -354.833 -168.5 -458.5
s-277.833 -155.5 -496.5 -155.5zM853 -547c-72 0 -132.002 22.001 -180.002 66.001s-72 97 -72 159c0 45.333 14.333 96.5 43 153.5s70 116.5 124 178.5h185c-34.667 -42.667 -62.667 -88.834 -84 -138.501s-32 -92.5 -32 -128.5c0 -22.667 4.33301 -40 13 -52
s21.334 -18 38.001 -18c14 0 27.667 4.33301 41 13s24 20.334 32 35.001l166 -124c-30.667 -44.667 -70.667 -79.834 -120 -105.501s-100.666 -38.5 -153.999 -38.5z" />
    <glyph glyph-name="uogonek" unicode="&#x173;" horiz-adv-x="1441" 
d="M720 -32c-208.667 0 -359.499 38.333 -452.499 115s-139.5 200.334 -139.5 371.001v570h416v-466c0 -94 13.167 -159.833 39.5 -197.5s72.166 -56.5 137.499 -56.5c64.667 0 110 18.833 136 56.5s39 103.5 39 197.5v466h416v-570
c0 -170.667 -46.5 -294.334 -139.5 -371.001s-243.833 -115 -452.5 -115zM757.001 -547c-72 0 -132.002 22.001 -180.002 66.001s-72 97 -72 159c0 45.333 14.333 96.5 43 153.5s70 116.5 124 178.5h185c-34.667 -42.667 -62.667 -88.834 -84 -138.501s-32 -92.5 -32 -128.5
c0 -22.667 4.33301 -40 13 -52s21.334 -18 38.001 -18c14 0 27.667 4.33301 41 13s24 20.334 32 35.001l166 -124c-30.667 -44.667 -70.667 -79.834 -120 -105.501s-100.666 -38.5 -153.999 -38.5z" />
    <glyph glyph-name="Wcircumflex" unicode="&#x174;" horiz-adv-x="2300" 
d="M456 0l-466 1650h490l244 -1040l262 1040h328l262 -1040l244 1040h490l-466 -1650h-488l-206 804l-206 -804h-488zM844 1756l-156 210l462 340l462 -340l-156 -210l-306 224z" />
    <glyph glyph-name="wcircumflex" unicode="&#x175;" horiz-adv-x="1984" 
d="M500 0l-566 1024h476l216 -480l224 480h284l224 -480l216 480h476l-566 -1024h-280l-212 452l-212 -452h-280zM686 1130l-156 210l462 340l462 -340l-156 -210l-306 224z" />
    <glyph glyph-name="Ycircumflex" unicode="&#x176;" horiz-adv-x="1540" 
d="M550 0v748l-620 902h530l310 -458l310 458h530l-620 -902v-748h-440zM464 1756l-156 210l462 340l462 -340l-156 -210l-306 224z" />
    <glyph glyph-name="ycircumflex" unicode="&#x177;" horiz-adv-x="1281" 
d="M31 -520l384 718l-486 826h478l252 -432l208 432h478l-836 -1544h-478zM335 1130l-156 210l462 340l462 -340l-156 -210l-306 224z" />
    <glyph glyph-name="Ydieresis" unicode="&#x178;" horiz-adv-x="1540" 
d="M550 0v748l-620 902h530l310 -458l310 458h530l-620 -902v-748h-440zM1006 1812c-58.667 0 -108.667 20.667 -150 62s-62 91.333 -62 150c0 59.333 20.667 109.5 62 150.5s91.333 61.5 150 61.5c59.333 0 109.5 -20.5 150.5 -61.5s61.5 -91.167 61.5 -150.5
c0 -58.667 -20.5 -108.667 -61.5 -150s-91.167 -62 -150.5 -62zM534 1812c-58.667 0 -108.667 20.667 -150 62s-62 91.333 -62 150c0 59.333 20.667 109.5 62 150.5s91.333 61.5 150 61.5c59.333 0 109.5 -20.5 150.5 -61.5s61.5 -91.167 61.5 -150.5
c0 -58.667 -20.5 -108.667 -61.5 -150s-91.167 -62 -150.5 -62z" />
    <glyph glyph-name="Zacute" unicode="&#x179;" horiz-adv-x="1516" 
d="M-8 0l742 1266h-624v384h1390l-742 -1266h690v-384h-1456zM683 1701l-167 140l335 483l268 -205z" />
    <glyph glyph-name="zacute" unicode="&#x17a;" horiz-adv-x="1180" 
d="M16 0l436 712h-350v312h1038l-436 -712h392v-312h-1080zM515 1075l-167 140l335 483l268 -205z" />
    <glyph glyph-name="Zdotaccent" unicode="&#x17b;" horiz-adv-x="1516" 
d="M-8 0l742 1266h-624v384h1390l-742 -1266h690v-384h-1456zM759 1869c-44 0 -84.333 10.833 -121 32.5s-65.834 50.834 -87.501 87.501s-32.5 77 -32.5 121s10.833 84.167 32.5 120.5s50.834 65.333 87.501 87s77 32.5 121 32.5s84.167 -10.833 120.5 -32.5
s65.333 -50.667 87 -87s32.5 -76.5 32.5 -120.5s-10.833 -84.333 -32.5 -121s-50.667 -65.834 -87 -87.501s-76.5 -32.5 -120.5 -32.5z" />
    <glyph glyph-name="zdotaccent" unicode="&#x17c;" horiz-adv-x="1180" 
d="M16 0l436 712h-350v312h1038l-436 -712h392v-312h-1080zM591 1243c-44 0 -84.333 10.833 -121 32.5s-65.834 50.834 -87.501 87.501s-32.5 77 -32.5 121s10.833 84.167 32.5 120.5s50.834 65.333 87.501 87s77 32.5 121 32.5s84.167 -10.833 120.5 -32.5
s65.333 -50.667 87 -87s32.5 -76.5 32.5 -120.5s-10.833 -84.333 -32.5 -121s-50.667 -65.834 -87 -87.501s-76.5 -32.5 -120.5 -32.5z" />
    <glyph glyph-name="Zcaron" unicode="&#x17d;" horiz-adv-x="1516" 
d="M-8 0l742 1266h-624v384h1390l-742 -1266h690v-384h-1456zM758 1756l-462 340l156 210l306 -224l306 224l156 -210z" />
    <glyph glyph-name="zcaron" unicode="&#x17e;" horiz-adv-x="1180" 
d="M16 0l436 712h-350v312h1038l-436 -712h392v-312h-1080zM590 1130l-462 340l156 210l306 -224l306 224l156 -210z" />
    <glyph glyph-name="florin" unicode="&#x192;" horiz-adv-x="1062" 
d="M177 -551c-58 0 -114.836 9.16699 -170.503 27.5s-102.167 43.166 -139.5 74.499l170 290c28.667 -16 61.334 -24 98.001 -24c38.667 0 66 13.5 82 40.5s27 78.167 33 153.5l60 697h-160l28 316h160l16 178c10 111.333 36.667 208 80 290s99.833 145.5 169.5 190.5
s148.834 67.5 237.501 67.5c58 0 114.833 -9.16699 170.5 -27.5s102.167 -43.166 139.5 -74.499l-170 -290c-28.667 16 -61.334 24 -98.001 24c-38.667 0 -66 -13.5 -82 -40.5s-27 -78.167 -33 -153.5l-14 -164h228l-28 -316h-228l-62 -711
c-10 -111.333 -36.667 -208 -80 -290s-99.666 -145.5 -168.999 -190.5s-148.666 -67.5 -237.999 -67.5z" />
    <glyph glyph-name="uni0218" unicode="&#x218;" horiz-adv-x="1361" 
d="M637 -32c-70.667 0 -138.333 5.49902 -203 16.499s-124.5 25.833 -179.5 44.5s-104.167 39.167 -147.5 61.5s-79 44.833 -107 67.5l218 374c29.333 -20 61.5 -39.333 96.5 -58s71.5 -35.334 109.5 -50.001s76.167 -26.334 114.5 -35.001s75.5 -13 111.5 -13
c33.333 0 61.333 4 84 12s40 20.5 52 37.5s18 38.167 18 63.5s-6.16699 47.5 -18.5 66.5s-31.833 37.5 -58.5 55.5s-61.667 37.667 -105 59l-158 76c-47.333 22.667 -90.166 48.5 -128.499 77.5s-71 61.167 -98 96.5s-47.667 73.666 -62 114.999s-21.5 85.333 -21.5 132
c0 65.333 13.667 128.5 41 189.5s66.333 115.833 117 164.5s111.5 87.334 182.5 116.001s150.167 43 237.5 43c56 0 115.5 -6 178.5 -18s124.167 -28.667 183.5 -50s111.333 -46 156 -74l-174 -354c-34.667 20 -71.334 37.167 -110.001 51.5s-77 25.333 -115 33
s-74 11.5 -108 11.5c-32.667 0 -60.667 -3.83301 -84 -11.5s-41.333 -19 -54 -34s-19 -33.833 -19 -56.5c0 -14.667 3.16699 -27.5 9.5 -38.5s16.666 -21.167 30.999 -30.5s33.5 -19.333 57.5 -30l88 -39c86 -38 161.333 -74.667 226 -110s118.5 -73.166 161.5 -113.499
s75.167 -86.166 96.5 -137.499s32 -111.666 32 -180.999c0 -110.667 -26.5 -205.667 -79.5 -285s-128.167 -140 -225.5 -182s-212.666 -63 -345.999 -63zM592.001 -547.001l-59 48.001c16 13.333 33 36.166 51 68.499s29.333 59.833 34 82.5
c-29.333 8 -52.666 22.5 -69.999 43.5s-26 46.833 -26 77.5c0 37.333 12.167 67.833 36.5 91.5s55.833 35.5 94.5 35.5c37.333 0 68.166 -11.5 92.499 -34.5s36.5 -56.833 36.5 -101.5c0 -49.333 -16.5 -101 -49.5 -155s-79.833 -106 -140.5 -156z" />
    <glyph glyph-name="uni0219" unicode="&#x219;" horiz-adv-x="1046" 
d="M464 -32c-88 0 -167.497 9.16309 -238.497 27.4961s-132.167 45.833 -183.5 82.5l164 288c49.333 -30.667 95.833 -54 139.5 -70s83.5 -24 119.5 -24c14.667 0 26.167 1.33301 34.5 4s14.5 6.83398 18.5 12.501s6 13.167 6 22.5c0 16.667 -5.83301 29.834 -17.5 39.501
s-30.5 19.834 -56.5 30.501l-104 44c-40.667 18 -78.834 38 -114.501 60s-64.5 50 -86.5 84s-33 77.333 -33 130c0 70 20 131.667 60 185s95.667 95 167 125s153.666 45 246.999 45c47.333 0 100.5 -4.66699 159.5 -14s127.833 -24.666 206.5 -45.999l-130 -274
c-102 38.667 -179.333 58 -232 58c-26 0 -46.167 -4 -60.5 -12s-21.5 -17.667 -21.5 -29c0 -16 12.5 -31.333 37.5 -46s54.167 -28 87.5 -40l87 -31c45.333 -15.333 86.166 -34.333 122.499 -57s65.333 -52.667 87 -90s32.5 -86.333 32.5 -147
c0 -78 -19.167 -143.5 -57.5 -196.5s-94.5 -93.167 -168.5 -120.5s-164.667 -41 -272 -41zM526.003 -547.004l-59 48.001c16 13.333 33 36.166 51 68.499s29.333 59.833 34 82.5c-29.333 8 -52.666 22.5 -69.999 43.5s-26 46.833 -26 77.5c0 37.333 12.167 67.833 36.5 91.5
s55.833 35.5 94.5 35.5c37.333 0 68.166 -11.5 92.499 -34.5s36.5 -56.833 36.5 -101.5c0 -49.333 -16.5 -101 -49.5 -155s-79.833 -106 -140.5 -156z" />
    <glyph glyph-name="uni021A" unicode="&#x21a;" horiz-adv-x="1138" 
d="M349 0v1264h-360v386h1160v-386h-360v-1264h-440zM529 -547l-59 48.001c16 13.333 33 36.166 51 68.499s29.333 59.833 34 82.5c-29.333 8 -52.666 22.5 -69.999 43.5s-26 46.833 -26 77.5c0 37.333 12.167 67.833 36.5 91.5s55.833 35.5 94.5 35.5
c37.333 0 68.166 -11.5 92.499 -34.5s36.5 -56.833 36.5 -101.5c0 -49.333 -16.5 -101 -49.5 -155s-79.833 -106 -140.5 -156z" />
    <glyph glyph-name="uni021B" unicode="&#x21b;" horiz-adv-x="940" 
d="M577 -32c-118.667 0 -211.168 37 -277.501 111s-99.5 177 -99.5 309v320h-160v316h160v384h416v-384h204v-316h-204v-288c0 -26.667 5.5 -46.667 16.5 -60s27.167 -20 48.5 -20c26.667 0 54.334 10.667 83.001 32l104 -334c-42.667 -22 -89.667 -39.167 -141 -51.5
s-101.333 -18.5 -150 -18.5zM536.999 -547l-59 48.001c16 13.333 33 36.166 51 68.499s29.333 59.833 34 82.5c-29.333 8 -52.666 22.5 -69.999 43.5s-26 46.833 -26 77.5c0 37.333 12.167 67.833 36.5 91.5s55.833 35.5 94.5 35.5c37.333 0 68.166 -11.5 92.499 -34.5
s36.5 -56.833 36.5 -101.5c0 -49.333 -16.5 -101 -49.5 -155s-79.833 -106 -140.5 -156z" />
    <glyph glyph-name="circumflex" unicode="&#x2c6;" horiz-adv-x="924" 
d="M156 1130l-156 210l462 340l462 -340l-156 -210l-306 224z" />
    <glyph glyph-name="caron" unicode="&#x2c7;" horiz-adv-x="924" 
d="M462 1130l-462 340l156 210l306 -224l306 224l156 -210z" />
    <glyph glyph-name="breve" unicode="&#x2d8;" horiz-adv-x="952" 
d="M476 1234c-90 0 -169.334 15.833 -238.001 47.5s-123.667 75.667 -165 132s-65.666 121.166 -72.999 194.499l292 72c2 -29.333 9 -59 21 -89s31.167 -55 57.5 -75s61.5 -30 105.5 -30c44.667 0 80 10 106 30s45.167 45 57.5 75s19.166 59.667 20.499 89l292 -72
c-7.33301 -73.333 -31.666 -138.166 -72.999 -194.499s-96.333 -100.333 -165 -132s-148 -47.5 -238 -47.5z" />
    <glyph glyph-name="dotaccent" unicode="&#x2d9;" horiz-adv-x="481" 
d="M241 1243c-44 0 -84.333 10.833 -121 32.5s-65.834 50.834 -87.501 87.501s-32.5 77 -32.5 121s10.833 84.167 32.5 120.5s50.834 65.333 87.501 87s77 32.5 121 32.5s84.167 -10.833 120.5 -32.5s65.333 -50.667 87 -87s32.5 -76.5 32.5 -120.5
s-10.833 -84.333 -32.5 -121s-50.667 -65.834 -87 -87.501s-76.5 -32.5 -120.5 -32.5z" />
    <glyph glyph-name="ring" unicode="&#x2da;" horiz-adv-x="696" 
d="M348 1160c-64.667 0 -123.334 13 -176.001 39s-94.5 62 -125.5 108s-46.5 99 -46.5 159v0c0 60 15.5 113 46.5 159s72.833 82 125.5 108s111.334 39 176.001 39s123.334 -13 176.001 -39s94.5 -62 125.5 -108s46.5 -99 46.5 -159s-15.5 -113 -46.5 -159
s-72.833 -82 -125.5 -108s-111.334 -39 -176.001 -39zM348 1342c31.333 0 58.833 12.167 82.5 36.5s35.5 53.5 35.5 87.5s-11.833 63.167 -35.5 87.5s-51.167 36.5 -82.5 36.5c-30.667 0 -58 -12.167 -82 -36.5s-36 -53.5 -36 -87.5v0c0 -34 12 -63.167 36 -87.5
s51.333 -36.5 82 -36.5z" />
    <glyph glyph-name="ogonek" unicode="&#x2db;" horiz-adv-x="526" 
d="M252 -550c-72 0 -132.002 22.001 -180.002 66.001s-72 97 -72 159c0 45.333 14.333 96.5 43 153.5s70 116.5 124 178.5h185c-34.667 -42.667 -62.667 -88.834 -84 -138.501s-32 -92.5 -32 -128.5c0 -22.667 4.33301 -40 13 -52s21.334 -18 38.001 -18
c14 0 27.667 4.33301 41 13s24 20.334 32 35.001l166 -124c-30.667 -44.667 -70.667 -79.834 -120 -105.501s-100.666 -38.5 -153.999 -38.5z" />
    <glyph glyph-name="tilde" unicode="&#x2dc;" horiz-adv-x="1192" 
d="M769 1109c-32 0 -65.6729 8.33398 -101.006 25.001s-71.166 35.667 -107.499 57s-72.166 40.333 -107.499 57s-68.666 25 -99.999 25c-42.667 0 -75.667 -15.667 -99 -47s-40 -64.666 -50 -99.999l-204 179c37.333 78.667 87.333 144.5 150 197.5
s128.334 79.5 197.001 79.5c40 0 81.5 -8.33301 124.5 -25s85 -35.667 126 -57l111 -57c33 -16.667 59.167 -25 78.5 -25c26.667 0 53.334 15.667 80.001 47s44.334 64.666 53.001 99.999l203 -179c-23.333 -52 -56 -98.833 -98 -140.5s-86 -74.834 -132 -99.501
s-87.333 -37 -124 -37z" />
    <glyph glyph-name="hungarumlaut" unicode="&#x2dd;" horiz-adv-x="1256" 
d="M750 1116l-146 176l401 388l238 -264zM148 1116l-148 176l401 388l238 -264z" />
    <glyph glyph-name="gravecomb" unicode="&#x300;" horiz-adv-x="0" 
d="M436 1075l-436 418l268 205l335 -483z" />
    <glyph glyph-name="acutecomb" unicode="&#x301;" horiz-adv-x="0" 
d="M167 1075l-167 140l335 483l268 -205z" />
    <glyph glyph-name="uni0302" unicode="&#x302;" horiz-adv-x="0" 
d="M156 1130l-156 210l462 340l462 -340l-156 -210l-306 224z" />
    <glyph glyph-name="tildecomb" unicode="&#x303;" horiz-adv-x="0" 
d="M769 1109c-32 0 -65.6729 8.33398 -101.006 25.001s-71.166 35.667 -107.499 57s-72.166 40.333 -107.499 57s-68.666 25 -99.999 25c-42.667 0 -75.667 -15.667 -99 -47s-40 -64.666 -50 -99.999l-204 179c37.333 78.667 87.333 144.5 150 197.5
s128.334 79.5 197.001 79.5c40 0 81.5 -8.33301 124.5 -25s85 -35.667 126 -57l111 -57c33 -16.667 59.167 -25 78.5 -25c26.667 0 53.334 15.667 80.001 47s44.334 64.666 53.001 99.999l203 -179c-23.333 -52 -56 -98.833 -98 -140.5s-86 -74.834 -132 -99.501
s-87.333 -37 -124 -37z" />
    <glyph glyph-name="uni0304" unicode="&#x304;" horiz-adv-x="0" 
d="M0 1248v280h816v-280h-816z" />
    <glyph glyph-name="uni0306" unicode="&#x306;" horiz-adv-x="0" 
d="M476 1234c-90 0 -169.334 15.833 -238.001 47.5s-123.667 75.667 -165 132s-65.666 121.166 -72.999 194.499l292 72c2 -29.333 9 -59 21 -89s31.167 -55 57.5 -75s61.5 -30 105.5 -30c44.667 0 80 10 106 30s45.167 45 57.5 75s19.166 59.667 20.499 89l292 -72
c-7.33301 -73.333 -31.666 -138.166 -72.999 -194.499s-96.333 -100.333 -165 -132s-148 -47.5 -238 -47.5z" />
    <glyph glyph-name="uni0307" unicode="&#x307;" horiz-adv-x="0" 
d="M241 1243c-44 0 -84.333 10.833 -121 32.5s-65.834 50.834 -87.501 87.501s-32.5 77 -32.5 121s10.833 84.167 32.5 120.5s50.834 65.333 87.501 87s77 32.5 121 32.5s84.167 -10.833 120.5 -32.5s65.333 -50.667 87 -87s32.5 -76.5 32.5 -120.5
s-10.833 -84.333 -32.5 -121s-50.667 -65.834 -87 -87.501s-76.5 -32.5 -120.5 -32.5z" />
    <glyph glyph-name="uni0308" unicode="&#x308;" horiz-adv-x="0" 
d="M684 1186c-58.667 0 -108.667 20.667 -150 62s-62 91.333 -62 150c0 59.333 20.667 109.5 62 150.5s91.333 61.5 150 61.5c59.333 0 109.5 -20.5 150.5 -61.5s61.5 -91.167 61.5 -150.5c0 -58.667 -20.5 -108.667 -61.5 -150s-91.167 -62 -150.5 -62zM212 1186
c-58.667 0 -108.667 20.667 -150 62s-62 91.333 -62 150c0 59.333 20.667 109.5 62 150.5s91.333 61.5 150 61.5c59.333 0 109.5 -20.5 150.5 -61.5s61.5 -91.167 61.5 -150.5c0 -58.667 -20.5 -108.667 -61.5 -150s-91.167 -62 -150.5 -62z" />
    <glyph glyph-name="uni030A" unicode="&#x30a;" horiz-adv-x="0" 
d="M348 1160c-64.667 0 -123.334 13 -176.001 39s-94.5 62 -125.5 108s-46.5 99 -46.5 159v0c0 60 15.5 113 46.5 159s72.833 82 125.5 108s111.334 39 176.001 39s123.334 -13 176.001 -39s94.5 -62 125.5 -108s46.5 -99 46.5 -159s-15.5 -113 -46.5 -159
s-72.833 -82 -125.5 -108s-111.334 -39 -176.001 -39zM348 1342c31.333 0 58.833 12.167 82.5 36.5s35.5 53.5 35.5 87.5s-11.833 63.167 -35.5 87.5s-51.167 36.5 -82.5 36.5c-30.667 0 -58 -12.167 -82 -36.5s-36 -53.5 -36 -87.5v0c0 -34 12 -63.167 36 -87.5
s51.333 -36.5 82 -36.5z" />
    <glyph glyph-name="uni030B" unicode="&#x30b;" horiz-adv-x="0" 
d="M750 1116l-146 176l401 388l238 -264zM148 1116l-148 176l401 388l238 -264z" />
    <glyph glyph-name="uni030C" unicode="&#x30c;" horiz-adv-x="0" 
d="M462 1130l-462 340l156 210l306 -224l306 224l156 -210z" />
    <glyph glyph-name="uni0312" unicode="&#x312;" horiz-adv-x="0" 
d="M420 1300c-55.333 0 -99.165 12.166 -131.498 36.499s-48.5 57.5 -48.5 99.5c0 49.333 21.667 101 65 155s104.666 106 183.999 156l108 -48c-20.667 -12.667 -43 -35.167 -67 -67.5s-39 -60.166 -45 -83.499c39.333 -8 70.166 -22.833 92.499 -44.5
s33.5 -47.167 33.5 -76.5c0 -37.333 -17.833 -67.833 -53.5 -91.5s-81.5 -35.5 -137.5 -35.5z" />
    <glyph glyph-name="uni0326" unicode="&#x326;" horiz-adv-x="0" 
d="M340 -547l-59 48.001c16 13.333 33 36.166 51 68.499s29.333 59.833 34 82.5c-29.333 8 -52.666 22.5 -69.999 43.5s-26 46.833 -26 77.5c0 37.333 12.167 67.833 36.5 91.5s55.833 35.5 94.5 35.5c37.333 0 68.166 -11.5 92.499 -34.5s36.5 -56.833 36.5 -101.5
c0 -49.333 -16.5 -101 -49.5 -155s-79.833 -106 -140.5 -156z" />
    <glyph glyph-name="uni0327" unicode="&#x327;" horiz-adv-x="0" 
d="M314 -551c-58.667 0 -113.834 13.168 -165.501 39.501s-101.167 66.5 -148.5 120.5l154 117c47.333 -55.333 97.333 -83 150 -83c22 0 39.667 5.5 53 16.5s20 25.167 20 42.5c0 21.333 -10.833 38.166 -32.5 50.499s-50.167 18.5 -85.5 18.5c-16.667 0 -32.5 -1 -47.5 -3
s-25.167 -4.66699 -30.5 -8l-23 19l75 228h164l-37 -113c25.333 0 51.333 -3.66699 78 -11s50.334 -17.666 71.001 -30.999c29.333 -18 51.333 -40.333 66 -67s22 -57.667 22 -93c0 -70.667 -26.5 -128.834 -79.5 -174.501s-120.833 -68.5 -203.5 -68.5z" />
    <glyph glyph-name="uni0328" unicode="&#x328;" horiz-adv-x="0" 
d="M252 -550c-72 0 -132.002 22.001 -180.002 66.001s-72 97 -72 159c0 45.333 14.333 96.5 43 153.5s70 116.5 124 178.5h185c-34.667 -42.667 -62.667 -88.834 -84 -138.501s-32 -92.5 -32 -128.5c0 -22.667 4.33301 -40 13 -52s21.334 -18 38.001 -18
c14 0 27.667 4.33301 41 13s24 20.334 32 35.001l166 -124c-30.667 -44.667 -70.667 -79.834 -120 -105.501s-100.666 -38.5 -153.999 -38.5z" />
    <glyph glyph-name="uni0394" unicode="&#x394;" horiz-adv-x="1466" 
d="M229 0l-33 22l498 1273h78l498 -1273l-33 -22h-1008zM594 277h278l-210 642h142z" />
    <glyph glyph-name="uni03A9" unicode="&#x3a9;" horiz-adv-x="1368" 
d="M59 0l0.000976562 288.001l243 -47c-64 54.667 -111.333 114.834 -142 180.501s-46 139.5 -46 221.5c0 110 24.833 203 74.5 279s117.334 133.667 203.001 173s182.834 59 291.501 59c111.333 0 210 -20.333 296 -61s153.333 -99.334 202 -176.001s73 -168.667 73 -276
c0 -84.667 -16 -159.667 -48 -225s-78.667 -123.666 -140 -174.999l243 47v-288h-580v160l9 13c18.667 26.667 35.167 55.667 49.5 87s26.666 63.5 36.999 96.5s18.166 66 23.499 99s8 64.5 8 94.5c0 51.333 -7.33301 95.666 -22 132.999s-34.834 66.166 -60.501 86.499
s-55.5 30.5 -89.5 30.5c-33.333 0 -63 -10 -89 -30s-46.333 -48.5 -61 -85.5s-22 -81.167 -22 -132.5c0 -32 2.83301 -65 8.5 -99s13.834 -67.833 24.501 -101.5s23.167 -65.667 37.5 -96s30.166 -57.833 47.499 -82.5l9 -13v-160h-580z" />
    <glyph glyph-name="uni03BC" unicode="&#x3bc;" horiz-adv-x="1616" 
d="M185 -320c0 50 3.33008 100.165 9.99707 150.498s14.334 103.833 23.001 160.5s16.334 119.334 23.001 188.001s10 146.334 10 233.001v612h416v-572c0 -44.667 13.667 -82.834 41 -114.501s64.333 -47.5 111 -47.5c34 0 64.833 8.5 92.5 25.5s49.834 39 66.501 66
s25 55.833 25 86.5v556h416v-1024h-416v96c-23.333 -23.333 -50.5 -44.666 -81.5 -63.999s-64.5 -34.833 -100.5 -46.5s-72.667 -17.5 -110 -17.5c-8 0 -16 0.166992 -24 0.5s-15.333 0.833008 -22 1.5v-290h-480z" />
    <glyph glyph-name="pi" unicode="&#x3c0;" horiz-adv-x="1397" 
d="M316 0l0.000976562 737h-159v287h1104v-287h-159v-320c0 -39.333 8.66699 -66.333 26 -81s49.666 -22 96.999 -22v-314c-158 0 -270.333 26 -337 78s-100 140.333 -100 265v394h-158v-737h-314z" />
    <glyph glyph-name="Wgrave" unicode="&#x1e80;" horiz-adv-x="2300" 
d="M456 0l-466 1650h490l244 -1040l262 1040h328l262 -1040l244 1040h490l-466 -1650h-488l-206 804l-206 -804h-488zM1260 1701l-436 418l268 205l335 -483z" />
    <glyph glyph-name="wgrave" unicode="&#x1e81;" horiz-adv-x="1984" 
d="M500 0l-566 1024h476l216 -480l224 480h284l224 -480l216 480h476l-566 -1024h-280l-212 452l-212 -452h-280zM1102 1075l-436 418l268 205l335 -483z" />
    <glyph glyph-name="Wacute" unicode="&#x1e82;" horiz-adv-x="2300" 
d="M456 0l-466 1650h490l244 -1040l262 1040h328l262 -1040l244 1040h490l-466 -1650h-488l-206 804l-206 -804h-488zM1075 1701l-167 140l335 483l268 -205z" />
    <glyph glyph-name="wacute" unicode="&#x1e83;" horiz-adv-x="1984" 
d="M500 0l-566 1024h476l216 -480l224 480h284l224 -480l216 480h476l-566 -1024h-280l-212 452l-212 -452h-280zM917 1075l-167 140l335 483l268 -205z" />
    <glyph glyph-name="Wdieresis" unicode="&#x1e84;" horiz-adv-x="2300" 
d="M456 0l-466 1650h490l244 -1040l262 1040h328l262 -1040l244 1040h490l-466 -1650h-488l-206 804l-206 -804h-488zM1386 1812c-58.667 0 -108.667 20.667 -150 62s-62 91.333 -62 150c0 59.333 20.667 109.5 62 150.5s91.333 61.5 150 61.5
c59.333 0 109.5 -20.5 150.5 -61.5s61.5 -91.167 61.5 -150.5c0 -58.667 -20.5 -108.667 -61.5 -150s-91.167 -62 -150.5 -62zM914 1812c-58.667 0 -108.667 20.667 -150 62s-62 91.333 -62 150c0 59.333 20.667 109.5 62 150.5s91.333 61.5 150 61.5
c59.333 0 109.5 -20.5 150.5 -61.5s61.5 -91.167 61.5 -150.5c0 -58.667 -20.5 -108.667 -61.5 -150s-91.167 -62 -150.5 -62z" />
    <glyph glyph-name="wdieresis" unicode="&#x1e85;" horiz-adv-x="1984" 
d="M500 0l-566 1024h476l216 -480l224 480h284l224 -480l216 480h476l-566 -1024h-280l-212 452l-212 -452h-280zM1228 1186c-58.667 0 -108.667 20.667 -150 62s-62 91.333 -62 150c0 59.333 20.667 109.5 62 150.5s91.333 61.5 150 61.5c59.333 0 109.5 -20.5 150.5 -61.5
s61.5 -91.167 61.5 -150.5c0 -58.667 -20.5 -108.667 -61.5 -150s-91.167 -62 -150.5 -62zM756 1186c-58.667 0 -108.667 20.667 -150 62s-62 91.333 -62 150c0 59.333 20.667 109.5 62 150.5s91.333 61.5 150 61.5c59.333 0 109.5 -20.5 150.5 -61.5
s61.5 -91.167 61.5 -150.5c0 -58.667 -20.5 -108.667 -61.5 -150s-91.167 -62 -150.5 -62z" />
    <glyph glyph-name="uni1E9E" unicode="&#x1e9e;" horiz-adv-x="1759" 
d="M1164 -23c-56.667 0 -122.671 7.49609 -198.004 22.4961s-148.666 34.833 -219.999 59.5l80 425c68 -29.333 126 -50.5 174 -63.5s92.667 -19.5 134 -19.5c28 0 51.333 2.66699 70 8s32.834 13.5 42.501 24.5s14.5 24.5 14.5 40.5c0 23.333 -8.83301 41.833 -26.5 55.5
s-40.167 25.167 -67.5 34.5s-56.666 18.5 -87.999 27.5s-60.666 20.167 -87.999 33.5s-49.833 31.166 -67.5 53.499s-26.5 51.5 -26.5 87.5c0 27.333 4.66699 50.333 14 69s21 36 35 52l42 49.5c14 17 25.667 37 35 60s14 51.5 14 85.5c0 55.333 -14.833 98.333 -44.5 129
s-73.167 46 -130.5 46c-74.667 0 -130.667 -26.333 -168 -79s-56 -133.667 -56 -243v-934h-442v887c0 174 26.333 319.833 79 437.5s130.5 206.334 233.5 266.001s230.167 89.5 381.5 89.5c125.333 0 234.5 -19.833 327.5 -59.5s165.167 -96 216.5 -169
s77 -160.167 77 -261.5c0 -46 -4.66699 -85.667 -14 -119s-21 -62.166 -35 -86.499s-28 -45.166 -42 -62.499s-25.667 -32.666 -35 -45.999s-14 -26.333 -14 -39c0 -15.333 7.5 -28 22.5 -38s34.5 -19.667 58.5 -29s49.5 -20.666 76.5 -33.999s52.333 -31 76 -53
s43.167 -50.5 58.5 -85.5s23 -79.167 23 -132.5c0 -91.333 -23.167 -174 -69.5 -248s-108.833 -132.667 -187.5 -176s-167 -65 -265 -65z" />
    <glyph glyph-name="Ygrave" unicode="&#x1ef2;" horiz-adv-x="1540" 
d="M550 0v748l-620 902h530l310 -458l310 458h530l-620 -902v-748h-440zM880 1701l-436 418l268 205l335 -483z" />
    <glyph glyph-name="ygrave" unicode="&#x1ef3;" horiz-adv-x="1281" 
d="M31 -520l384 718l-486 826h478l252 -432l208 432h478l-836 -1544h-478zM751 1075l-436 418l268 205l335 -483z" />
    <glyph glyph-name="endash" unicode="&#x2013;" horiz-adv-x="1454" 
d="M157 400v358h1140v-358h-1140z" />
    <glyph glyph-name="emdash" unicode="&#x2014;" horiz-adv-x="2606" 
d="M157 400v358h2292v-358h-2292z" />
    <glyph glyph-name="quoteleft" unicode="&#x2018;" horiz-adv-x="681" 
d="M323 853c-72.667 0 -130.334 22.668 -173.001 68.001s-64 106.333 -64 183c0 91.333 30.5 187 91.5 287s147.833 196.333 260.5 289l108 -89c-19.333 -16 -40.166 -40.667 -62.499 -74s-42.166 -68.666 -59.499 -105.999s-29 -70.333 -35 -99
c55.333 -14.667 98.666 -41.834 129.999 -81.501s47 -87.5 47 -143.5c0 -68.667 -22.5 -124.834 -67.5 -168.501s-103.5 -65.5 -175.5 -65.5z" />
    <glyph glyph-name="quoteright" unicode="&#x2019;" horiz-adv-x="680" 
d="M237 854l-108.001 89.002c19.333 16 40.166 40.667 62.499 74s42.333 68.833 60 106.5s29.167 70.5 34.5 98.5c-55.333 15.333 -98.666 42.666 -129.999 81.999s-47 87 -47 143c0 69.333 22.5 125.666 67.5 168.999s103.5 65 175.5 65
c72.667 0 130.334 -22.5 173.001 -67.5s64 -106.167 64 -183.5c0 -91.333 -30.5 -187 -91.5 -287s-147.833 -196.333 -260.5 -289z" />
    <glyph glyph-name="quotesinglbase" unicode="&#x201a;" horiz-adv-x="777" 
d="M236 -348l-108.001 89.002c19.333 16 40.166 40.667 62.499 74s42.333 68.833 60 106.5s29.167 70.5 34.5 98.5c-55.333 15.333 -98.666 42.666 -129.999 81.999s-47 87 -47 143c0 69.333 22.5 125.666 67.5 168.999s103.5 65 175.5 65
c72.667 0 130.334 -22.5 173.001 -67.5s64 -106.167 64 -183.5c0 -91.333 -30.5 -187 -91.5 -287s-147.833 -196.333 -260.5 -289z" />
    <glyph glyph-name="quotedblleft" unicode="&#x201c;" horiz-adv-x="1257" 
d="M900 853c-72.667 0 -130.334 22.668 -173.001 68.001s-64 106.333 -64 183c0 91.333 30.5 187 91.5 287s147.833 196.333 260.5 289l108 -89c-19.333 -16 -40.166 -40.667 -62.499 -74s-42.166 -68.666 -59.499 -105.999s-29 -70.333 -35 -99
c55.333 -14.667 98.666 -41.834 129.999 -81.501s47 -87.5 47 -143.5c0 -68.667 -22.5 -124.834 -67.5 -168.501s-103.5 -65.5 -175.5 -65.5zM319 853.001c-72.667 0 -130.334 22.668 -173.001 68.001s-64 106.333 -64 183c0 91.333 30.5 187 91.5 287
s147.833 196.333 260.5 289l108 -89c-19.333 -16 -40.166 -40.667 -62.499 -74s-42.166 -68.666 -59.499 -105.999s-29 -70.333 -35 -99c55.333 -14.667 98.666 -41.834 129.999 -81.501s47 -87.5 47 -143.5c0 -68.667 -22.5 -124.834 -67.5 -168.501
s-103.5 -65.5 -175.5 -65.5z" />
    <glyph glyph-name="quotedblright" unicode="&#x201d;" horiz-adv-x="1252" 
d="M820 853l-108.001 89.002c19.333 16 40.166 40.667 62.499 74s42.333 68.833 60 106.5s29.167 70.5 34.5 98.5c-55.333 15.333 -98.666 42.666 -129.999 81.999s-47 87 -47 143c0 69.333 22.5 125.666 67.5 168.999s103.5 65 175.5 65
c72.667 0 130.334 -22.5 173.001 -67.5s64 -106.167 64 -183.5c0 -91.333 -30.5 -187 -91.5 -287s-147.833 -196.333 -260.5 -289zM238.999 853.002l-108.001 89.002c19.333 16 40.166 40.667 62.499 74s42.333 68.833 60 106.5s29.167 70.5 34.5 98.5
c-55.333 15.333 -98.666 42.666 -129.999 81.999s-47 87 -47 143c0 69.333 22.5 125.666 67.5 168.999s103.5 65 175.5 65c72.667 0 130.334 -22.5 173.001 -67.5s64 -106.167 64 -183.5c0 -91.333 -30.5 -187 -91.5 -287s-147.833 -196.333 -260.5 -289z" />
    <glyph glyph-name="quotedblbase" unicode="&#x201e;" horiz-adv-x="1262" 
d="M241 -348l-108.001 89.002c19.333 16 40.166 40.667 62.499 74s42.333 68.833 60 106.5s29.167 70.5 34.5 98.5c-55.333 15.333 -98.666 42.666 -129.999 81.999s-47 87 -47 143c0 69.333 22.5 125.666 67.5 168.999s103.5 65 175.5 65
c72.667 0 130.334 -22.5 173.001 -67.5s64 -106.167 64 -183.5c0 -91.333 -30.5 -187 -91.5 -287s-147.833 -196.333 -260.5 -289zM821.999 -347.998l-108.001 89.002c19.333 16 40.166 40.667 62.499 74s42.333 68.833 60 106.5s29.167 70.5 34.5 98.5
c-55.333 15.333 -98.666 42.666 -129.999 81.999s-47 87 -47 143c0 69.333 22.5 125.666 67.5 168.999s103.5 65 175.5 65c72.667 0 130.334 -22.5 173.001 -67.5s64 -106.167 64 -183.5c0 -91.333 -30.5 -187 -91.5 -287s-147.833 -196.333 -260.5 -289z" />
    <glyph glyph-name="dagger" unicode="&#x2020;" horiz-adv-x="964" 
d="M304 0v1006h-224v316h224v398h356v-398h224v-316h-224v-1006h-356z" />
    <glyph glyph-name="daggerdbl" unicode="&#x2021;" horiz-adv-x="1088" 
d="M366 0v438h-224v316h224v204h-224v316h224v446h356v-446h224v-316h-224v-204h224v-316h-224v-438h-356z" />
    <glyph glyph-name="bullet" unicode="&#x2022;" horiz-adv-x="1148" 
d="M572 256c-85.333 0 -162.666 20.333 -231.999 61s-124.333 95.667 -165 165s-61 146.666 -61 231.999s20.333 162.666 61 231.999s95.667 124.333 165 165s146.666 61 231.999 61s162.666 -20.333 231.999 -61s124.333 -95.667 165 -165s61 -146.666 61 -231.999
s-20.333 -162.666 -61 -231.999s-95.667 -124.333 -165 -165s-146.666 -61 -231.999 -61z" />
    <glyph glyph-name="ellipsis" unicode="&#x2026;" horiz-adv-x="2443" 
d="M424 -32c-49.333 0 -94.166 11.833 -134.499 35.5s-72.333 55.667 -96 96s-35.5 85.166 -35.5 134.499s11.833 94.166 35.5 134.499s55.667 72.333 96 96s85.166 35.5 134.499 35.5s94.166 -11.833 134.499 -35.5s72.333 -55.667 96 -96s35.5 -85.166 35.5 -134.499
s-11.833 -94.166 -35.5 -134.499s-55.667 -72.333 -96 -96s-85.166 -35.5 -134.499 -35.5zM1220 -32c-49.333 0 -94.166 11.833 -134.499 35.5s-72.333 55.667 -96 96s-35.5 85.166 -35.5 134.499s11.833 94.166 35.5 134.499s55.667 72.333 96 96s85.166 35.5 134.499 35.5
s94.166 -11.833 134.499 -35.5s72.333 -55.667 96 -96s35.5 -85.166 35.5 -134.499s-11.833 -94.166 -35.5 -134.499s-55.667 -72.333 -96 -96s-85.166 -35.5 -134.499 -35.5zM2016 -32c-49.333 0 -94.166 11.833 -134.499 35.5s-72.333 55.667 -96 96
s-35.5 85.166 -35.5 134.499s11.833 94.166 35.5 134.499s55.667 72.333 96 96s85.166 35.5 134.499 35.5s94.166 -11.833 134.5 -35.5c40.333 -23.667 72.333 -55.667 96 -96s35.5 -85.166 35.5 -134.499s-11.833 -94.166 -35.5 -134.499s-55.667 -72.333 -96 -96
s-85.166 -35.5 -134.5 -35.5z" />
    <glyph glyph-name="perthousand" unicode="&#x2030;" horiz-adv-x="2931" 
d="M489 892c-86 0 -163.333 16.667 -232 50s-123.167 79.666 -163.5 138.999s-60.5 127.666 -60.5 204.999s20.167 145.666 60.5 204.999s94.833 105.666 163.5 138.999s146 50 232 50s163.5 -16.667 232.5 -50s123.5 -79.666 163.5 -138.999s60 -127.666 60 -204.999
s-20 -145.666 -60 -204.999s-94.5 -105.666 -163.5 -138.999s-146.5 -50 -232.5 -50zM363 0l960 1650h274l-960 -1650h-274zM489 1136c27.333 0 52.666 6.33301 75.999 19s42.166 30.334 56.499 53.001s21.5 48.667 21.5 78s-7.16699 55.333 -21.5 78
s-33.166 40.334 -56.499 53.001s-48.666 19 -75.999 19s-52.666 -6.33301 -75.999 -19s-42.166 -30.334 -56.499 -53.001s-21.5 -48.667 -21.5 -78s7.16699 -55.333 21.5 -78s33.166 -40.334 56.499 -53.001s48.666 -19 75.999 -19zM1463 -30c-86 0 -163.333 16.667 -232 50
s-123.167 79.666 -163.5 138.999s-60.5 127.666 -60.5 204.999s20.167 145.666 60.5 204.999s94.833 105.666 163.5 138.999s146 50 232 50s163.5 -16.667 232.5 -50s123.5 -79.666 163.5 -138.999s60 -127.666 60 -204.999s-20 -145.666 -60 -204.999
s-94.5 -105.666 -163.5 -138.999s-146.5 -50 -232.5 -50zM2441 -30c-86 0 -163.5 16.667 -232.5 50s-123.5 79.666 -163.5 138.999s-60 127.666 -60 204.999s20 145.666 60 204.999s94.5 105.666 163.5 138.999s146.5 50 232.5 50s163.5 -16.667 232.5 -50
s123.5 -79.666 163.5 -138.999s60 -127.666 60 -204.999s-20 -145.666 -60 -204.999s-94.5 -105.666 -163.5 -138.999s-146.5 -50 -232.5 -50zM1463 214c27.333 0 52.666 6.33301 75.999 19s42.166 30.334 56.499 53.001s21.5 48.667 21.5 78s-7.16699 55.333 -21.5 78
s-33.166 40.334 -56.499 53.001s-48.666 19 -75.999 19s-52.666 -6.33301 -75.999 -19s-42.166 -30.334 -56.499 -53.001s-21.5 -48.667 -21.5 -78s7.16699 -55.333 21.5 -78s33.166 -40.334 56.499 -53.001s48.666 -19 75.999 -19zM2441 214c27.333 0 52.666 6.33301 76 19
c23.333 12.667 42.166 30.334 56.5 53.001c14.333 22.667 21.5 48.667 21.5 78s-7.16699 55.333 -21.5 78s-33.166 40.334 -56.5 53.001c-23.333 12.667 -48.666 19 -76 19c-27.333 0 -52.666 -6.33301 -76 -19c-23.333 -12.667 -42.166 -30.334 -56.5 -53.001
c-14.333 -22.667 -21.5 -48.667 -21.5 -78s7.16699 -55.333 21.5 -78s33.166 -40.334 56.5 -53.001c23.333 -12.667 48.666 -19 76 -19z" />
    <glyph glyph-name="guilsinglleft" unicode="&#x2039;" horiz-adv-x="724" 
d="M435 58l-390 500l390 500l214 -168l-260 -332l260 -332z" />
    <glyph glyph-name="guilsinglright" unicode="&#x203a;" horiz-adv-x="720" 
d="M285 58l-214 168l260 332l-260 332l214 168l390 -500z" />
    <glyph glyph-name="fraction" unicode="&#x2044;" horiz-adv-x="234" 
d="M-500 0l960 1650h274l-960 -1650h-274z" />
    <glyph glyph-name="uni2074" unicode="&#x2074;" horiz-adv-x="648" 
d="M362 1040v105h-337v52l326 453h193v-335h79v-170h-79v-105h-182zM292 1315h70v108z" />
    <glyph glyph-name="Euro" unicode="&#x20ac;" horiz-adv-x="1778" 
d="M1147 -32c-118.667 0 -233.835 23.834 -345.502 71.501s-211.334 113.667 -299.001 198s-154.834 181.166 -201.501 290.499h-198v250h142c-0.666992 5.33301 -1.5 12.666 -2.5 21.999s-1.5 17.333 -1.5 24s0.5 13.834 1.5 21.501s1.83301 15.167 2.5 22.5h-142v250h198
c34 83.333 80 159.333 138 228s124.5 127.834 199.5 177.501s155.833 88.167 242.5 115.5s175.334 41 266.001 41c106.667 0 208.834 -13 306.501 -39s176.834 -61.667 237.501 -107l-184 -376c-36.667 28 -81 50 -133 66s-104.333 24 -157 24s-102 -4.66699 -148 -14
s-89 -23.666 -129 -42.999s-77.667 -43.666 -113 -72.999h522v-250h-624c-1.33301 -6 -2.33301 -12.833 -3 -20.5s-1 -15.5 -1 -23.5c0 -8.66699 0.333008 -16.834 1 -24.501s1.66699 -14.834 3 -21.501h624v-250h-522c34 -28 71.167 -51.5 111.5 -70.5
s83.833 -33.333 130.5 -43s96 -14.5 148 -14.5c51.333 0 103.333 8.16699 156 24.5s97.334 38.166 134.001 65.499l184 -376c-60.667 -44.667 -140 -80.167 -238 -106.5s-200 -39.5 -306 -39.5z" />
    <glyph glyph-name="trademark" unicode="&#x2122;" horiz-adv-x="1342" 
d="M547 1134l42 516h146l102 -268l104 268h146l40 -516h-136l-16 270l-96 -270h-82l-96 270l-16 -270h-138zM273 1134v396h-114v120h364v-120h-112v-396h-138z" />
    <glyph glyph-name="uni2150" unicode="&#x2150;" horiz-adv-x="2510" 
d="M337 600v722h-199v328h535v-1050h-336zM424 0l960 1650h274l-960 -1650h-274zM1371 0l470 757h-423v293h919v-94l-571 -956h-395z" />
    <glyph glyph-name="uni2151" unicode="&#x2151;" horiz-adv-x="2531" 
d="M337 600v722h-199v328h535v-1050h-336zM424 0l960 1650h274l-960 -1650h-274zM1460 0l336.999 343.999c-6.66699 0.666992 -15.5 1 -26.5 1h-34.5c-60.667 0 -119.667 15.333 -177 46s-104.333 73.5 -141 128.5s-55 119.167 -55 192.5c0 66.667 17.333 128 52 184
s85.834 100.833 153.501 134.5s151.5 50.5 251.5 50.5c93.333 0 175.833 -15.5 247.5 -46.5s129.167 -75.5 172.5 -133.5s68 -127.333 74 -208c6 -76 -3.66699 -143.667 -29 -203s-56.666 -111.166 -94 -155.499c-37.333 -44.333 -71.666 -81.833 -103 -112.5l-224 -222
h-404zM1835 629.999c26 0 48.667 3.83691 68 11.5039s34.5 18.167 45.5 31.5s16.5 28.333 16.5 45c0 17.333 -5.66699 32.666 -17 45.999s-26.833 23.666 -46.5 30.999s-42.167 11 -67.5 11c-26 0 -49.167 -3.83301 -69.5 -11.5s-36.333 -18 -48 -31
s-17.5 -27.833 -17.5 -44.5s6 -31.834 18 -45.501s28.167 -24.334 48.5 -32.001s43.5 -11.5 69.5 -11.5z" />
    <glyph glyph-name="uni2152" unicode="&#x2152;" horiz-adv-x="3750" 
d="M337 600v722h-199v328h535v-1050h-336zM424 0l960 1650h274l-960 -1650h-274zM1757 0v722h-199v328h535v-1050h-336zM2922 -21c-104.667 0 -196.667 23.333 -276 70s-141.333 111.334 -186 194.001s-67 178.334 -67 287.001s22.333 204.167 67 286.5
s106.667 146.833 186 193.5s171.333 70 276 70s196.667 -23.333 276 -70s141.166 -111.167 185.5 -193.5c44.333 -82.333 66.5 -177.833 66.5 -286.5s-22.333 -204.334 -67 -287.001s-106.5 -147.334 -185.5 -194.001s-170.833 -70 -275.5 -70zM2922 272
c37.333 0 69 9.83398 95 29.501s46 48.667 60 87s21 85.5 21 141.5s-7 103.167 -21 141.5s-34 67.166 -60 86.499s-57.667 29 -95 29s-69.166 -9.83301 -95.5 -29.5c-26.333 -19.667 -46.5 -48.5 -60.5 -86.5s-21 -85 -21 -141s7 -103.167 21 -141.5
s34.167 -67.333 60.5 -87s58.166 -29.5 95.5 -29.5z" />
    <glyph glyph-name="uni2153" unicode="&#x2153;" horiz-adv-x="2513" 
d="M337 600v722h-199v328h535v-1050h-336zM424 0l960 1650h274l-960 -1650h-274zM1804 -21c-100 0 -190.337 22.6709 -271.004 68.0039s-140 107 -178 185l308 158c6.66699 -36.667 21.667 -66.834 45 -90.501s55.333 -35.5 96 -35.5c34.667 0 62.334 8.5 83.001 25.5
s31 40.5 31 70.5c0 20.667 -5 39 -15 55s-23.667 28.5 -41 37.5s-37.333 13.5 -60 13.5c-20.667 0 -39 -3.33301 -55 -10v213h65c14 0 27 3.83301 39 11.5s21.833 17.5 29.5 29.5s11.5 24.333 11.5 37s-4.16699 24 -12.5 34s-19.666 18 -33.999 24s-31.166 9 -50.499 9
s-37.666 -3.33301 -54.999 -10s-32.5 -16.167 -45.5 -28.5s-23.167 -27.5 -30.5 -45.5l-260 133c20.667 45.333 50.334 84.166 89.001 116.499s84.167 57.166 136.5 74.499s108.833 26 169.5 26c77.333 0 145.666 -13.833 204.999 -41.5s105.833 -66.334 139.5 -116.001
s50.5 -107.167 50.5 -172.5c0 -28.667 -4.16699 -56.167 -12.5 -82.5s-23.166 -53.5 -44.5 -81.5c42 -34.667 71.333 -70.667 88 -108s25 -77.333 25 -120c0 -72.667 -19.5 -137.5 -58.5 -194.5s-92.167 -102 -159.5 -135s-143.333 -49.5 -228 -49.5z" />
    <glyph glyph-name="uni2154" unicode="&#x2154;" horiz-adv-x="3037" 
d="M215 600l0.00195312 176.002c96 58.667 180 114.167 252 166.5s132.167 100.833 180.5 145.5s84.5 84.667 108.5 120s36 65.666 36 90.999c0 17.333 -5.16699 32.666 -15.5 45.999s-24.5 23.833 -42.5 31.5s-39.333 11.5 -64 11.5c-21.333 0 -41.333 -4 -60 -12
s-37.334 -22.333 -56.001 -43s-39 -50.334 -61 -89.001l-276 142c29.333 66.667 66.666 121.834 111.999 165.501s98 76.167 158 97.5s127 32 201 32c96.667 0 179.5 -16.167 248.5 -48.5s122.167 -76 159.5 -131s56 -116.5 56 -184.5c0 -42.667 -7.66699 -84.667 -23 -126
s-37.833 -80.333 -67.5 -117s-66 -70.5 -109 -101.5s-92.167 -57.833 -147.5 -80.5h369v-292h-959zM948.002 0.00195312l960 1650h274l-960 -1650h-274zM2328 -20.998c-100 0 -190.335 22.6709 -271.002 68.0039s-140 107 -178 185l308 158
c6.66699 -36.667 21.667 -66.834 45 -90.501s55.333 -35.5 96 -35.5c34.667 0 62.334 8.5 83 25.5c20.667 17 31 40.5 31 70.5c0 20.667 -5 39 -15 55s-23.667 28.5 -41 37.5s-37.333 13.5 -60 13.5c-20.667 0 -39 -3.33301 -55 -10v213h65c14 0 27 3.83301 39 11.5
s21.833 17.5 29.5 29.5s11.5 24.333 11.5 37s-4.16699 24 -12.5 34s-19.666 18 -34 24c-14.333 6 -31.166 9 -50.5 9c-19.333 0 -37.666 -3.33301 -54.999 -10s-32.5 -16.167 -45.5 -28.5s-23.167 -27.5 -30.5 -45.5l-260 133c20.667 45.333 50.334 84.166 89.001 116.499
s84.167 57.166 136.5 74.499s108.833 26 169.5 26c77.333 0 145.666 -13.833 205 -41.5c59.333 -27.667 105.833 -66.334 139.5 -116.001s50.5 -107.167 50.5 -172.5c0 -28.667 -4.16699 -56.167 -12.5 -82.5s-23.166 -53.5 -44.5 -81.5c42 -34.667 71.333 -70.667 88 -108
s25 -77.333 25 -120c0 -72.667 -19.5 -137.5 -58.5 -194.5s-92.167 -102 -159.5 -135s-143.333 -49.5 -228 -49.5z" />
    </font>
</defs>
</svg>
